<svg width="17" height="17" viewBox="0 0 17 17" fill="none" xmlns="http://www.w3.org/2000/svg">
<path fill-rule="evenodd" clip-rule="evenodd" d="M4.29121 0.629489C4.52143 0.900043 4.67294 1.24047 4.70936 1.61826L5.1334 6.06143L4.50669 6.12145L4.32861 4.26001H0.314366C0.210079 4.26001 0.112677 4.20885 0.054642 4.12227C-0.0043904 4.03569 -0.0161954 3.92648 0.0221739 3.82907L1.08177 1.16684C1.36218 0.462401 2.043 0 2.80154 0H13.321C14.4209 0 15.3408 0.836271 15.4461 1.93131L16.851 16.6556C16.8599 16.7432 16.8304 16.8318 16.7704 16.8967C16.7113 16.9626 16.6267 17 16.5382 17H5.83084V16.3703H16.1919L14.8184 1.9913C14.7456 1.21898 14.0963 0.629663 13.321 0.629663L4.29121 0.629489ZM2.92857 0.629489H2.80165C2.30185 0.629489 1.85126 0.934473 1.66629 1.39886L0.778863 3.63025H4.26847L4.08252 1.67828C4.02546 1.08305 3.52577 0.629489 2.92857 0.629489ZM7.50044 13.9696C6.8442 14.9957 5.69506 15.6756 4.38864 15.6756C2.35207 15.6756 0.699301 14.0227 0.699301 11.9862C0.699301 11.8121 0.839991 11.6714 1.01413 11.6714H7.7644C7.93755 11.6714 8.07923 11.8121 8.07923 11.9862C8.07923 12.489 7.97789 12.9691 7.7949 13.4069C8.01036 13.4787 8.23959 13.5181 8.47866 13.5181C9.55499 13.5181 10.4464 12.7231 10.5989 11.6891H8.47866V11.0594H10.9363C11.1105 11.0594 11.2512 11.2011 11.2512 11.3743C11.2512 12.9051 10.0095 14.1478 8.47861 14.1478C8.13426 14.1478 7.80467 14.0849 7.50067 13.9697L7.50044 13.9696ZM4.38864 15.0459C5.97166 15.0459 7.27527 13.8417 7.43269 12.3011H1.34458C1.50298 13.8418 2.80659 15.0459 4.38864 15.0459ZM4.38864 7.29019C5.40595 7.29019 6.23237 8.11563 6.23237 9.13294C6.23237 10.1503 5.40595 10.9757 4.38864 10.9757C3.37132 10.9757 2.54588 10.1503 2.54588 9.13294C2.54588 8.11563 3.37132 7.29019 4.38864 7.29019ZM4.38864 7.91985C3.71963 7.91985 3.17555 8.46293 3.17555 9.13294C3.17555 9.80295 3.71963 10.347 4.38864 10.347C5.05865 10.347 5.60271 9.80293 5.60271 9.13294C5.60271 8.46295 5.05862 7.91985 4.38864 7.91985ZM8.47844 7.70537C9.2665 7.70537 9.90601 8.34489 9.90601 9.13295C9.90601 9.92101 9.2665 10.5605 8.47844 10.5605C7.69037 10.5605 7.05086 9.92101 7.05086 9.13295C7.05086 8.34489 7.69037 7.70537 8.47844 7.70537ZM8.47844 8.33504C8.03767 8.33504 7.68052 8.69218 7.68052 9.13295C7.68052 9.57372 8.03767 9.93086 8.47844 9.93086C8.9192 9.93086 9.27733 9.57372 9.27733 9.13295C9.27733 8.69218 8.9192 8.33504 8.47844 8.33504ZM6.58944 3.58006V2.95039H13.0445V3.58006H6.58944ZM6.92198 5.65304V5.02338H13.3781V5.65304H6.92198ZM10.7924 7.72504V7.09538H13.7105V7.72504H10.7924Z" fill="black"/>
</svg>
