<svg width="20" height="20" viewBox="0 0 20 20" fill="none" xmlns="http://www.w3.org/2000/svg">
<path d="M10.7047 5.28277L10.1185 8.85298L12.6344 8.9629H12.7117C12.8127 8.97974 12.9085 9.01975 12.9915 9.07978C13.0745 9.13982 13.1424 9.21824 13.19 9.30893C13.2364 9.40041 13.2605 9.50152 13.2605 9.60407C13.2605 9.70662 13.2364 9.80772 13.19 9.89921L10.0391 15.9446C9.98662 16.0482 9.89872 16.1297 9.79135 16.1741C9.68399 16.2186 9.56425 16.2232 9.4538 16.187C9.34336 16.1509 9.24951 16.0764 9.18923 15.977C9.12896 15.8777 9.10625 15.76 9.12521 15.6453L9.71142 12.069L7.19355 11.953H7.1162C7.01554 11.9359 6.92019 11.8957 6.83758 11.8357C6.75496 11.7757 6.68732 11.6974 6.6399 11.607C6.59374 11.5154 6.56969 11.4143 6.56969 11.3118C6.56969 11.2093 6.59374 11.1082 6.6399 11.0167L9.78674 4.98152C9.84119 4.87987 9.92971 4.80065 10.0368 4.75778C10.1438 4.7149 10.2625 4.71111 10.3721 4.74706C10.4817 4.78302 10.5751 4.85642 10.6359 4.95439C10.6967 5.05236 10.7211 5.16862 10.7047 5.28277ZM9.91497 0.788452C9.65774 0.788452 9.41104 0.890638 9.22915 1.07253C9.04726 1.25442 8.94507 1.50112 8.94507 1.75835C8.94507 2.01559 9.04726 2.26229 9.22915 2.44418C9.41104 2.62607 9.65774 2.72825 9.91497 2.72825C11.8921 2.72987 13.7878 3.51586 15.186 4.91371C16.5843 6.31155 17.3708 8.20705 17.3729 10.1842C17.3729 10.4414 17.4751 10.6881 17.657 10.87C17.8389 11.0519 18.0856 11.1541 18.3428 11.1541C18.6001 11.1541 18.8468 11.0519 19.0287 10.87C19.2105 10.6881 19.3127 10.4414 19.3127 10.1842C19.31 7.69275 18.319 5.30417 16.5571 3.54265C14.7952 1.78114 12.4064 0.790607 9.91497 0.788452ZM8.93184 18.609C8.93157 18.7362 8.95637 18.8623 9.00481 18.9799C9.05326 19.0976 9.1244 19.2045 9.21418 19.2947C9.30396 19.3848 9.41062 19.4564 9.52807 19.5054C9.64551 19.5543 9.77145 19.5796 9.89869 19.5799C10.0902 19.5799 10.2775 19.5231 10.4368 19.4168C10.596 19.3104 10.7202 19.1592 10.7936 18.9823C10.867 18.8053 10.8863 18.6106 10.8491 18.4227C10.8119 18.2349 10.7198 18.0622 10.5845 17.9266C10.4492 17.7911 10.2768 17.6986 10.089 17.661C9.90114 17.6234 9.7064 17.6423 9.52932 17.7153C9.35224 17.7883 9.20078 17.9122 9.09408 18.0713C8.98737 18.2303 8.93021 18.4174 8.9298 18.609H8.93184ZM1.48813 11.147C1.68001 11.147 1.86758 11.09 2.02704 10.9832C2.1865 10.8765 2.31068 10.7248 2.38383 10.5474C2.45698 10.37 2.47581 10.1749 2.43792 9.98679C2.40004 9.79868 2.30716 9.62606 2.17104 9.4908C2.03493 9.35555 1.86172 9.26376 1.67338 9.22707C1.48503 9.19037 1.29003 9.21043 1.1131 9.2847C0.936172 9.35897 0.785279 9.48411 0.679555 9.64424C0.57383 9.80437 0.518036 9.9923 0.519245 10.1842C0.520858 10.4401 0.623648 10.685 0.805175 10.8653C0.986701 11.0457 1.23222 11.147 1.48813 11.147ZM5.2049 18.3159C5.37067 18.4119 5.56118 18.4566 5.75237 18.4444C5.94355 18.4322 6.12682 18.3635 6.27901 18.2472C6.4312 18.1308 6.54548 17.972 6.6074 17.7907C6.66932 17.6094 6.67611 17.4138 6.62691 17.2286C6.57771 17.0435 6.47472 16.8771 6.33097 16.7505C6.18722 16.6238 6.00915 16.5427 5.81927 16.5172C5.6294 16.4917 5.43624 16.5231 5.26421 16.6074C5.09217 16.6917 4.94899 16.8251 4.85276 16.9908C4.72467 17.2134 4.6898 17.4777 4.75577 17.7259C4.82173 17.9741 4.98318 18.1862 5.2049 18.3159ZM4.86497 3.37146C4.96169 3.53656 5.10512 3.66932 5.27718 3.75301C5.44925 3.83669 5.64224 3.86756 5.83182 3.84172C6.02141 3.81588 6.19909 3.73448 6.34248 3.60779C6.48587 3.48111 6.58854 3.3148 6.63754 3.12984C6.68654 2.94489 6.67968 2.74956 6.61782 2.5685C6.55597 2.38744 6.44189 2.22874 6.28997 2.11242C6.13805 1.99611 5.95509 1.92738 5.76416 1.9149C5.57323 1.90242 5.38288 1.94675 5.21711 2.0423C5.10618 2.10593 5.00897 2.19094 4.93112 2.2924C4.85327 2.39385 4.79632 2.50975 4.76356 2.63337C4.73081 2.75699 4.72291 2.88588 4.74032 3.01258C4.75773 3.13927 4.8001 3.26126 4.86497 3.37146ZM2.1293 13.5488C1.9628 13.6446 1.82846 13.7876 1.74328 13.9598C1.65809 14.132 1.62589 14.3255 1.65074 14.516C1.67559 14.7065 1.75638 14.8853 1.88289 15.0298C2.0094 15.1744 2.17594 15.2781 2.36144 15.328C2.54695 15.3779 2.74307 15.3716 2.925 15.31C3.10693 15.2483 3.2665 15.1341 3.3835 14.9818C3.50051 14.8295 3.5697 14.6458 3.58232 14.4542C3.59494 14.2625 3.55042 14.0714 3.45439 13.905C3.32544 13.6825 3.11351 13.5203 2.86509 13.4539C2.61667 13.3875 2.35205 13.4224 2.1293 13.5508V13.5488ZM17.202 15.3807C17.437 15.3818 17.6644 15.2974 17.8418 15.1432C18.0192 14.989 18.1345 14.7756 18.1663 14.5428C18.198 14.3099 18.1441 14.0734 18.0144 13.8774C17.8847 13.6813 17.6883 13.5391 17.4615 13.4772C17.2348 13.4153 16.9933 13.4379 16.782 13.5408C16.5707 13.6437 16.404 13.8199 16.313 14.0366C16.222 14.2533 16.2128 14.4957 16.2872 14.7186C16.3617 14.9416 16.5146 15.1299 16.7175 15.2484C16.864 15.336 17.0313 15.3824 17.202 15.3828V15.3807ZM3.10429 5.12807C2.93837 5.03237 2.74781 4.98799 2.55668 5.00054C2.36555 5.0131 2.18243 5.08202 2.03045 5.19861C1.87848 5.3152 1.76447 5.47421 1.70283 5.65557C1.6412 5.83692 1.6347 6.03248 1.68416 6.21752C1.73362 6.40257 1.83682 6.56881 1.98071 6.69523C2.12461 6.82165 2.30275 6.90258 2.49263 6.92779C2.6825 6.95301 2.87559 6.92138 3.0475 6.8369C3.21941 6.75242 3.36242 6.61889 3.45846 6.45316C3.52235 6.34293 3.56386 6.22119 3.58063 6.0949C3.59741 5.9686 3.58911 5.84024 3.55621 5.71716C3.52331 5.59408 3.46646 5.47869 3.38892 5.37761C3.31137 5.27653 3.21465 5.19173 3.10429 5.12807ZM13.2816 17.9739C13.3665 18.1218 13.489 18.2447 13.6366 18.3301C13.7842 18.4155 13.9517 18.4605 14.1223 18.4604C14.2894 18.4578 14.4529 18.4115 14.5965 18.3261C14.7626 18.2304 14.8966 18.0877 14.9816 17.916C15.0665 17.7442 15.0987 17.5511 15.0739 17.3611C15.0491 17.1711 14.9685 16.9927 14.8423 16.8484C14.7162 16.7042 14.5501 16.6006 14.365 16.5508C14.18 16.501 13.9843 16.5072 13.8028 16.5686C13.6213 16.6299 13.462 16.7438 13.3452 16.8957C13.2283 17.0476 13.1592 17.2307 13.1464 17.4219C13.1336 17.6131 13.1779 17.8038 13.2735 17.9698L13.2816 17.9739Z" fill="#088B46"/>
</svg>
