<svg width="20" height="17" viewBox="0 0 20 17" fill="none" xmlns="http://www.w3.org/2000/svg">
<path d="M2.2959 0.5H17.1338C17.4619 0.500112 17.747 0.723039 17.8262 1.04004L18.9248 5.43848L18.9258 5.44141C18.9271 5.44639 18.9287 5.45434 18.9287 5.46387C18.9287 6.8855 17.8354 7.99982 16.5449 8C15.7916 8 15.1121 7.62602 14.6699 7.02832L14.2676 6.48535L13.8662 7.02832C13.4241 7.62599 12.7445 7.99995 11.9912 8C11.2378 8 10.5584 7.62603 10.1162 7.02832L9.71387 6.48535L9.3125 7.02832C8.8704 7.62592 8.18976 8 7.4375 8C6.68523 8 6.00461 7.62593 5.5625 7.02832L5.16113 6.48535L4.75879 7.02832C4.31668 7.62593 3.63606 8 2.88379 8C1.59326 7.99992 0.5 6.88556 0.5 5.46387C0.500034 5.45435 0.50165 5.4464 0.50293 5.44141V5.43848L1.60254 1.04004L1.60156 1.03906C1.68231 0.721939 1.9686 0.500141 2.2959 0.5Z" stroke="black"/>
<path d="M14.267 9.59204C14.9499 9.9949 15.7294 10.2141 16.5444 10.2141C16.951 10.2141 17.3425 10.1557 17.7143 10.052V15.7854C17.7143 16.1794 17.3944 16.5 17.0004 16.5002H12.643V11.6428H6.78558V16.5002H2.42815C2.0342 16.5 1.71429 16.1794 1.71429 15.7854V10.052C2.08607 10.1557 2.47754 10.2141 2.88421 10.2141C3.69888 10.2141 4.4779 9.99463 5.16058 9.59204C6.53854 10.3933 8.3363 10.3933 9.71429 9.59204C11.092 10.3931 12.8892 10.3929 14.267 9.59204Z" stroke="black"/>
</svg>
