<svg width="20" height="24" viewBox="0 0 20 24" fill="none" xmlns="http://www.w3.org/2000/svg">
<path d="M8.99997 0C6.60885 0.00857143 4.3179 1.01036 2.63048 2.78565C0.944012 4.56101 -0.00209107 6.96521 3.47036e-06 9.47026C3.47036e-06 13.2266 4.44278 19.5845 7.09159 23.04C7.55589 23.6464 8.25749 24 9 24C9.74251 24 10.4441 23.6464 10.9084 23.04C13.5572 19.5845 18 13.228 18 9.47026C18.002 6.96527 17.056 4.5611 15.3695 2.78565C13.682 1.01028 11.3912 0.00850286 8.99997 0ZM9.63203 21.9664C9.4735 22.1593 9.24339 22.2707 8.99997 22.2707C8.75656 22.2707 8.52645 22.1593 8.36792 21.9664C4.15214 16.4678 1.63634 11.7965 1.63634 9.47026C1.63634 6.71451 3.03952 4.16777 5.31801 2.79003C7.5965 1.4123 10.403 1.41219 12.6816 2.79003C14.9602 4.16788 16.3633 6.71479 16.3633 9.47026C16.3633 11.7963 13.8474 16.4678 9.63171 21.9664H9.63203ZM8.99997 4.28571C7.80645 4.28571 6.66202 4.78286 5.81837 5.6668C4.97472 6.55074 4.50007 7.74967 4.50007 8.99992C4.50007 10.2502 4.97461 11.4492 5.81837 12.333C6.66213 13.2169 7.80656 13.7141 8.99997 13.7141C10.1934 13.7141 11.3379 13.217 12.1816 12.333C13.0252 11.4491 13.4999 10.2502 13.4999 8.99992C13.4989 7.74956 13.0243 6.5517 12.1806 5.66789C11.3368 4.78395 10.1934 4.28678 8.99997 4.28571ZM8.99997 12C7.84224 12 6.79804 11.2693 6.35431 10.1486C5.91147 9.0268 6.1559 7.73678 6.97511 6.87854C7.79431 6.0203 9.02566 5.76425 10.0965 6.22818C11.1663 6.69317 11.8638 7.78711 11.8638 8.99984C11.8638 9.79589 11.5621 10.5588 11.0251 11.1213C10.4882 11.6838 9.75987 12 8.99997 12Z" fill="black"/>
<path d="M18.9211 2L1.00007 21.5214" stroke="#FF0000" stroke-width="2" stroke-linecap="round"/>
</svg>
