<svg width="209" height="232" viewBox="0 0 209 232" fill="none" xmlns="http://www.w3.org/2000/svg">
<path d="M170.946 27.0537C170.946 27.0537 181.608 28.0937 174.583 22.3704C174.583 22.3704 130.896 -11.9494 80.9766 4.42885C80.9766 4.42885 51.5951 12.4871 32.8753 43.432C32.8753 43.432 30.017 51.7519 23.5153 57.4752C23.5153 57.4752 -14.4478 102.718 6.0971 160.186C6.0971 160.186 20.3953 211.408 79.165 228.054C79.165 228.054 123.891 241.574 165.491 211.676C165.491 211.676 229.977 167.211 201.891 92.3251C201.891 92.3251 220.094 149.531 181.353 192.171C181.353 192.171 133.768 248.338 62.0018 213.233C62.0018 213.233 4.79543 185.072 11.5587 115.554C11.5587 115.554 12.8604 101.94 25.0787 77.5035C25.0787 77.5035 34.962 59.8236 60.1835 49.4237C60.1835 49.4237 89.0483 34.3404 117.645 28.8855C117.645 28.8855 74.4817 41.1037 34.4386 72.8269C34.4386 72.8269 26.1187 77.7652 39.6386 79.0668C39.6386 79.0668 89.565 90.2451 123.885 59.8236C123.885 59.8169 152.226 32.2537 170.946 27.0537Z" fill="#088B46"/>
<path d="M77.454 123.243C77.293 124.384 76.9508 125.887 76.4275 127.759C75.8974 129.631 75.2197 131.59 74.3944 133.643C74.9379 133.643 75.5217 133.663 76.1389 133.697C76.7562 133.73 77.3936 133.804 78.0311 133.905C78.6685 134.005 79.2858 134.146 79.8762 134.321C80.4667 134.495 80.9699 134.723 81.3859 135.005C81.6744 135.179 81.7683 135.367 81.6744 135.555C81.5805 135.743 81.4328 135.837 81.245 135.837C81.0504 135.837 80.9095 135.75 80.8156 135.569C80.7485 135.468 80.5673 135.34 80.2654 135.186C79.9634 135.032 79.5541 134.884 79.0442 134.73C78.5343 134.576 77.9573 134.448 77.3198 134.347C76.6824 134.247 75.998 134.193 75.26 134.193H74.9715L74.4414 134.233H74.1529C73.4819 135.803 72.7372 137.333 71.9253 138.823C71.1134 140.312 70.2143 141.634 69.2414 142.788C68.2685 143.942 67.2218 144.868 66.108 145.579C64.9875 146.284 63.8268 146.64 62.6123 146.64C61.5589 146.64 60.6464 146.405 59.8815 145.935C59.1166 145.465 58.714 144.727 58.6872 143.714C58.6536 142.553 58.9421 141.433 59.546 140.359C60.1499 139.286 61.0154 138.313 62.1292 137.441C63.243 136.568 64.585 135.817 66.1483 135.186C67.7116 134.555 69.436 134.113 71.3214 133.858C71.771 132.818 72.1668 131.825 72.5157 130.858C72.8646 129.899 73.1867 129 73.4752 128.168C73.7637 127.336 74.0053 126.598 74.1931 125.967C74.3877 125.336 74.5286 124.853 74.6226 124.525C74.5555 124.625 74.1931 124.961 73.5222 125.531C72.8512 126.101 71.9991 126.779 70.9591 127.564C69.9191 128.349 68.7651 129.181 67.4902 130.067C66.2154 130.952 64.9137 131.771 63.5852 132.516C62.2634 133.261 60.9752 133.885 59.7272 134.374C58.4792 134.871 57.3788 135.112 56.426 135.112C55.433 135.112 54.6077 134.978 53.9368 134.717C53.2658 134.448 52.729 134.099 52.3332 133.656C51.9306 133.214 51.6488 132.71 51.4743 132.14C51.2999 131.57 51.2126 130.986 51.2126 130.375C51.2126 128.96 51.5079 127.484 52.0983 125.954C52.6888 124.424 53.5141 122.928 54.5675 121.458C55.6209 119.989 56.8554 118.607 58.2779 117.305C59.7003 116.003 61.2234 114.856 62.8539 113.87C64.4843 112.883 66.1953 112.098 68.0002 111.515C69.805 110.931 71.5965 110.642 73.388 110.642C74.6964 110.642 75.7095 110.857 76.4275 111.286C77.1454 111.716 77.6822 112.219 78.0311 112.783C78.38 113.353 78.5947 113.897 78.6752 114.413C78.7557 114.93 78.796 115.292 78.796 115.493C78.796 115.775 78.7221 116.218 78.5812 116.842C78.4403 117.459 78.2391 118.083 77.9841 118.701C77.7291 119.318 77.4138 119.868 77.0515 120.351C76.6824 120.834 76.2597 121.069 75.7833 121.069C75.4009 121.069 75.1258 120.921 74.9715 120.633C74.8104 120.344 74.9715 120.069 75.4478 119.814C75.9578 119.539 76.4543 118.989 76.9307 118.164C77.4071 117.345 77.6822 116.439 77.7425 115.453C77.7761 114.997 77.7023 114.547 77.5278 114.105C77.3534 113.662 77.1051 113.266 76.7831 112.91C76.461 112.555 76.0651 112.266 75.5888 112.038C75.1124 111.81 74.5823 111.696 74.0053 111.696C72.6634 111.696 71.2208 111.964 69.6709 112.494C68.1209 113.024 66.5911 113.749 65.0748 114.655C63.5584 115.567 62.0957 116.641 60.6934 117.882C59.291 119.123 58.0498 120.445 56.9829 121.847C55.9161 123.25 55.0573 124.712 54.4199 126.229C53.7824 127.745 53.4604 129.255 53.4604 130.744C53.4604 131.704 53.7019 132.536 54.1783 133.227C54.6547 133.918 55.1982 134.274 55.8087 134.274C56.7347 134.274 57.8149 134.032 59.0428 133.556C60.2707 133.073 61.5455 132.462 62.874 131.717C64.1958 130.973 65.5243 130.134 66.8461 129.215C68.1679 128.289 69.3756 127.376 70.4626 126.464C71.5495 125.551 72.4688 124.706 73.2135 123.921C73.965 123.136 74.4347 122.518 74.6293 122.062C74.6897 121.961 74.8239 121.908 75.0117 121.908C75.8102 121.881 76.4342 122.008 76.877 122.29C77.3265 122.572 77.5211 122.887 77.454 123.243ZM71.0396 134.549C69.1878 134.878 67.5707 135.381 66.1818 136.065C64.793 136.75 63.6255 137.514 62.6861 138.36C61.7468 139.205 61.0423 140.098 60.5793 141.037C60.1163 141.97 59.8882 142.842 59.8882 143.654C59.8882 144.311 60.0962 144.835 60.5122 145.231C60.9282 145.62 61.4717 145.821 62.1426 145.821C62.9411 145.821 63.7395 145.499 64.538 144.855C65.3364 144.211 66.1215 143.359 66.8864 142.292C67.6513 141.232 68.3893 140.024 69.0871 138.668C69.7782 137.313 70.429 135.938 71.0396 134.549Z" fill="#088B46"/>
<path d="M80.1379 132.992C79.467 132.992 78.9436 132.831 78.5544 132.496C78.172 132.167 78.011 131.724 78.0781 131.167C78.1116 130.785 78.2324 130.396 78.4404 129.993C78.6484 129.59 78.9033 129.221 79.2053 128.893C79.5072 128.564 79.8494 128.289 80.2318 128.074C80.6143 127.859 80.9968 127.752 81.3792 127.752C81.7013 127.752 81.9562 127.826 82.1441 127.98C82.238 127.779 82.5265 127.678 83.0029 127.678C83.58 127.678 84.0094 127.846 84.2979 128.188C84.5864 128.53 84.6803 128.98 84.5864 129.537C84.5864 129.637 84.573 129.725 84.5394 129.805C84.5059 129.879 84.4723 129.973 84.4455 130.073C84.828 130.328 85.3245 130.456 85.9283 130.456C86.6932 130.456 87.3575 130.369 87.9144 130.188C88.4713 130.013 88.9611 129.805 89.3771 129.564C89.7931 129.322 90.1286 129.074 90.3835 128.825C90.6385 128.57 90.8465 128.369 91.0075 128.222C91.135 128.094 91.2625 128.094 91.39 128.222C91.5175 128.349 91.5309 128.477 91.4369 128.604C91.3698 128.678 91.2222 128.852 90.9807 129.114C90.7391 129.382 90.3902 129.651 89.9273 129.933C89.4643 130.214 88.9074 130.463 88.2499 130.691C87.5923 130.919 86.8073 131.033 85.8814 131.033C85.2775 131.033 84.687 130.932 84.11 130.731C83.7611 131.335 83.2311 131.872 82.5265 132.328C81.8287 132.764 81.0303 132.992 80.1379 132.992ZM83.1036 130.114C82.7547 129.839 82.4863 129.543 82.3118 129.241C82.1374 128.94 82.03 128.685 82.0032 128.483C81.4933 128.765 81.0504 129.121 80.6881 129.564C80.3191 130.006 80.0507 130.436 79.8762 130.852C79.7018 131.268 79.6548 131.63 79.7353 131.932C79.8159 132.234 80.0171 132.388 80.3325 132.388C80.5875 132.388 81.0102 132.241 81.6006 131.952C82.1911 131.664 82.6876 131.046 83.1036 130.114ZM83.3921 128.899C83.4256 128.671 83.4055 128.557 83.3451 128.557C83.3116 128.557 83.3317 128.671 83.3921 128.899Z" fill="#088B46"/>
<path d="M117.249 123.243C117.088 124.384 116.746 125.887 116.222 127.759C115.699 129.631 115.015 131.59 114.189 133.643C114.733 133.643 115.317 133.663 115.934 133.697C116.558 133.737 117.189 133.804 117.826 133.905C118.463 134.005 119.081 134.146 119.671 134.321C120.262 134.495 120.765 134.723 121.181 135.005C121.469 135.179 121.563 135.367 121.469 135.555C121.375 135.743 121.228 135.837 121.04 135.837C120.852 135.837 120.704 135.75 120.61 135.569C120.543 135.468 120.362 135.34 120.06 135.186C119.758 135.032 119.349 134.884 118.839 134.73C118.329 134.576 117.752 134.448 117.115 134.347C116.477 134.247 115.793 134.193 115.055 134.193H114.766L114.236 134.233H113.948C113.277 135.803 112.532 137.333 111.72 138.823C110.908 140.312 110.009 141.634 109.036 142.788C108.063 143.942 107.017 144.868 105.903 145.579C104.782 146.284 103.622 146.64 102.407 146.64C101.354 146.64 100.441 146.405 99.6764 145.935C98.9115 145.465 98.5089 144.727 98.4821 143.714C98.4485 142.553 98.7371 141.433 99.3409 140.359C99.9448 139.286 100.81 138.313 101.924 137.441C103.038 136.568 104.38 135.817 105.943 135.186C107.507 134.555 109.231 134.113 111.116 133.858C111.566 132.818 111.962 131.825 112.311 130.858C112.66 129.899 112.982 129 113.27 128.168C113.559 127.336 113.8 126.598 113.988 125.967C114.183 125.336 114.324 124.853 114.417 124.525C114.35 124.625 113.988 124.961 113.317 125.531C112.646 126.101 111.794 126.779 110.754 127.564C109.714 128.349 108.56 129.181 107.285 130.067C106.01 130.952 104.709 131.771 103.38 132.516C102.058 133.261 100.77 133.885 99.5221 134.374C98.2741 134.871 97.1737 135.112 96.221 135.112C95.2279 135.112 94.4026 134.978 93.7317 134.717C93.0607 134.448 92.5239 134.099 92.1281 133.656C91.7255 133.214 91.4437 132.71 91.2692 132.14C91.0948 131.57 91.0076 130.986 91.0076 130.375C91.0076 128.96 91.3028 127.484 91.8932 125.954C92.4837 124.424 93.309 122.928 94.3624 121.458C95.4158 119.989 96.6504 118.607 98.0728 117.305C99.4953 116.003 101.018 114.856 102.649 113.87C104.279 112.883 105.99 112.098 107.795 111.515C109.6 110.931 111.391 110.642 113.183 110.642C114.491 110.642 115.504 110.857 116.222 111.286C116.94 111.716 117.477 112.219 117.826 112.783C118.175 113.353 118.39 113.897 118.47 114.413C118.551 114.93 118.591 115.292 118.591 115.493C118.591 115.775 118.517 116.218 118.376 116.842C118.235 117.459 118.034 118.083 117.779 118.701C117.524 119.318 117.209 119.868 116.846 120.351C116.477 120.834 116.055 121.069 115.578 121.069C115.196 121.069 114.921 120.921 114.766 120.633C114.605 120.344 114.766 120.069 115.243 119.814C115.753 119.539 116.249 118.989 116.726 118.164C117.202 117.345 117.477 116.439 117.537 115.453C117.571 114.997 117.497 114.547 117.323 114.105C117.148 113.662 116.9 113.266 116.578 112.91C116.256 112.555 115.86 112.266 115.384 112.038C114.907 111.81 114.377 111.696 113.8 111.696C112.458 111.696 111.016 111.964 109.466 112.494C107.916 113.024 106.386 113.749 104.87 114.655C103.353 115.567 101.891 116.641 100.488 117.882C99.086 119.123 97.8447 120.445 96.7779 121.847C95.711 123.25 94.8522 124.712 94.2148 126.229C93.5774 127.745 93.2553 129.255 93.2553 130.744C93.2553 131.704 93.4968 132.536 93.9732 133.227C94.4496 133.918 94.9931 134.274 95.6037 134.274C96.5296 134.274 97.6098 134.032 98.8377 133.556C100.066 133.073 101.34 132.462 102.669 131.717C103.991 130.973 105.319 130.134 106.641 129.215C107.963 128.289 109.171 127.376 110.258 126.464C111.344 125.551 112.264 124.706 113.008 123.921C113.76 123.136 114.23 122.518 114.424 122.062C114.485 121.961 114.619 121.908 114.807 121.908C115.605 121.881 116.229 122.008 116.672 122.29C117.121 122.572 117.309 122.887 117.249 123.243ZM110.828 134.549C108.976 134.878 107.359 135.381 105.97 136.065C104.581 136.75 103.414 137.514 102.474 138.36C101.535 139.205 100.83 140.098 100.368 141.037C99.9045 141.97 99.6764 142.842 99.6764 143.654C99.6764 144.311 99.8844 144.835 100.3 145.231C100.716 145.62 101.26 145.821 101.931 145.821C102.729 145.821 103.528 145.499 104.326 144.855C105.125 144.211 105.91 143.359 106.675 142.292C107.439 141.232 108.178 140.024 108.875 138.668C109.566 137.313 110.224 135.938 110.828 134.549Z" fill="#088B46"/>
<path d="M129.554 128.933C129.487 128.987 129.313 129.141 129.024 129.409C128.736 129.678 128.387 129.98 127.971 130.322C127.555 130.664 127.085 131.033 126.555 131.422C126.032 131.811 125.502 132.18 124.972 132.522C124.441 132.865 123.932 133.14 123.442 133.354C122.945 133.569 122.509 133.677 122.127 133.677C121.617 133.677 121.201 133.589 120.879 133.408C120.557 133.234 120.402 132.938 120.402 132.536C120.402 132.207 120.483 131.872 120.644 131.529C120.805 131.187 120.979 130.858 121.174 130.543C121.368 130.228 121.55 129.939 121.724 129.691C121.899 129.436 122.006 129.248 122.033 129.121C122.033 129.067 121.872 129.054 121.556 129.067C121.234 129.08 120.838 129.087 120.362 129.087C119.436 129.087 118.973 128.718 118.973 127.987C118.973 127.658 119.101 127.302 119.356 126.927C119.611 126.544 119.959 126.356 120.409 126.356C120.664 126.356 120.919 126.41 121.174 126.511C121.429 126.611 121.556 126.766 121.556 126.967C121.556 127.249 121.442 127.504 121.221 127.745C120.999 127.987 120.791 128.208 120.597 128.409L122.274 128.369C122.724 128.342 123.106 128.43 123.422 128.638C123.744 128.839 123.818 129.107 123.663 129.436C123.596 129.61 123.502 129.818 123.375 130.04C123.247 130.268 123.12 130.489 122.992 130.704C122.865 130.919 122.744 131.113 122.63 131.295C122.516 131.469 122.429 131.597 122.368 131.677C122.113 132.106 121.992 132.442 122.006 132.684C122.019 132.925 122.16 133.046 122.415 133.046C122.798 133.046 123.308 132.858 123.945 132.476C124.582 132.093 125.24 131.657 125.911 131.147C126.582 130.644 127.206 130.141 127.776 129.651C128.353 129.154 128.762 128.799 129.024 128.571C129.085 128.497 129.225 128.51 129.433 128.611C129.641 128.691 129.682 128.805 129.554 128.933Z" fill="#088B46"/>
<path d="M129.789 130.717C129.756 130.872 129.742 131.046 129.742 131.248C129.742 131.449 129.776 131.637 129.836 131.818C129.897 131.992 130.017 132.147 130.199 132.274C130.373 132.402 130.621 132.462 130.943 132.462C131.42 132.462 131.97 132.348 132.594 132.12C133.218 131.892 133.842 131.603 134.459 131.248C135.083 130.892 135.674 130.496 136.231 130.053C136.787 129.61 137.257 129.174 137.646 128.745C137.774 128.617 137.915 128.597 138.076 128.691C138.237 128.778 138.27 128.886 138.17 129.013C138.136 129.087 137.888 129.342 137.425 129.771C136.962 130.201 136.385 130.65 135.7 131.12C135.016 131.59 134.244 132.019 133.399 132.408C132.554 132.797 131.715 132.999 130.883 132.999C129.991 132.999 129.279 132.818 128.749 132.449C128.219 132.08 127.958 131.596 127.958 130.986C127.958 130.53 128.078 130.08 128.32 129.637C128.561 129.194 128.87 128.812 129.252 128.483C129.635 128.154 130.071 127.886 130.568 127.685C131.064 127.483 131.581 127.383 132.124 127.383C132.601 127.383 133.01 127.477 133.345 127.665C133.681 127.852 133.849 128.175 133.849 128.631C133.849 128.859 133.768 129.1 133.607 129.349C133.446 129.604 133.225 129.839 132.936 130.053C132.648 130.268 132.299 130.449 131.883 130.603C131.467 130.758 130.99 130.832 130.447 130.832C130.319 130.832 130.199 130.818 130.084 130.791C129.991 130.771 129.89 130.744 129.789 130.717ZM129.937 130.342C129.997 130.369 130.111 130.382 130.272 130.382C130.561 130.382 130.856 130.328 131.158 130.214C131.46 130.1 131.748 129.946 132.017 129.738C132.285 129.537 132.5 129.302 132.661 129.033C132.822 128.765 132.903 128.497 132.903 128.215C132.903 128.087 132.822 128.027 132.661 128.027C132.567 128.027 132.406 128.054 132.185 128.101C131.963 128.154 131.722 128.255 131.467 128.403C131.212 128.557 130.95 128.785 130.675 129.087C130.407 129.389 130.158 129.805 129.937 130.342Z" fill="#088B46"/>
<path d="M138.599 130.717C138.566 130.872 138.552 131.046 138.552 131.248C138.552 131.449 138.586 131.637 138.646 131.818C138.706 131.992 138.827 132.147 139.008 132.274C139.183 132.402 139.431 132.462 139.753 132.462C140.23 132.462 140.78 132.348 141.404 132.12C142.028 131.892 142.652 131.603 143.269 131.248C143.893 130.892 144.483 130.496 145.04 130.053C145.597 129.61 146.067 129.174 146.456 128.745C146.584 128.617 146.724 128.597 146.885 128.691C147.046 128.778 147.08 128.886 146.979 129.013C146.946 129.087 146.698 129.342 146.235 129.771C145.772 130.201 145.195 130.65 144.51 131.12C143.826 131.59 143.054 132.019 142.209 132.408C141.363 132.797 140.525 132.999 139.693 132.999C138.8 132.999 138.089 132.818 137.559 132.449C137.029 132.08 136.767 131.596 136.767 130.986C136.767 130.53 136.888 130.08 137.13 129.637C137.371 129.194 137.68 128.812 138.062 128.483C138.445 128.154 138.881 127.886 139.377 127.685C139.874 127.483 140.391 127.383 140.934 127.383C141.41 127.383 141.82 127.477 142.155 127.665C142.491 127.852 142.658 128.175 142.658 128.631C142.658 128.859 142.578 129.1 142.417 129.349C142.256 129.604 142.034 129.839 141.746 130.053C141.457 130.268 141.108 130.449 140.692 130.603C140.276 130.758 139.8 130.832 139.257 130.832C139.129 130.832 139.008 130.818 138.894 130.791C138.8 130.771 138.7 130.744 138.599 130.717ZM138.747 130.342C138.807 130.369 138.921 130.382 139.082 130.382C139.371 130.382 139.666 130.328 139.968 130.214C140.27 130.1 140.558 129.946 140.827 129.738C141.095 129.537 141.31 129.302 141.471 129.033C141.632 128.765 141.712 128.497 141.712 128.215C141.712 128.087 141.632 128.027 141.471 128.027C141.377 128.027 141.216 128.054 140.994 128.101C140.773 128.154 140.531 128.255 140.276 128.403C140.022 128.557 139.76 128.785 139.485 129.087C139.216 129.389 138.968 129.805 138.747 130.342Z" fill="#088B46"/>
<path d="M149.375 128.101C149.18 128.302 148.959 128.597 148.704 128.993C148.449 129.382 148.214 129.792 148.012 130.208C147.804 130.624 147.63 131.013 147.482 131.362C147.342 131.717 147.268 131.966 147.268 132.12C147.65 131.865 148.194 131.456 148.898 130.885C149.603 130.315 150.347 129.738 151.146 129.141C151.944 128.544 152.716 128.02 153.467 127.564C154.219 127.108 154.829 126.88 155.313 126.88C155.406 126.88 155.534 126.886 155.695 126.9C155.856 126.913 156.024 126.953 156.198 127.014C156.373 127.074 156.507 127.168 156.608 127.282C156.708 127.396 156.722 127.557 156.654 127.759C156.621 127.933 156.487 128.228 156.245 128.631C156.004 129.033 155.742 129.463 155.453 129.919C155.165 130.375 154.91 130.818 154.689 131.248C154.467 131.677 154.32 131.992 154.259 132.194C154.192 132.368 154.159 132.583 154.138 132.838C154.125 133.093 154.226 133.22 154.447 133.22C154.796 133.22 155.306 132.992 155.977 132.536C156.648 132.08 157.319 131.57 157.99 130.999C158.661 130.429 159.258 129.906 159.788 129.423C160.318 128.939 160.593 128.664 160.627 128.591C160.721 128.463 160.868 128.463 161.056 128.591C161.251 128.718 161.298 128.819 161.197 128.893C160.942 129.194 160.526 129.617 159.949 130.161C159.372 130.704 158.755 131.248 158.084 131.791C157.413 132.335 156.748 132.811 156.098 133.214C155.44 133.616 154.89 133.817 154.447 133.817C153.843 133.817 153.353 133.69 152.984 133.435C152.615 133.18 152.448 132.865 152.481 132.489C152.515 131.986 152.662 131.449 152.937 130.892C153.206 130.335 153.488 129.818 153.776 129.335C154.065 128.852 154.326 128.456 154.568 128.141C154.809 127.826 154.93 127.645 154.93 127.591C154.548 127.618 154.051 127.819 153.447 128.195C152.843 128.577 152.186 129.027 151.481 129.563C150.777 130.094 150.086 130.63 149.401 131.174C148.717 131.717 148.1 132.18 147.556 132.556C147.301 132.71 147.06 132.784 146.838 132.784C146.489 132.784 146.161 132.663 145.859 132.422C145.557 132.18 145.423 131.912 145.449 131.603C145.483 131.301 145.617 130.905 145.859 130.429C146.1 129.946 146.369 129.483 146.671 129.027C146.972 128.57 147.274 128.181 147.583 127.853C147.885 127.524 148.12 127.356 148.274 127.356C148.724 127.356 149.039 127.443 149.234 127.624C149.422 127.819 149.468 127.973 149.375 128.101Z" fill="#088B46"/>
<path d="M36.4986 153.738C36.4986 153.886 36.5053 154.007 36.5187 154.107C36.5321 154.208 36.5589 154.262 36.6059 154.262C36.6529 154.282 36.673 154.315 36.673 154.356C36.673 154.403 36.6126 154.423 36.4986 154.423C36.4516 154.423 36.3509 154.376 36.1832 154.282C36.0222 154.188 35.9417 153.987 35.9417 153.678C35.9417 153.51 36.0087 153.262 36.1497 152.933C36.2906 152.605 36.5522 152.269 36.9347 151.927C37.3171 151.585 37.8405 151.289 38.5182 151.034C39.1891 150.779 40.0614 150.652 41.1215 150.652C41.8864 150.652 42.6647 150.672 43.4497 150.719C44.2348 150.766 45.0332 150.826 45.8451 150.9L46.194 150.209C46.308 150.102 46.4691 150.041 46.6838 150.041C46.9387 150.041 47.1669 150.095 47.3816 150.209C47.5896 150.317 47.6567 150.431 47.5896 150.538C47.5695 150.578 47.5426 150.618 47.5225 150.679C47.5024 150.719 47.4755 150.766 47.4554 150.833C47.4353 150.9 47.395 150.974 47.348 151.068C48.8309 151.216 50.2801 151.357 51.6892 151.497C53.1049 151.638 54.4468 151.665 55.7217 151.591C56.3255 151.558 56.9227 151.497 57.5266 151.424C58.1304 151.35 58.6672 151.242 59.1436 151.108C59.62 150.967 60.0091 150.8 60.3043 150.585C60.6063 150.377 60.7539 150.122 60.7539 149.827C60.7539 149.733 60.7338 149.672 60.6868 149.646C60.6398 149.619 60.5929 149.585 60.5459 149.552C60.4989 149.518 60.4788 149.471 60.4922 149.411C60.5056 149.357 60.5526 149.344 60.6465 149.384C60.7136 149.404 60.8344 149.464 60.9954 149.565C61.1565 149.666 61.237 149.833 61.237 150.075C61.237 150.182 61.1699 150.363 61.0491 150.612C60.9216 150.86 60.6532 151.108 60.2507 151.357C59.8481 151.605 59.2711 151.826 58.533 152.034C57.7882 152.235 56.8086 152.356 55.5808 152.39C54.373 152.43 53.0177 152.39 51.5013 152.282C49.9849 152.175 48.4753 152.054 46.9656 151.927C46.6637 152.571 46.2678 153.43 45.7646 154.503C45.268 155.577 44.7246 156.724 44.1475 157.945C43.5705 159.167 42.9868 160.401 42.3896 161.649C41.7992 162.897 41.2691 164.038 40.7927 165.064C40.3163 166.091 39.9205 166.936 39.5917 167.601C39.2696 168.258 39.0952 168.62 39.0683 168.674C39.0012 168.822 38.8 168.896 38.4779 168.896C38.29 168.896 38.1156 168.862 37.9545 168.802C37.7935 168.734 37.7197 168.647 37.7465 168.54C37.8136 168.285 38.0082 167.775 38.3169 167.024C38.6255 166.272 39.0214 165.38 39.4978 164.353C39.9741 163.327 40.4908 162.213 41.041 161.025C41.5979 159.831 42.1481 158.657 42.6915 157.503C43.235 156.348 43.7517 155.268 44.2348 154.268C44.7179 153.269 45.1137 152.45 45.4157 151.806C43.9328 151.679 42.611 151.598 41.457 151.558C41.0141 151.558 40.5042 151.591 39.9272 151.652C39.3501 151.719 38.8067 151.833 38.2967 152.007C37.7868 152.182 37.3574 152.41 37.0085 152.698C36.673 152.96 36.4986 153.316 36.4986 153.738Z" fill="#088B46"/>
<path d="M45.8787 165.353C45.8586 165.46 45.8451 165.594 45.8451 165.735C45.8451 165.883 45.8653 166.017 45.9122 166.151C45.9592 166.279 46.0464 166.393 46.1739 166.48C46.3014 166.574 46.4826 166.621 46.7107 166.621C47.0596 166.621 47.4555 166.54 47.9117 166.373C48.368 166.205 48.8175 165.997 49.2671 165.742C49.7166 165.487 50.146 165.199 50.5553 164.876C50.9579 164.554 51.3001 164.239 51.5819 163.924C51.6758 163.83 51.7765 163.816 51.8972 163.883C52.0113 163.951 52.0381 164.024 51.9643 164.118C51.9442 164.172 51.763 164.36 51.4276 164.668C51.0921 164.984 50.6761 165.306 50.1796 165.648C49.6831 165.99 49.1262 166.299 48.5089 166.587C47.8916 166.869 47.2877 167.017 46.6838 167.017C46.033 167.017 45.5231 166.883 45.1406 166.621C44.7582 166.353 44.5703 166.004 44.5703 165.561C44.5703 165.232 44.6575 164.903 44.832 164.581C45.0064 164.259 45.2346 163.977 45.5097 163.743C45.7848 163.501 46.1068 163.313 46.4624 163.166C46.818 163.018 47.2005 162.944 47.5896 162.944C47.9385 162.944 48.2338 163.011 48.4753 163.152C48.7169 163.293 48.8376 163.521 48.8376 163.857C48.8376 164.024 48.7773 164.199 48.6632 164.38C48.5491 164.561 48.3881 164.736 48.1734 164.89C47.9654 165.044 47.7104 165.178 47.4085 165.286C47.1066 165.393 46.7577 165.453 46.3685 165.453C46.2746 165.453 46.1873 165.447 46.1068 165.427C46.0263 165.393 45.9525 165.373 45.8787 165.353ZM45.986 165.078C46.033 165.098 46.1135 165.105 46.2276 165.105C46.4356 165.105 46.6503 165.064 46.8717 164.984C47.0931 164.903 47.3011 164.789 47.4957 164.642C47.6903 164.494 47.8513 164.326 47.9654 164.132C48.0795 163.937 48.1398 163.743 48.1398 163.541C48.1398 163.447 48.0795 163.4 47.9654 163.4C47.8983 163.4 47.7775 163.42 47.6165 163.454C47.4555 163.494 47.281 163.561 47.0931 163.675C46.9053 163.783 46.7174 163.951 46.5228 164.172C46.3282 164.393 46.1471 164.695 45.986 165.078Z" fill="#088B46"/>
<path d="M55.2587 164.145C55.1916 164.326 55.0641 164.42 54.8763 164.42C54.6683 164.42 54.5609 164.346 54.5609 164.199C54.5609 164.105 54.5878 164.044 54.6481 164.004C54.7085 163.971 54.7555 163.883 54.8025 163.756C54.8696 163.481 54.7354 163.34 54.3865 163.34C53.9705 163.34 53.5947 163.508 53.2593 163.85C52.9238 164.192 52.6889 164.568 52.548 164.977C52.4071 165.393 52.4004 165.769 52.5145 166.118C52.6285 166.467 52.9439 166.641 53.4538 166.641C53.8027 166.641 54.1852 166.554 54.6012 166.379C55.0172 166.205 55.4332 165.984 55.8492 165.702C56.2652 165.427 56.6745 165.118 57.0636 164.782C57.4595 164.44 57.795 164.118 58.0701 163.803C58.1372 163.709 58.2311 163.696 58.3452 163.763C58.4592 163.83 58.4928 163.904 58.4525 163.997C58.4324 164.051 58.2646 164.246 57.9493 164.575C57.6339 164.903 57.2381 165.266 56.7483 165.648C56.2585 166.03 55.7016 166.379 55.0641 166.695C54.4267 167.003 53.7491 167.164 53.0311 167.164C52.4742 167.164 52.0448 167.057 51.7429 166.849C51.4409 166.641 51.2464 166.379 51.1524 166.064C51.0585 165.755 51.0652 165.406 51.1726 165.031C51.2799 164.655 51.4477 164.313 51.6959 163.997C51.9375 163.689 52.2461 163.427 52.6151 163.212C52.9842 163.004 53.3934 162.897 53.8296 162.897C54.4066 162.897 54.8159 163.018 55.044 163.266C55.2856 163.521 55.3527 163.81 55.2587 164.145Z" fill="#088B46"/>
<path d="M58.2513 167.003C57.8823 167.003 57.6407 166.929 57.5199 166.782C57.4059 166.634 57.3723 166.473 57.4126 166.285C57.7816 164.964 58.2781 163.635 58.8887 162.293C59.4993 160.951 60.2038 159.656 60.9888 158.395C61.7738 157.14 62.6125 155.959 63.5049 154.859C64.3973 153.758 65.3031 152.799 66.2357 151.98C67.1617 151.162 68.0809 150.524 69.0001 150.055C69.9126 149.585 70.7782 149.35 71.59 149.35C72.308 149.35 72.8649 149.518 73.2607 149.86C73.6566 150.202 73.8512 150.618 73.8512 151.115C73.8512 151.866 73.6432 152.645 73.2272 153.443C72.8112 154.242 72.2476 155.033 71.5431 155.812C70.8386 156.59 70.0267 157.341 69.1142 158.066C68.2017 158.791 67.2422 159.468 66.2492 160.106C65.2561 160.736 64.2497 161.307 63.2433 161.81C62.2368 162.313 61.2908 162.729 60.4118 163.065C60.1568 163.561 59.9354 164.051 59.7542 164.541C59.5664 165.031 59.3852 165.507 59.1973 165.983C59.5664 165.688 59.9958 165.346 60.4856 164.95C60.9687 164.554 61.4652 164.185 61.9617 163.836C62.4582 163.487 62.9346 163.192 63.3842 162.957C63.8337 162.716 64.2094 162.602 64.5114 162.602C64.5785 162.602 64.6724 162.608 64.7865 162.615C64.9005 162.622 65.0146 162.655 65.1354 162.696C65.2494 162.743 65.3568 162.803 65.4507 162.89C65.5447 162.971 65.5916 163.085 65.5916 163.232C65.5916 163.487 65.4776 163.843 65.2427 164.293C65.0079 164.742 64.7663 165.185 64.5114 165.614C64.2564 166.044 64.0551 166.42 63.9008 166.728C63.7532 167.037 63.7465 167.198 63.8807 167.198C64.1356 167.198 64.5047 167.03 64.9945 166.701C65.4843 166.373 65.9674 165.997 66.4505 165.588C66.9403 165.172 67.3697 164.796 67.7521 164.447C68.1346 164.098 68.3359 163.897 68.3627 163.843C68.4298 163.749 68.5372 163.749 68.6781 163.843C68.819 163.937 68.8525 164.011 68.7854 164.064C68.5975 164.286 68.2956 164.595 67.8796 164.984C67.4636 165.38 67.0141 165.775 66.5243 166.165C66.0412 166.56 65.5581 166.903 65.0817 167.198C64.6053 167.493 64.2094 167.641 63.8807 167.641C62.9547 167.641 62.4918 167.386 62.4918 166.869C62.4918 166.648 62.5857 166.366 62.7669 166.017C62.9547 165.668 63.1493 165.312 63.3573 164.943C63.5653 164.574 63.7599 164.225 63.9478 163.897C64.1356 163.568 64.2229 163.306 64.2229 163.125C63.9478 163.145 63.5787 163.293 63.1292 163.581C62.6796 163.863 62.1966 164.205 61.6866 164.601C61.1767 164.997 60.6735 165.406 60.177 165.829C59.6804 166.252 59.2443 166.601 58.8753 166.876C58.8283 166.95 58.7411 166.99 58.6136 166.997C58.4861 167.003 58.3653 167.003 58.2513 167.003ZM72.1134 150.209C71.2814 150.209 70.3555 150.565 69.3356 151.269C68.3157 151.974 67.2892 152.906 66.2626 154.06C65.2293 155.214 64.2363 156.53 63.2768 157.999C62.3173 159.468 61.4518 160.971 60.6869 162.515C62.1697 161.87 63.6525 161.099 65.1354 160.186C66.6182 159.28 67.9467 158.314 69.1343 157.294C70.3152 156.275 71.268 155.241 71.9993 154.181C72.7307 153.128 73.093 152.128 73.093 151.195C73.093 150.773 72.9924 150.504 72.7978 150.384C72.5965 150.269 72.3684 150.209 72.1134 150.209Z" fill="#088B46"/>
<path d="M70.2682 163.454C70.1273 163.602 69.9663 163.816 69.7784 164.098C69.5905 164.38 69.4228 164.675 69.2752 164.977C69.1276 165.279 69.0001 165.561 68.8927 165.816C68.7854 166.071 68.7384 166.259 68.7384 166.366C69.0135 166.185 69.4094 165.883 69.9193 165.474C70.4292 165.058 70.9727 164.642 71.5497 164.205C72.1268 163.776 72.6904 163.394 73.2338 163.065C73.7773 162.736 74.2269 162.568 74.5691 162.568C74.6362 162.568 74.7301 162.575 74.8442 162.582C74.9582 162.588 75.079 162.622 75.2065 162.662C75.334 162.709 75.4346 162.77 75.5017 162.857C75.5688 162.937 75.5822 163.051 75.5352 163.199C75.5151 163.326 75.4145 163.541 75.24 163.83C75.0656 164.125 74.8777 164.434 74.6697 164.769C74.4617 165.104 74.2738 165.42 74.1128 165.735C73.9518 166.051 73.8444 166.279 73.7975 166.426C73.7505 166.554 73.7237 166.708 73.7102 166.896C73.6968 167.077 73.7706 167.171 73.9384 167.171C74.1933 167.171 74.5624 167.003 75.0522 166.675C75.5353 166.346 76.0251 165.97 76.5081 165.561C76.9912 165.145 77.4274 164.769 77.8098 164.42C78.1923 164.071 78.3936 163.87 78.4204 163.816C78.4875 163.722 78.5948 163.722 78.7358 163.816C78.8767 163.91 78.9102 163.984 78.8431 164.038C78.6552 164.259 78.36 164.568 77.9373 164.957C77.5213 165.353 77.0718 165.749 76.582 166.138C76.0922 166.534 75.6158 166.876 75.1394 167.171C74.663 167.466 74.2671 167.614 73.9384 167.614C73.4955 167.614 73.1466 167.52 72.8782 167.339C72.6098 167.158 72.4891 166.923 72.5159 166.648C72.536 166.279 72.6501 165.896 72.8447 165.494C73.0393 165.091 73.2473 164.715 73.4553 164.366C73.6633 164.018 73.8578 163.729 74.0256 163.501C74.2 163.273 74.2873 163.139 74.2873 163.105C74.0122 163.125 73.6498 163.273 73.207 163.548C72.7642 163.823 72.2945 164.152 71.7846 164.541C71.2746 164.923 70.7714 165.319 70.2749 165.708C69.7784 166.104 69.3288 166.44 68.9397 166.715C68.7518 166.822 68.5774 166.883 68.4163 166.883C68.1614 166.883 67.9265 166.795 67.7051 166.621C67.4837 166.446 67.3898 166.252 67.4099 166.03C67.43 165.809 67.5307 165.527 67.7051 165.178C67.8796 164.829 68.0741 164.487 68.2956 164.158C68.517 163.83 68.7384 163.541 68.9531 163.306C69.1745 163.065 69.3423 162.951 69.4563 162.951C69.7784 162.951 70.0132 163.018 70.1541 163.145C70.3084 163.253 70.342 163.36 70.2682 163.454Z" fill="#088B46"/>
<path d="M78.9236 167.003C78.4405 167.003 78.0581 166.883 77.7763 166.648C77.5012 166.406 77.3804 166.091 77.4274 165.682C77.4475 165.406 77.5347 165.125 77.6891 164.829C77.8367 164.534 78.0245 164.272 78.246 164.031C78.4674 163.789 78.7156 163.595 78.9907 163.44C79.2658 163.286 79.5476 163.206 79.8227 163.206C80.0508 163.206 80.2387 163.259 80.3796 163.373C80.4467 163.226 80.6547 163.152 81.0036 163.152C81.4196 163.152 81.735 163.273 81.943 163.521C82.151 163.769 82.2181 164.098 82.151 164.501C82.151 164.574 82.1375 164.642 82.1174 164.695C82.0973 164.749 82.0704 164.816 82.0503 164.89C82.3254 165.071 82.6877 165.165 83.1306 165.165C83.6875 165.165 84.1639 165.098 84.5731 164.97C84.9757 164.843 85.3313 164.688 85.6333 164.514C85.9352 164.34 86.1767 164.158 86.3646 163.977C86.5525 163.796 86.7001 163.649 86.8142 163.534C86.9081 163.441 87.002 163.441 87.0893 163.534C87.1832 163.628 87.1966 163.716 87.1228 163.81C87.0758 163.863 86.9685 163.991 86.794 164.179C86.6196 164.373 86.3646 164.568 86.0291 164.769C85.6936 164.97 85.2844 165.151 84.8147 165.319C84.3383 165.487 83.768 165.567 83.097 165.567C82.6542 165.567 82.2315 165.494 81.8088 165.346C81.5538 165.789 81.1714 166.171 80.6614 166.5C80.1515 166.842 79.5677 167.003 78.9236 167.003ZM81.0774 164.917C80.8225 164.715 80.6279 164.501 80.5071 164.286C80.3796 164.064 80.3058 163.883 80.279 163.736C79.9099 163.937 79.5879 164.199 79.3262 164.521C79.0578 164.843 78.8632 165.151 78.7358 165.46C78.6083 165.762 78.5747 166.024 78.6284 166.245C78.6888 166.467 78.8297 166.574 79.0645 166.574C79.2524 166.574 79.5543 166.467 79.9838 166.259C80.4132 166.037 80.7755 165.594 81.0774 164.917ZM81.2854 164.031C81.3056 163.863 81.2988 163.783 81.2519 163.783C81.225 163.783 81.2385 163.87 81.2854 164.031Z" fill="#088B46"/>
<path d="M88.6526 163.508C88.3507 164.373 88.1896 165.185 88.1695 165.957C88.1494 166.453 88.25 166.869 88.4849 167.211C88.713 167.554 89.0753 167.721 89.5651 167.721C90.122 167.721 90.7594 167.607 91.4774 167.379C92.1953 167.151 92.9199 166.849 93.6513 166.487C94.3826 166.118 95.0939 165.702 95.7849 165.232C96.476 164.762 97.0799 164.279 97.5898 163.789C97.6838 163.696 97.7911 163.696 97.9186 163.789C98.0461 163.883 98.0662 163.971 97.9723 164.065C97.4154 164.581 96.7847 165.084 96.0802 165.581C95.3757 166.077 94.6376 166.527 93.8727 166.93C93.1078 167.332 92.3429 167.661 91.578 167.909C90.8131 168.157 90.0952 168.278 89.4242 168.278C89.1692 168.278 88.874 168.258 88.5385 168.211C88.2031 168.164 87.881 168.057 87.5656 167.896C87.2503 167.735 86.9819 167.493 86.7471 167.178C86.5189 166.869 86.3982 166.453 86.3982 165.937C86.378 164.964 86.6129 163.87 87.1094 162.649C87.6059 161.428 88.2769 160.186 89.1223 158.932C89.9677 157.677 90.9339 156.442 92.0208 155.241C93.1078 154.04 94.2417 152.974 95.4092 152.048C96.5767 151.122 97.7509 150.37 98.9183 149.807C100.086 149.236 101.159 148.954 102.132 148.954C102.803 148.954 103.34 149.095 103.749 149.384C104.152 149.666 104.36 150.088 104.36 150.639C104.36 151.41 103.951 152.316 103.125 153.349C102.3 154.389 101.179 155.476 99.757 156.61C98.3346 157.751 96.6639 158.912 94.7517 160.106C92.8394 161.287 90.8064 162.427 88.6526 163.508ZM88.8942 162.823C91.001 161.743 92.9535 160.643 94.7517 159.522C96.5431 158.402 98.1065 157.308 99.4216 156.234C100.743 155.161 101.777 154.141 102.528 153.182C103.28 152.215 103.655 151.37 103.655 150.632C103.655 150.357 103.588 150.129 103.447 149.954C103.306 149.78 103.098 149.693 102.823 149.693C102.34 149.672 101.71 149.84 100.945 150.189C100.18 150.538 99.3545 151.028 98.4621 151.645C97.5697 152.269 96.6505 153 95.6977 153.846C94.7449 154.691 93.8392 155.604 92.9669 156.583C92.1014 157.563 91.3029 158.59 90.585 159.656C89.8805 160.723 89.3102 161.777 88.8942 162.823Z" fill="#088B46"/>
<path d="M98.2405 167.003C97.7574 167.003 97.375 166.883 97.0932 166.648C96.8181 166.406 96.6973 166.091 96.7443 165.682C96.7644 165.406 96.8516 165.125 97.0059 164.829C97.1536 164.534 97.3414 164.272 97.5628 164.031C97.7843 163.789 98.0325 163.595 98.3076 163.44C98.5827 163.286 98.8645 163.206 99.1396 163.206C99.3677 163.206 99.5556 163.259 99.6965 163.373C99.7636 163.226 99.9716 163.152 100.321 163.152C100.737 163.152 101.052 163.273 101.26 163.521C101.468 163.769 101.535 164.098 101.468 164.501C101.468 164.574 101.454 164.642 101.434 164.695C101.414 164.749 101.387 164.816 101.367 164.89C101.642 165.071 102.005 165.165 102.447 165.165C103.004 165.165 103.481 165.098 103.89 164.97C104.293 164.843 104.648 164.688 104.95 164.514C105.252 164.34 105.494 164.158 105.682 163.977C105.869 163.796 106.017 163.649 106.131 163.534C106.225 163.441 106.319 163.441 106.406 163.534C106.5 163.628 106.514 163.716 106.44 163.81C106.393 163.863 106.285 163.991 106.111 164.179C105.936 164.373 105.682 164.568 105.346 164.769C105.011 164.97 104.601 165.151 104.132 165.319C103.655 165.487 103.085 165.567 102.414 165.567C101.971 165.567 101.548 165.494 101.126 165.346C100.871 165.789 100.488 166.171 99.9783 166.5C99.4684 166.842 98.8914 167.003 98.2405 167.003ZM100.394 164.917C100.139 164.715 99.9448 164.501 99.824 164.286C99.6965 164.064 99.6227 163.883 99.5959 163.736C99.2268 163.937 98.9048 164.199 98.6431 164.521C98.3747 164.843 98.1801 165.151 98.0527 165.46C97.9252 165.762 97.8916 166.024 97.9453 166.245C98.0057 166.467 98.1466 166.574 98.3814 166.574C98.5693 166.574 98.8712 166.467 99.3006 166.259C99.7301 166.037 100.092 165.594 100.394 164.917ZM100.602 164.031C100.622 163.863 100.616 163.783 100.569 163.783C100.542 163.783 100.555 163.87 100.602 164.031Z" fill="#088B46"/>
<path d="M101.193 173.31C101.24 172.794 101.401 172.304 101.683 171.821C101.958 171.345 102.407 170.861 103.018 170.378C103.635 169.889 104.44 169.392 105.433 168.875C106.426 168.359 107.654 167.809 109.117 167.225C109.184 166.822 109.244 166.42 109.291 166.01C109.338 165.608 109.359 165.192 109.359 164.769C109.171 164.99 108.956 165.225 108.714 165.487C108.473 165.742 108.198 165.977 107.896 166.192C107.594 166.4 107.279 166.574 106.943 166.701C106.608 166.829 106.252 166.883 105.883 166.869C105.42 166.836 105.071 166.708 104.843 166.5C104.615 166.292 104.521 166.01 104.568 165.661C104.615 165.279 104.756 164.917 105.004 164.574C105.246 164.232 105.547 163.937 105.91 163.682C106.265 163.427 106.661 163.226 107.091 163.078C107.52 162.931 107.956 162.87 108.392 162.884C108.667 162.904 108.916 162.957 109.124 163.051C109.332 163.145 109.493 163.253 109.613 163.38C109.754 163.306 109.902 163.273 110.063 163.273C110.318 163.293 110.499 163.34 110.6 163.427C110.707 163.508 110.754 163.595 110.754 163.689C110.801 164.058 110.815 164.487 110.808 164.984C110.794 165.48 110.741 166.024 110.653 166.608C111.096 166.386 111.546 166.138 112.009 165.849C112.472 165.568 112.901 165.279 113.297 164.984C113.693 164.689 114.049 164.413 114.377 164.145C114.699 163.877 114.948 163.655 115.109 163.467C115.223 163.34 115.344 163.333 115.471 163.454C115.598 163.575 115.619 163.669 115.525 163.742C114.948 164.333 114.223 164.937 113.351 165.574C112.478 166.212 111.559 166.735 110.586 167.158C110.425 168.097 110.177 169.063 109.842 170.063C109.506 171.063 109.057 171.969 108.486 172.787C107.916 173.606 107.238 174.263 106.433 174.753C105.628 175.243 104.689 175.471 103.602 175.411C102.817 175.37 102.206 175.162 101.777 174.78C101.341 174.384 101.146 173.901 101.193 173.31ZM101.991 173.337C101.944 173.76 102.058 174.109 102.32 174.384C102.588 174.659 102.917 174.813 103.313 174.854C103.964 174.887 104.588 174.719 105.192 174.344C105.796 173.968 106.346 173.451 106.842 172.801C107.339 172.15 107.775 171.385 108.144 170.513C108.513 169.64 108.802 168.721 109.01 167.748C107.735 168.278 106.661 168.775 105.776 169.238C104.897 169.694 104.185 170.15 103.642 170.6C103.098 171.049 102.696 171.492 102.441 171.935C102.193 172.378 102.038 172.841 101.991 173.337ZM109.359 164.031C109.359 163.997 109.352 163.964 109.338 163.937C109.325 163.91 109.332 163.877 109.359 163.843C109.312 163.749 109.244 163.662 109.151 163.581C109.057 163.501 108.943 163.447 108.802 163.427C108.547 163.407 108.238 163.481 107.882 163.635C107.52 163.789 107.185 163.997 106.856 164.252C106.534 164.507 106.252 164.789 106.024 165.091C105.789 165.393 105.662 165.695 105.641 165.984C105.641 166.077 105.662 166.171 105.695 166.272C105.729 166.373 105.816 166.433 105.957 166.453C106.42 166.493 106.97 166.272 107.607 165.809C108.238 165.339 108.828 164.749 109.359 164.031Z" fill="#088B46"/>
<path d="M116.618 163.454C116.504 163.581 116.337 163.823 116.115 164.172C115.894 164.521 115.713 164.876 115.558 165.232C115.411 165.588 115.337 165.903 115.35 166.171C115.364 166.44 115.538 166.561 115.887 166.54C116.209 166.52 116.585 166.386 117.014 166.124C117.444 165.869 117.846 165.574 118.229 165.245C118.611 164.917 118.947 164.601 119.235 164.306C119.524 164.011 119.705 163.83 119.772 163.756C119.886 163.662 120 163.649 120.121 163.716C120.235 163.783 120.262 163.857 120.188 163.951C120 164.132 119.745 164.393 119.423 164.736C119.101 165.078 118.739 165.407 118.343 165.729C117.947 166.051 117.524 166.332 117.075 166.581C116.625 166.829 116.175 166.97 115.739 167.01C115.297 167.044 114.901 166.99 114.538 166.829C114.183 166.675 113.988 166.373 113.968 165.937C113.968 165.695 114.035 165.407 114.156 165.071C114.283 164.729 114.438 164.4 114.626 164.078C114.813 163.756 115.001 163.481 115.196 163.253C115.39 163.025 115.558 162.911 115.699 162.911C115.974 162.877 116.222 162.931 116.43 163.092C116.659 163.239 116.712 163.36 116.618 163.454ZM116.135 162.079C116.135 161.73 116.357 161.555 116.793 161.555C117.236 161.555 117.45 161.73 117.45 162.079C117.45 162.427 117.229 162.602 116.793 162.602C116.357 162.602 116.135 162.427 116.135 162.079Z" fill="#088B46"/>
<path d="M120.235 165.353C120.215 165.46 120.201 165.594 120.201 165.735C120.201 165.883 120.221 166.017 120.268 166.151C120.315 166.279 120.403 166.393 120.53 166.48C120.658 166.574 120.839 166.621 121.067 166.621C121.416 166.621 121.812 166.54 122.268 166.373C122.717 166.205 123.174 165.997 123.623 165.742C124.073 165.487 124.502 165.199 124.912 164.876C125.314 164.554 125.656 164.239 125.938 163.924C126.032 163.83 126.133 163.816 126.253 163.883C126.368 163.951 126.394 164.024 126.321 164.118C126.3 164.172 126.119 164.36 125.784 164.668C125.448 164.984 125.032 165.306 124.536 165.648C124.039 165.99 123.482 166.299 122.865 166.587C122.248 166.869 121.644 167.017 121.04 167.017C120.389 167.017 119.879 166.883 119.497 166.621C119.114 166.353 118.927 166.004 118.927 165.561C118.927 165.232 119.014 164.903 119.188 164.581C119.363 164.259 119.591 163.977 119.866 163.743C120.141 163.501 120.463 163.313 120.819 163.166C121.174 163.018 121.557 162.944 121.946 162.944C122.295 162.944 122.59 163.011 122.832 163.152C123.073 163.293 123.194 163.521 123.194 163.857C123.194 164.024 123.133 164.199 123.019 164.38C122.905 164.561 122.744 164.736 122.53 164.89C122.322 165.044 122.067 165.178 121.765 165.286C121.463 165.393 121.114 165.453 120.725 165.453C120.631 165.453 120.544 165.447 120.463 165.427C120.376 165.393 120.302 165.373 120.235 165.353ZM120.336 165.078C120.383 165.098 120.463 165.105 120.577 165.105C120.785 165.105 121 165.064 121.221 164.984C121.443 164.903 121.651 164.789 121.845 164.642C122.04 164.494 122.201 164.326 122.315 164.132C122.429 163.937 122.489 163.743 122.489 163.541C122.489 163.447 122.429 163.4 122.315 163.4C122.248 163.4 122.127 163.42 121.966 163.454C121.805 163.494 121.63 163.561 121.443 163.675C121.255 163.783 121.067 163.951 120.872 164.172C120.678 164.393 120.497 164.695 120.336 165.078Z" fill="#088B46"/>
<path d="M127.045 165.521C126.857 165.138 126.629 164.715 126.347 164.252C126.072 163.796 125.918 163.407 125.898 163.098C125.877 162.696 126.012 162.401 126.314 162.219C126.616 162.038 126.964 161.944 127.354 161.944C127.749 161.944 128.031 162.018 128.206 162.166C128.38 162.313 128.481 162.488 128.501 162.689C128.501 162.709 128.494 162.763 128.481 162.857C128.467 162.951 128.427 163.051 128.36 163.159C128.293 163.266 128.179 163.38 128.031 163.488C127.884 163.595 127.669 163.689 127.387 163.763C127.528 164.058 127.676 164.32 127.837 164.561C127.998 164.803 128.139 165.051 128.253 165.306C129.179 165.125 129.883 164.876 130.373 164.575C130.856 164.273 131.239 164.018 131.52 163.816C131.634 163.722 131.748 163.729 131.849 163.83C131.956 163.93 131.95 164.024 131.829 164.118C131.574 164.32 131.178 164.575 130.648 164.876C130.118 165.178 129.36 165.433 128.387 165.635C128.454 165.856 128.494 166.104 128.494 166.379C128.514 166.655 128.467 166.896 128.34 167.111C128.212 167.319 128.038 167.5 127.817 167.648C127.595 167.795 127.354 167.903 127.085 167.976C126.817 168.05 126.548 168.084 126.267 168.084C125.2 168.084 124.69 167.735 124.737 167.037C124.737 166.909 124.764 166.775 124.824 166.641C124.884 166.5 124.992 166.373 125.153 166.239C125.314 166.111 125.549 165.984 125.851 165.869C126.159 165.742 126.555 165.628 127.045 165.521ZM127.219 165.876C126.434 166.057 125.931 166.259 125.71 166.467C125.488 166.675 125.401 166.883 125.448 167.084C125.495 167.453 125.716 167.627 126.106 167.607C126.293 167.587 126.528 167.46 126.817 167.225C127.105 166.983 127.253 166.634 127.253 166.178C127.253 166.051 127.24 165.95 127.219 165.876ZM127.253 163.4C127.743 163.219 127.984 162.998 127.984 162.743C127.984 162.521 127.857 162.414 127.602 162.414C127.488 162.414 127.367 162.454 127.24 162.535C127.112 162.615 127.072 162.776 127.119 163.018C127.166 163.092 127.193 163.159 127.206 163.226C127.213 163.286 127.226 163.347 127.253 163.4Z" fill="#088B46"/>
<path d="M144.899 151.504C144.852 151.471 144.758 151.457 144.624 151.477C144.604 151.477 144.51 151.518 144.349 151.598C144.188 151.679 144.02 151.813 143.846 151.994C143.672 152.175 143.517 152.423 143.376 152.739C143.235 153.054 143.168 153.443 143.168 153.92C143.168 154.067 143.229 154.295 143.356 154.611C143.484 154.926 143.732 155.228 144.101 155.516C144.839 154.617 145.658 153.765 146.55 152.953C147.442 152.148 148.382 151.437 149.361 150.833C150.348 150.229 151.361 149.753 152.401 149.404C153.441 149.055 154.474 148.881 155.494 148.881C156.447 148.881 157.198 149.042 157.755 149.364C158.312 149.686 158.587 150.202 158.587 150.92C158.587 151.578 158.285 152.262 157.681 152.973C157.077 153.678 156.266 154.329 155.252 154.913C154.232 155.503 153.058 155.979 151.723 156.355C150.388 156.731 148.992 156.919 147.536 156.919C146.751 156.919 146.04 156.838 145.416 156.671C144.584 157.737 143.913 158.831 143.403 159.958C142.893 161.085 142.638 162.186 142.638 163.246C142.638 164.662 143.108 165.755 144.047 166.534C144.987 167.312 146.221 167.701 147.751 167.701C148.241 167.701 148.791 167.634 149.422 167.493C150.052 167.352 150.703 167.124 151.388 166.802C152.072 166.48 152.763 166.044 153.474 165.494C154.179 164.943 154.85 164.252 155.474 163.427C155.568 163.32 155.688 163.3 155.836 163.373C155.984 163.447 156.017 163.541 155.923 163.649C155.876 163.702 155.662 163.971 155.279 164.447C154.897 164.923 154.347 165.44 153.629 165.99C152.911 166.54 152.038 167.044 151.025 167.493C150.005 167.943 148.845 168.171 147.55 168.171C146.53 168.171 145.604 168.05 144.772 167.802C143.94 167.554 143.229 167.205 142.638 166.755C142.048 166.306 141.592 165.762 141.263 165.118C140.941 164.474 140.773 163.769 140.773 162.998C140.773 161.951 141.041 160.817 141.571 159.596C142.101 158.375 142.819 157.167 143.725 155.973C142.799 155.382 142.336 154.577 142.336 153.551C142.336 153.168 142.41 152.819 142.564 152.504C142.712 152.195 142.893 151.913 143.101 151.679C143.309 151.437 143.544 151.256 143.799 151.128C144.054 151.001 144.289 150.934 144.497 150.934C144.866 150.934 145.054 151.061 145.054 151.316C145.054 151.39 145.034 151.437 145 151.471C144.953 151.518 144.926 151.524 144.899 151.504ZM145.805 156.268C146.033 156.308 146.275 156.335 146.516 156.362C146.758 156.389 147.033 156.402 147.335 156.402C148.63 156.402 149.905 156.234 151.159 155.906C152.407 155.577 153.521 155.141 154.494 154.597C155.467 154.054 156.252 153.443 156.856 152.766C157.46 152.088 157.762 151.41 157.762 150.726C157.762 150.357 157.607 150.095 157.292 149.941C156.977 149.786 156.708 149.706 156.473 149.706C155.729 149.686 154.903 149.847 153.991 150.189C153.078 150.531 152.139 150.994 151.18 151.591C150.22 152.188 149.274 152.886 148.348 153.685C147.415 154.497 146.57 155.349 145.805 156.268Z" fill="#088B46"/>
<path d="M155.776 167.003C155.286 167.003 154.91 166.883 154.628 166.648C154.353 166.406 154.232 166.091 154.279 165.682C154.3 165.406 154.387 165.125 154.541 164.829C154.689 164.534 154.877 164.272 155.098 164.031C155.319 163.789 155.568 163.595 155.843 163.44C156.118 163.286 156.4 163.206 156.675 163.206C156.903 163.206 157.091 163.259 157.232 163.373C157.299 163.226 157.507 163.152 157.856 163.152C158.272 163.152 158.587 163.273 158.795 163.521C159.003 163.769 159.07 164.098 159.003 164.501C159.003 164.574 158.99 164.642 158.969 164.695C158.949 164.749 158.922 164.816 158.902 164.89C159.177 165.071 159.54 165.165 159.983 165.165C160.54 165.165 161.016 165.098 161.425 164.97C161.828 164.843 162.183 164.688 162.485 164.514C162.787 164.34 163.029 164.158 163.217 163.977C163.405 163.796 163.552 163.649 163.666 163.534C163.76 163.441 163.854 163.441 163.941 163.534C164.035 163.628 164.049 163.716 163.975 163.81C163.928 163.863 163.821 163.991 163.646 164.179C163.472 164.373 163.217 164.568 162.881 164.769C162.546 164.97 162.136 165.151 161.667 165.319C161.19 165.487 160.62 165.567 159.949 165.567C159.506 165.567 159.084 165.494 158.661 165.346C158.406 165.789 158.023 166.171 157.513 166.5C157.004 166.842 156.427 167.003 155.776 167.003ZM157.929 164.917C157.675 164.715 157.48 164.501 157.359 164.286C157.232 164.064 157.158 163.883 157.131 163.736C156.762 163.937 156.44 164.199 156.178 164.521C155.91 164.843 155.715 165.151 155.588 165.46C155.46 165.762 155.427 166.024 155.48 166.245C155.541 166.467 155.682 166.574 155.917 166.574C156.104 166.574 156.406 166.467 156.836 166.259C157.265 166.037 157.628 165.594 157.929 164.917ZM158.137 164.031C158.158 163.863 158.151 163.783 158.104 163.783C158.084 163.783 158.091 163.87 158.137 164.031Z" fill="#088B46"/>
<path d="M171.027 164.058C170.98 164.098 170.852 164.212 170.644 164.4C170.436 164.588 170.181 164.816 169.879 165.058C169.577 165.306 169.235 165.574 168.853 165.856C168.47 166.138 168.088 166.406 167.705 166.655C167.323 166.903 166.954 167.104 166.592 167.258C166.229 167.413 165.914 167.493 165.639 167.493C165.27 167.493 164.968 167.426 164.733 167.299C164.498 167.171 164.384 166.956 164.384 166.668C164.384 166.426 164.445 166.185 164.559 165.937C164.673 165.688 164.8 165.453 164.941 165.219C165.082 164.991 165.216 164.783 165.344 164.601C165.471 164.42 165.545 164.279 165.572 164.185C165.572 164.152 165.458 164.132 165.223 164.145C164.988 164.152 164.699 164.159 164.357 164.159C163.686 164.159 163.351 163.89 163.351 163.36C163.351 163.119 163.445 162.864 163.626 162.588C163.814 162.313 164.069 162.172 164.391 162.172C164.579 162.172 164.76 162.213 164.948 162.28C165.136 162.354 165.223 162.461 165.223 162.609C165.223 162.81 165.142 162.998 164.981 163.172C164.82 163.347 164.666 163.508 164.532 163.655L165.746 163.628C166.068 163.608 166.35 163.675 166.578 163.823C166.806 163.971 166.867 164.165 166.753 164.4C166.706 164.528 166.639 164.675 166.545 164.843C166.451 165.011 166.357 165.172 166.27 165.326C166.176 165.48 166.088 165.621 166.008 165.755C165.927 165.883 165.86 165.977 165.82 166.031C165.632 166.346 165.545 166.587 165.558 166.762C165.572 166.936 165.666 167.024 165.854 167.024C166.129 167.024 166.504 166.883 166.967 166.608C167.43 166.332 167.907 166.01 168.39 165.641C168.88 165.272 169.329 164.91 169.745 164.554C170.161 164.199 170.463 163.937 170.651 163.769C170.698 163.716 170.799 163.722 170.946 163.796C171.094 163.883 171.121 163.971 171.027 164.058Z" fill="#088B46"/>
<path d="M172.731 163.481C172.731 163.501 172.691 163.602 172.61 163.783C172.53 163.964 172.422 164.226 172.282 164.554C172.999 164.038 173.697 163.635 174.368 163.34C175.039 163.045 175.663 162.897 176.247 162.897C176.757 162.897 177.159 162.991 177.461 163.186C177.763 163.38 177.904 163.649 177.877 163.997C177.857 164.366 177.77 164.702 177.636 165.017C177.495 165.333 177.314 165.635 177.079 165.923C177.777 165.702 178.374 165.467 178.884 165.205C179.394 164.95 179.823 164.702 180.172 164.46C180.521 164.219 180.783 164.018 180.97 163.857C181.158 163.689 181.259 163.602 181.286 163.581C181.38 163.508 181.487 163.508 181.615 163.581C181.742 163.655 181.762 163.736 181.668 163.83C181.064 164.528 180.293 165.084 179.34 165.507C178.387 165.93 177.455 166.272 176.529 166.527C176.16 166.856 175.75 167.158 175.314 167.419C174.871 167.688 174.429 167.909 173.979 168.097C173.529 168.278 173.093 168.426 172.677 168.526C172.261 168.627 171.892 168.681 171.564 168.681C171.121 168.681 170.819 168.614 170.658 168.486C170.403 169.09 170.134 169.707 169.859 170.331C169.584 170.955 169.316 171.559 169.061 172.136C168.806 172.713 168.564 173.257 168.33 173.76C168.101 174.263 167.9 174.699 167.739 175.068C167.209 176.169 166.679 176.974 166.156 177.491C165.632 178.007 165.075 178.262 164.471 178.262C164.076 178.262 163.801 178.141 163.64 177.907C163.478 177.665 163.398 177.383 163.398 177.054C163.398 176.451 163.566 175.739 163.901 174.921C164.237 174.102 164.686 173.243 165.236 172.331C165.793 171.425 166.444 170.499 167.182 169.566C167.927 168.627 168.699 167.748 169.51 166.923C169.718 166.393 169.913 165.903 170.101 165.447C170.289 164.997 170.45 164.608 170.591 164.279C170.752 163.897 170.893 163.548 171.007 163.233C171.074 163.051 171.195 162.951 171.356 162.931C171.517 162.911 171.671 162.904 171.805 162.904C172.201 162.904 172.463 162.964 172.604 163.085C172.731 163.206 172.778 163.333 172.731 163.481ZM168.913 168.352C167.29 170.17 166.068 171.828 165.25 173.337C164.425 174.84 164.002 176.088 163.982 177.081C163.982 177.484 164.123 177.685 164.398 177.685C164.586 177.685 164.8 177.464 165.042 177.028C165.283 176.591 165.605 175.934 165.995 175.075C166.458 174.102 166.947 173.022 167.457 171.828C167.961 170.633 168.45 169.473 168.913 168.352ZM174.086 167.003C173.784 167.037 173.456 167.084 173.093 167.144C172.731 167.198 172.409 167.265 172.12 167.352C171.832 167.433 171.59 167.527 171.389 167.627C171.195 167.728 171.094 167.842 171.094 167.97C171.094 168.117 171.174 168.191 171.335 168.191C171.751 168.191 172.201 168.084 172.671 167.862C173.154 167.641 173.623 167.352 174.086 167.003ZM171.966 165.326C171.852 165.621 171.725 165.93 171.584 166.245C171.443 166.567 171.295 166.909 171.134 167.278C171.362 167.171 171.637 167.07 171.953 166.99C172.268 166.909 172.583 166.836 172.906 166.769C173.228 166.701 173.556 166.648 173.878 166.601C174.2 166.554 174.489 166.514 174.744 166.48C175.321 166.004 175.804 165.514 176.187 165.004C176.569 164.501 176.757 164.118 176.757 163.863C176.757 163.642 176.73 163.501 176.67 163.434C176.609 163.367 176.502 163.34 176.341 163.34C176.294 163.34 176.173 163.333 175.979 163.313C175.784 163.293 175.509 163.333 175.16 163.434C174.811 163.535 174.375 163.729 173.838 164.011C173.308 164.293 172.677 164.742 171.959 165.346V165.326H171.966Z" fill="#088B46"/>
</svg>
