<svg width="210" height="232" viewBox="0 0 210 232" fill="none" xmlns="http://www.w3.org/2000/svg">
<path d="M171.318 27.0537C171.318 27.0537 181.98 28.0937 174.955 22.3704C174.955 22.3704 131.269 -11.9494 81.3489 4.42885C81.3489 4.42885 51.9674 12.4871 33.2475 43.432C33.2475 43.432 30.3892 51.7519 23.8876 57.4752C23.8876 57.4752 -14.0755 102.718 6.46939 160.186C6.46939 160.186 20.7676 211.408 79.5373 228.054C79.5373 228.054 124.264 241.574 165.863 211.676C165.863 211.676 230.35 167.211 202.263 92.3251C202.263 92.3251 220.466 149.531 181.725 192.171C181.725 192.171 134.14 248.338 62.3741 213.233C62.3741 213.233 5.16772 185.072 11.931 115.554C11.931 115.554 13.2327 101.94 25.451 77.5035C25.451 77.5035 35.3342 59.8236 60.5558 49.4237C60.5558 49.4237 89.4206 34.3404 118.017 28.8855C118.017 28.8855 74.854 41.1037 34.8109 72.8269C34.8109 72.8269 26.4909 77.7652 40.0109 79.0668C40.0109 79.0668 89.9373 90.2451 124.257 59.8236C124.257 59.8169 152.599 32.2537 171.318 27.0537Z" fill="white"/>
<path d="M77.8263 123.243C77.6653 124.384 77.3231 125.887 76.7998 127.759C76.2697 129.631 75.592 131.59 74.7667 133.643C75.3102 133.643 75.894 133.663 76.5113 133.697C77.1285 133.73 77.766 133.804 78.4034 133.905C79.0408 134.005 79.6581 134.146 80.2485 134.321C80.839 134.495 81.3422 134.723 81.7582 135.005C82.0467 135.18 82.1406 135.367 82.0467 135.555C81.9528 135.743 81.8052 135.837 81.6173 135.837C81.4227 135.837 81.2818 135.75 81.1879 135.569C81.1208 135.468 80.9396 135.341 80.6377 135.186C80.3357 135.032 79.9265 134.884 79.4165 134.73C78.9066 134.576 78.3296 134.448 77.6922 134.348C77.0547 134.247 76.3704 134.193 75.6323 134.193H75.3438L74.8137 134.233H74.5252C73.8542 135.804 73.1095 137.333 72.2976 138.823C71.4857 140.312 70.5866 141.634 69.6138 142.788C68.6409 143.942 67.5941 144.868 66.4803 145.579C65.3598 146.284 64.1991 146.64 62.9846 146.64C61.9312 146.64 61.0187 146.405 60.2538 145.935C59.4889 145.465 59.0863 144.727 59.0595 143.714C59.0259 142.553 59.3145 141.433 59.9183 140.359C60.5222 139.286 61.3877 138.313 62.5015 137.441C63.6153 136.568 64.9573 135.817 66.5206 135.186C68.084 134.556 69.8083 134.113 71.6937 133.858C72.1433 132.818 72.5391 131.825 72.888 130.859C73.2369 129.899 73.559 129 73.8475 128.168C74.136 127.336 74.3776 126.598 74.5655 125.967C74.76 125.336 74.9009 124.853 74.9949 124.525C74.9278 124.625 74.5655 124.961 73.8945 125.531C73.2235 126.101 72.3714 126.779 71.3314 127.564C70.2914 128.349 69.1374 129.181 67.8625 130.067C66.5877 130.952 65.286 131.771 63.9575 132.516C62.6357 133.261 61.3475 133.885 60.0995 134.374C58.8515 134.871 57.7511 135.112 56.7983 135.112C55.8053 135.112 54.98 134.978 54.3091 134.717C53.6381 134.448 53.1013 134.099 52.7055 133.656C52.3029 133.214 52.0211 132.71 51.8466 132.14C51.6722 131.57 51.585 130.986 51.585 130.375C51.585 128.96 51.8802 127.484 52.4706 125.954C53.0611 124.424 53.8864 122.928 54.9398 121.458C55.9932 119.989 57.2278 118.607 58.6502 117.305C60.0726 116.003 61.5957 114.856 63.2262 113.87C64.8566 112.883 66.5676 112.098 68.3725 111.515C70.1774 110.931 71.9688 110.642 73.7603 110.642C75.0687 110.642 76.0818 110.857 76.7998 111.287C77.5177 111.716 78.0545 112.219 78.4034 112.783C78.7523 113.353 78.967 113.897 79.0475 114.413C79.128 114.93 79.1683 115.292 79.1683 115.493C79.1683 115.775 79.0945 116.218 78.9536 116.842C78.8127 117.459 78.6114 118.083 78.3564 118.701C78.1014 119.318 77.7861 119.868 77.4238 120.351C77.0547 120.834 76.632 121.069 76.1556 121.069C75.7732 121.069 75.4981 120.922 75.3438 120.633C75.1828 120.345 75.3438 120.069 75.8202 119.814C76.3301 119.539 76.8266 118.989 77.303 118.164C77.7794 117.345 78.0545 116.44 78.1149 115.453C78.1484 114.997 78.0746 114.547 77.9002 114.105C77.7257 113.662 77.4774 113.266 77.1554 112.91C76.8333 112.555 76.4374 112.266 75.9611 112.038C75.4847 111.81 74.9546 111.696 74.3776 111.696C73.0357 111.696 71.5931 111.964 70.0432 112.494C68.4932 113.024 66.9634 113.749 65.4471 114.655C63.9307 115.567 62.468 116.641 61.0657 117.882C59.6634 119.123 58.4221 120.445 57.3552 121.847C56.2884 123.25 55.4296 124.712 54.7922 126.229C54.1548 127.745 53.8327 129.255 53.8327 130.744C53.8327 131.704 54.0742 132.536 54.5506 133.227C55.027 133.918 55.5705 134.274 56.1811 134.274C57.107 134.274 58.1872 134.032 59.4151 133.556C60.643 133.073 61.9178 132.462 63.2463 131.717C64.5681 130.973 65.8966 130.134 67.2184 129.215C68.5402 128.289 69.7479 127.376 70.8349 126.464C71.9219 125.551 72.8411 124.706 73.5859 123.921C74.3373 123.136 74.807 122.518 75.0016 122.062C75.062 121.962 75.1962 121.908 75.384 121.908C76.1825 121.881 76.8065 122.009 77.2493 122.29C77.6989 122.572 77.8934 122.887 77.8263 123.243ZM71.4119 134.549C69.5601 134.878 67.9431 135.381 66.5542 136.065C65.1653 136.75 63.9978 137.514 63.0584 138.36C62.1191 139.205 61.4146 140.098 60.9516 141.037C60.4886 141.97 60.2605 142.842 60.2605 143.654C60.2605 144.311 60.4685 144.835 60.8845 145.231C61.3005 145.62 61.844 145.821 62.515 145.821C63.3134 145.821 64.1119 145.499 64.9103 144.855C65.7087 144.211 66.4938 143.359 67.2587 142.292C68.0236 141.232 68.7616 140.024 69.4594 138.669C70.1505 137.313 70.8014 135.938 71.4119 134.549Z" fill="white"/>
<path d="M80.5102 132.992C79.8392 132.992 79.3159 132.831 78.9267 132.496C78.5443 132.167 78.3832 131.724 78.4503 131.167C78.4839 130.785 78.6047 130.396 78.8127 129.993C79.0207 129.59 79.2756 129.221 79.5776 128.893C79.8795 128.564 80.2217 128.289 80.6041 128.074C80.9866 127.859 81.369 127.752 81.7515 127.752C82.0735 127.752 82.3285 127.826 82.5164 127.98C82.6103 127.779 82.8988 127.678 83.3752 127.678C83.9522 127.678 84.3817 127.846 84.6702 128.188C84.9587 128.53 85.0526 128.98 84.9587 129.537C84.9587 129.637 84.9453 129.725 84.9117 129.805C84.8782 129.879 84.8446 129.973 84.8178 130.074C85.2002 130.328 85.6967 130.456 86.3006 130.456C87.0655 130.456 87.7298 130.369 88.2867 130.188C88.8436 130.013 89.3334 129.805 89.7494 129.564C90.1654 129.322 90.5008 129.074 90.7558 128.826C91.0108 128.571 91.2188 128.369 91.3798 128.222C91.5073 128.094 91.6348 128.094 91.7623 128.222C91.8897 128.349 91.9032 128.477 91.8092 128.604C91.7421 128.678 91.5945 128.852 91.353 129.114C91.1114 129.382 90.7625 129.651 90.2996 129.933C89.8366 130.214 89.2797 130.463 88.6221 130.691C87.9646 130.919 87.1796 131.033 86.2536 131.033C85.6498 131.033 85.0593 130.932 84.4823 130.731C84.1334 131.335 83.6033 131.872 82.8988 132.328C82.201 132.764 81.4026 132.992 80.5102 132.992ZM83.4759 130.114C83.127 129.839 82.8586 129.543 82.6841 129.242C82.5097 128.94 82.4023 128.685 82.3755 128.483C81.8655 128.765 81.4227 129.121 81.0604 129.564C80.6914 130.006 80.423 130.436 80.2485 130.852C80.0741 131.268 80.0271 131.63 80.1076 131.932C80.1881 132.234 80.3894 132.388 80.7048 132.388C80.9597 132.388 81.3824 132.241 81.9729 131.952C82.5633 131.664 83.0599 131.046 83.4759 130.114ZM83.7644 128.899C83.7979 128.671 83.7778 128.557 83.7174 128.557C83.6839 128.557 83.704 128.671 83.7644 128.899Z" fill="white"/>
<path d="M117.621 123.243C117.46 124.384 117.118 125.887 116.595 127.759C116.071 129.631 115.387 131.59 114.562 133.643C115.105 133.643 115.689 133.663 116.306 133.697C116.93 133.737 117.561 133.804 118.198 133.905C118.836 134.005 119.453 134.146 120.043 134.321C120.634 134.495 121.137 134.723 121.553 135.005C121.842 135.18 121.936 135.367 121.842 135.555C121.748 135.743 121.6 135.837 121.412 135.837C121.224 135.837 121.077 135.75 120.983 135.569C120.916 135.468 120.734 135.341 120.433 135.186C120.131 135.032 119.721 134.884 119.211 134.73C118.701 134.576 118.124 134.448 117.487 134.348C116.85 134.247 116.165 134.193 115.427 134.193H115.139L114.609 134.233H114.32C113.649 135.804 112.904 137.333 112.092 138.823C111.281 140.312 110.382 141.634 109.409 142.788C108.436 143.942 107.389 144.868 106.275 145.579C105.155 146.284 103.994 146.64 102.779 146.64C101.726 146.64 100.814 146.405 100.049 145.935C99.2838 145.465 98.8812 144.727 98.8543 143.714C98.8208 142.553 99.1093 141.433 99.7132 140.359C100.317 139.286 101.183 138.313 102.296 137.441C103.41 136.568 104.752 135.817 106.315 135.186C107.879 134.556 109.603 134.113 111.489 133.858C111.938 132.818 112.334 131.825 112.683 130.859C113.032 129.899 113.354 129 113.642 128.168C113.931 127.336 114.172 126.598 114.36 125.967C114.555 125.336 114.696 124.853 114.79 124.525C114.723 124.625 114.36 124.961 113.689 125.531C113.018 126.101 112.166 126.779 111.126 127.564C110.086 128.349 108.932 129.181 107.657 130.067C106.383 130.952 105.081 131.771 103.752 132.516C102.431 133.261 101.142 133.885 99.8943 134.374C98.6464 134.871 97.546 135.112 96.5932 135.112C95.6002 135.112 94.7749 134.978 94.1039 134.717C93.433 134.448 92.8962 134.099 92.5003 133.656C92.0977 133.214 91.8159 132.71 91.6415 132.14C91.467 131.57 91.3798 130.986 91.3798 130.375C91.3798 128.96 91.675 127.484 92.2655 125.954C92.8559 124.424 93.6812 122.928 94.7346 121.458C95.7881 119.989 97.0226 118.607 98.4451 117.305C99.8675 116.003 101.391 114.856 103.021 113.87C104.651 112.883 106.362 112.098 108.167 111.515C109.972 110.931 111.764 110.642 113.555 110.642C114.864 110.642 115.877 110.857 116.595 111.287C117.313 111.716 117.849 112.219 118.198 112.783C118.547 113.353 118.762 113.897 118.842 114.413C118.923 114.93 118.963 115.292 118.963 115.493C118.963 115.775 118.889 116.218 118.748 116.842C118.608 117.459 118.406 118.083 118.151 118.701C117.896 119.318 117.581 119.868 117.219 120.351C116.85 120.834 116.427 121.069 115.951 121.069C115.568 121.069 115.293 120.922 115.139 120.633C114.978 120.345 115.139 120.069 115.615 119.814C116.125 119.539 116.621 118.989 117.098 118.164C117.574 117.345 117.849 116.44 117.91 115.453C117.943 114.997 117.869 114.547 117.695 114.105C117.521 113.662 117.272 113.266 116.95 112.91C116.628 112.555 116.232 112.266 115.756 112.038C115.28 111.81 114.749 111.696 114.172 111.696C112.831 111.696 111.388 111.964 109.838 112.494C108.288 113.024 106.758 113.749 105.242 114.655C103.726 115.567 102.263 116.641 100.861 117.882C99.4582 119.123 98.2169 120.445 97.1501 121.847C96.0833 123.25 95.2244 124.712 94.587 126.229C93.9496 127.745 93.6275 129.255 93.6275 130.744C93.6275 131.704 93.8691 132.536 94.3455 133.227C94.8219 133.918 95.3653 134.274 95.9759 134.274C96.9019 134.274 97.9821 134.032 99.21 133.556C100.438 133.073 101.713 132.462 103.041 131.717C104.363 130.973 105.691 130.134 107.013 129.215C108.335 128.289 109.543 127.376 110.63 126.464C111.717 125.551 112.636 124.706 113.381 123.921C114.132 123.136 114.602 122.518 114.796 122.062C114.857 121.962 114.991 121.908 115.179 121.908C115.977 121.881 116.601 122.009 117.044 122.29C117.494 122.572 117.682 122.887 117.621 123.243ZM111.2 134.549C109.348 134.878 107.731 135.381 106.342 136.065C104.953 136.75 103.786 137.514 102.847 138.36C101.907 139.205 101.203 140.098 100.74 141.037C100.277 141.97 100.049 142.842 100.049 143.654C100.049 144.311 100.257 144.835 100.673 145.231C101.089 145.62 101.632 145.821 102.303 145.821C103.102 145.821 103.9 145.499 104.698 144.855C105.497 144.211 106.282 143.359 107.047 142.292C107.812 141.232 108.55 140.024 109.248 138.669C109.939 137.313 110.596 135.938 111.2 134.549Z" fill="white"/>
<path d="M129.927 128.933C129.86 128.987 129.685 129.141 129.397 129.409C129.108 129.678 128.759 129.98 128.343 130.322C127.927 130.664 127.458 131.033 126.927 131.422C126.404 131.811 125.874 132.18 125.344 132.523C124.814 132.865 124.304 133.14 123.814 133.355C123.318 133.569 122.882 133.677 122.499 133.677C121.989 133.677 121.573 133.589 121.251 133.408C120.929 133.234 120.775 132.939 120.775 132.536C120.775 132.207 120.855 131.872 121.016 131.53C121.177 131.187 121.352 130.859 121.546 130.543C121.741 130.228 121.922 129.939 122.097 129.691C122.271 129.436 122.378 129.248 122.405 129.121C122.405 129.067 122.244 129.054 121.929 129.067C121.607 129.08 121.211 129.087 120.734 129.087C119.809 129.087 119.346 128.718 119.346 127.987C119.346 127.658 119.473 127.302 119.728 126.927C119.983 126.544 120.332 126.356 120.781 126.356C121.036 126.356 121.291 126.41 121.546 126.511C121.801 126.611 121.929 126.766 121.929 126.967C121.929 127.249 121.815 127.504 121.593 127.745C121.372 127.987 121.164 128.208 120.969 128.41L122.647 128.369C123.096 128.342 123.479 128.43 123.794 128.638C124.116 128.839 124.19 129.107 124.036 129.436C123.969 129.611 123.875 129.819 123.747 130.04C123.62 130.268 123.492 130.49 123.365 130.704C123.237 130.919 123.116 131.114 123.002 131.295C122.888 131.469 122.801 131.597 122.741 131.677C122.486 132.107 122.365 132.442 122.378 132.684C122.392 132.925 122.533 133.046 122.788 133.046C123.17 133.046 123.68 132.858 124.317 132.476C124.955 132.093 125.612 131.657 126.283 131.147C126.954 130.644 127.578 130.141 128.149 129.651C128.726 129.154 129.135 128.799 129.397 128.571C129.457 128.497 129.598 128.51 129.806 128.611C130.014 128.691 130.054 128.805 129.927 128.933Z" fill="white"/>
<path d="M130.162 130.718C130.128 130.872 130.115 131.046 130.115 131.248C130.115 131.449 130.148 131.637 130.208 131.818C130.269 131.992 130.39 132.147 130.571 132.274C130.745 132.402 130.994 132.462 131.316 132.462C131.792 132.462 132.342 132.348 132.966 132.12C133.59 131.892 134.214 131.603 134.831 131.248C135.455 130.892 136.046 130.496 136.603 130.053C137.16 129.611 137.629 129.174 138.018 128.745C138.146 128.618 138.287 128.597 138.448 128.691C138.609 128.779 138.642 128.886 138.542 129.013C138.508 129.087 138.26 129.342 137.797 129.772C137.334 130.201 136.757 130.651 136.073 131.12C135.388 131.59 134.617 132.019 133.771 132.408C132.926 132.798 132.087 132.999 131.255 132.999C130.363 132.999 129.652 132.818 129.122 132.449C128.591 132.08 128.33 131.597 128.33 130.986C128.33 130.53 128.451 130.08 128.692 129.637C128.934 129.195 129.242 128.812 129.625 128.483C130.007 128.155 130.443 127.886 130.94 127.685C131.436 127.484 131.953 127.383 132.496 127.383C132.973 127.383 133.382 127.477 133.718 127.665C134.053 127.853 134.221 128.175 134.221 128.631C134.221 128.859 134.14 129.101 133.979 129.349C133.818 129.604 133.597 129.839 133.308 130.053C133.02 130.268 132.671 130.449 132.255 130.604C131.839 130.758 131.363 130.832 130.819 130.832C130.692 130.832 130.571 130.818 130.457 130.791C130.363 130.771 130.262 130.744 130.162 130.718ZM130.309 130.342C130.37 130.369 130.484 130.382 130.645 130.382C130.933 130.382 131.228 130.328 131.53 130.214C131.832 130.1 132.121 129.946 132.389 129.738C132.658 129.537 132.872 129.302 133.033 129.034C133.194 128.765 133.275 128.497 133.275 128.215C133.275 128.087 133.194 128.027 133.033 128.027C132.939 128.027 132.778 128.054 132.557 128.101C132.335 128.155 132.094 128.255 131.839 128.403C131.584 128.557 131.322 128.785 131.047 129.087C130.779 129.389 130.531 129.805 130.309 130.342Z" fill="white"/>
<path d="M138.971 130.718C138.938 130.872 138.924 131.046 138.924 131.248C138.924 131.449 138.958 131.637 139.018 131.818C139.079 131.992 139.199 132.147 139.381 132.274C139.555 132.402 139.803 132.462 140.125 132.462C140.602 132.462 141.152 132.348 141.776 132.12C142.4 131.892 143.024 131.603 143.641 131.248C144.265 130.892 144.856 130.496 145.413 130.053C145.969 129.611 146.439 129.174 146.828 128.745C146.956 128.618 147.097 128.597 147.258 128.691C147.419 128.779 147.452 128.886 147.352 129.013C147.318 129.087 147.07 129.342 146.607 129.772C146.144 130.201 145.567 130.651 144.882 131.12C144.198 131.59 143.426 132.019 142.581 132.408C141.736 132.798 140.897 132.999 140.065 132.999C139.173 132.999 138.461 132.818 137.931 132.449C137.401 132.08 137.14 131.597 137.14 130.986C137.14 130.53 137.26 130.08 137.502 129.637C137.743 129.195 138.052 128.812 138.435 128.483C138.817 128.155 139.253 127.886 139.75 127.685C140.246 127.484 140.763 127.383 141.306 127.383C141.783 127.383 142.192 127.477 142.527 127.665C142.863 127.853 143.031 128.175 143.031 128.631C143.031 128.859 142.95 129.101 142.789 129.349C142.628 129.604 142.407 129.839 142.118 130.053C141.83 130.268 141.481 130.449 141.065 130.604C140.649 130.758 140.172 130.832 139.629 130.832C139.501 130.832 139.381 130.818 139.267 130.791C139.173 130.771 139.072 130.744 138.971 130.718ZM139.119 130.342C139.179 130.369 139.293 130.382 139.454 130.382C139.743 130.382 140.038 130.328 140.34 130.214C140.642 130.1 140.931 129.946 141.199 129.738C141.467 129.537 141.682 129.302 141.843 129.034C142.004 128.765 142.085 128.497 142.085 128.215C142.085 128.087 142.004 128.027 141.843 128.027C141.749 128.027 141.588 128.054 141.367 128.101C141.145 128.155 140.904 128.255 140.649 128.403C140.394 128.557 140.132 128.785 139.857 129.087C139.589 129.389 139.34 129.805 139.119 130.342Z" fill="white"/>
<path d="M149.747 128.101C149.552 128.302 149.331 128.597 149.076 128.993C148.821 129.382 148.586 129.792 148.385 130.208C148.177 130.624 148.002 131.013 147.855 131.362C147.714 131.717 147.64 131.966 147.64 132.12C148.023 131.865 148.566 131.456 149.271 130.885C149.975 130.315 150.72 129.738 151.518 129.141C152.317 128.544 153.088 128.02 153.84 127.564C154.591 127.108 155.202 126.88 155.685 126.88C155.779 126.88 155.906 126.886 156.067 126.9C156.228 126.913 156.396 126.954 156.571 127.014C156.745 127.074 156.879 127.168 156.98 127.282C157.081 127.396 157.094 127.557 157.027 127.759C156.993 127.933 156.859 128.228 156.618 128.631C156.376 129.033 156.114 129.463 155.826 129.919C155.537 130.375 155.282 130.818 155.061 131.248C154.84 131.677 154.692 131.992 154.632 132.194C154.564 132.368 154.531 132.583 154.511 132.838C154.497 133.093 154.598 133.22 154.819 133.22C155.168 133.22 155.678 132.992 156.349 132.536C157.02 132.08 157.691 131.57 158.362 130.999C159.033 130.429 159.63 129.906 160.16 129.423C160.69 128.94 160.965 128.664 160.999 128.591C161.093 128.463 161.241 128.463 161.428 128.591C161.623 128.718 161.67 128.819 161.569 128.893C161.314 129.195 160.898 129.617 160.321 130.161C159.744 130.704 159.127 131.248 158.456 131.791C157.785 132.335 157.121 132.811 156.47 133.214C155.812 133.616 155.262 133.817 154.819 133.817C154.216 133.817 153.726 133.69 153.357 133.435C152.988 133.18 152.82 132.865 152.854 132.489C152.887 131.986 153.035 131.449 153.31 130.892C153.578 130.335 153.86 129.819 154.148 129.335C154.437 128.852 154.699 128.456 154.94 128.141C155.182 127.826 155.303 127.645 155.303 127.591C154.92 127.618 154.424 127.819 153.82 128.195C153.216 128.577 152.558 129.027 151.854 129.564C151.149 130.094 150.458 130.63 149.774 131.174C149.089 131.717 148.472 132.18 147.929 132.556C147.674 132.71 147.432 132.784 147.211 132.784C146.862 132.784 146.533 132.663 146.231 132.422C145.929 132.18 145.795 131.912 145.822 131.603C145.855 131.301 145.99 130.905 146.231 130.429C146.473 129.946 146.741 129.483 147.043 129.027C147.345 128.571 147.647 128.181 147.955 127.853C148.257 127.524 148.492 127.356 148.647 127.356C149.096 127.356 149.411 127.443 149.606 127.624C149.794 127.819 149.841 127.973 149.747 128.101Z" fill="white"/>
<path d="M36.8707 153.738C36.8707 153.886 36.8775 154.007 36.8909 154.107C36.9043 154.208 36.9311 154.262 36.9781 154.262C37.0251 154.282 37.0452 154.315 37.0452 154.356C37.0452 154.403 36.9848 154.423 36.8707 154.423C36.8238 154.423 36.7231 154.376 36.5554 154.282C36.3944 154.188 36.3138 153.987 36.3138 153.678C36.3138 153.51 36.3809 153.262 36.5218 152.933C36.6627 152.604 36.9244 152.269 37.3069 151.927C37.6893 151.585 38.2127 151.289 38.8903 151.034C39.5613 150.779 40.4336 150.652 41.4937 150.652C42.2586 150.652 43.0369 150.672 43.8219 150.719C44.607 150.766 45.4054 150.826 46.2173 150.9L46.5662 150.209C46.6802 150.102 46.8413 150.041 47.056 150.041C47.3109 150.041 47.5391 150.095 47.7538 150.209C47.9618 150.316 48.0289 150.431 47.9618 150.538C47.9416 150.578 47.9148 150.618 47.8947 150.679C47.8745 150.719 47.8477 150.766 47.8276 150.833C47.8075 150.9 47.7672 150.974 47.7202 151.068C49.2031 151.216 50.6523 151.356 52.0614 151.497C53.4771 151.638 54.819 151.665 56.0939 151.591C56.6977 151.558 57.2949 151.497 57.8987 151.424C58.5026 151.35 59.0394 151.242 59.5158 151.108C59.9921 150.967 60.3813 150.8 60.6765 150.585C60.9785 150.377 61.1261 150.122 61.1261 149.827C61.1261 149.733 61.1059 149.672 61.059 149.646C61.012 149.619 60.965 149.585 60.9181 149.552C60.8711 149.518 60.851 149.471 60.8644 149.411C60.8778 149.357 60.9248 149.344 61.0187 149.384C61.0858 149.404 61.2066 149.464 61.3676 149.565C61.5287 149.666 61.6092 149.833 61.6092 150.075C61.6092 150.182 61.5421 150.363 61.4213 150.612C61.2938 150.86 61.0254 151.108 60.6229 151.356C60.2203 151.605 59.6432 151.826 58.9052 152.034C58.1604 152.235 57.1808 152.356 55.9529 152.39C54.7452 152.43 53.3899 152.39 51.8735 152.282C50.3571 152.175 48.8474 152.054 47.3378 151.927C47.0358 152.571 46.64 153.43 46.1368 154.503C45.6402 155.577 45.0968 156.724 44.5197 157.945C43.9427 159.166 43.359 160.401 42.7618 161.649C42.1714 162.897 41.6413 164.038 41.1649 165.064C40.6885 166.091 40.2927 166.936 39.9639 167.6C39.6418 168.258 39.4674 168.62 39.4405 168.674C39.3734 168.822 39.1722 168.895 38.8501 168.895C38.6622 168.895 38.4878 168.862 38.3267 168.802C38.1657 168.734 38.0919 168.647 38.1187 168.54C38.1858 168.285 38.3804 167.775 38.6891 167.023C38.9977 166.272 39.3936 165.38 39.8699 164.353C40.3463 163.326 40.863 162.213 41.4132 161.025C41.9701 159.831 42.5203 158.657 43.0637 157.502C43.6072 156.348 44.1239 155.268 44.607 154.268C45.09 153.269 45.4859 152.45 45.7878 151.806C44.305 151.679 42.9832 151.598 41.8292 151.558C41.3863 151.558 40.8764 151.591 40.2994 151.652C39.7223 151.719 39.1789 151.833 38.6689 152.007C38.159 152.182 37.7296 152.41 37.3807 152.698C37.0452 152.96 36.8707 153.316 36.8707 153.738Z" fill="white"/>
<path d="M46.2508 165.353C46.2307 165.46 46.2173 165.594 46.2173 165.735C46.2173 165.883 46.2374 166.017 46.2844 166.151C46.3313 166.279 46.4186 166.393 46.546 166.48C46.6735 166.574 46.8547 166.621 47.0828 166.621C47.4317 166.621 47.8276 166.54 48.2838 166.373C48.7401 166.205 49.1896 165.997 49.6392 165.742C50.0887 165.487 50.5182 165.198 50.9274 164.876C51.33 164.554 51.6722 164.239 51.954 163.924C52.0479 163.83 52.1486 163.816 52.2694 163.883C52.3834 163.95 52.4103 164.024 52.3365 164.118C52.3163 164.172 52.1352 164.36 51.7997 164.668C51.4642 164.984 51.0482 165.306 50.5517 165.648C50.0552 165.99 49.4983 166.299 48.881 166.587C48.2637 166.869 47.6598 167.017 47.056 167.017C46.4051 167.017 45.8952 166.883 45.5128 166.621C45.1303 166.353 44.9424 166.004 44.9424 165.561C44.9424 165.232 45.0297 164.903 45.2041 164.581C45.3786 164.259 45.6067 163.977 45.8818 163.742C46.1569 163.501 46.479 163.313 46.8346 163.165C47.1902 163.018 47.5726 162.944 47.9618 162.944C48.3107 162.944 48.6059 163.011 48.8475 163.152C49.089 163.293 49.2098 163.521 49.2098 163.857C49.2098 164.024 49.1494 164.199 49.0353 164.38C48.9213 164.561 48.7602 164.736 48.5455 164.89C48.3375 165.044 48.0826 165.178 47.7806 165.286C47.4787 165.393 47.1298 165.453 46.7406 165.453C46.6467 165.453 46.5595 165.447 46.4789 165.427C46.3984 165.393 46.3246 165.373 46.2508 165.353ZM46.3582 165.078C46.4051 165.098 46.4857 165.105 46.5997 165.105C46.8077 165.105 47.0224 165.064 47.2438 164.984C47.4653 164.903 47.6733 164.789 47.8678 164.642C48.0624 164.494 48.2235 164.326 48.3375 164.132C48.4516 163.937 48.512 163.742 48.512 163.541C48.512 163.447 48.4516 163.4 48.3375 163.4C48.2704 163.4 48.1496 163.42 47.9886 163.454C47.8276 163.494 47.6531 163.561 47.4653 163.675C47.2774 163.783 47.0895 163.95 46.8949 164.172C46.7004 164.393 46.5192 164.695 46.3582 165.078Z" fill="white"/>
<path d="M55.6309 164.145C55.5638 164.326 55.4363 164.42 55.2484 164.42C55.0404 164.42 54.9331 164.346 54.9331 164.199C54.9331 164.105 54.9599 164.044 55.0203 164.004C55.0807 163.971 55.1277 163.883 55.1746 163.756C55.2417 163.481 55.1075 163.34 54.7586 163.34C54.3426 163.34 53.9669 163.508 53.6314 163.85C53.2959 164.192 53.0611 164.568 52.9202 164.977C52.7793 165.393 52.7726 165.769 52.8866 166.118C53.0007 166.467 53.3161 166.641 53.826 166.641C54.1749 166.641 54.5573 166.554 54.9733 166.379C55.3893 166.205 55.8053 165.984 56.2213 165.702C56.6373 165.427 57.0466 165.118 57.4358 164.782C57.8316 164.44 58.1671 164.118 58.4422 163.803C58.5093 163.709 58.6033 163.696 58.7173 163.763C58.8314 163.83 58.8649 163.904 58.8247 163.997C58.8045 164.051 58.6368 164.246 58.3214 164.575C58.0061 164.903 57.6102 165.266 57.1204 165.648C56.6306 166.03 56.0737 166.379 55.4363 166.695C54.7989 167.003 54.1212 167.164 53.4033 167.164C52.8464 167.164 52.417 167.057 52.115 166.849C51.8131 166.641 51.6185 166.379 51.5246 166.064C51.4307 165.755 51.4374 165.406 51.5447 165.031C51.6521 164.655 51.8198 164.313 52.0681 163.997C52.3096 163.689 52.6183 163.427 52.9873 163.212C53.3563 163.004 53.7656 162.897 54.2017 162.897C54.7788 162.897 55.188 163.018 55.4162 163.266C55.6577 163.521 55.7248 163.81 55.6309 164.145Z" fill="white"/>
<path d="M58.6234 167.003C58.2544 167.003 58.0128 166.93 57.892 166.782C57.778 166.634 57.7444 166.473 57.7847 166.285C58.1537 164.964 58.6502 163.635 59.2608 162.293C59.8714 160.951 60.5759 159.656 61.3609 158.395C62.1459 157.14 62.9846 155.959 63.877 154.859C64.7694 153.759 65.6752 152.799 66.6078 151.98C67.5338 151.162 68.453 150.524 69.3722 150.055C70.2847 149.585 71.1503 149.35 71.9621 149.35C72.6801 149.35 73.237 149.518 73.6328 149.86C74.0287 150.202 74.2233 150.618 74.2233 151.115C74.2233 151.866 74.0153 152.645 73.5993 153.443C73.1833 154.242 72.6197 155.033 71.9152 155.812C71.2107 156.59 70.3988 157.341 69.4863 158.066C68.5738 158.791 67.6143 159.468 66.6213 160.106C65.6282 160.737 64.6218 161.307 63.6154 161.81C62.6089 162.313 61.6629 162.729 60.7839 163.065C60.5289 163.561 60.3075 164.051 60.1263 164.541C59.9385 165.031 59.7573 165.507 59.5694 165.983C59.9385 165.688 60.3679 165.346 60.8577 164.95C61.3408 164.554 61.8373 164.185 62.3338 163.836C62.8303 163.487 63.3067 163.192 63.7563 162.957C64.2058 162.716 64.5815 162.602 64.8835 162.602C64.9506 162.602 65.0445 162.609 65.1586 162.615C65.2726 162.622 65.3867 162.655 65.5075 162.696C65.6215 162.743 65.7289 162.803 65.8228 162.89C65.9168 162.971 65.9637 163.085 65.9637 163.233C65.9637 163.487 65.8497 163.843 65.6148 164.293C65.38 164.742 65.1384 165.185 64.8835 165.614C64.6285 166.044 64.4272 166.42 64.2729 166.728C64.1253 167.037 64.1186 167.198 64.2528 167.198C64.5077 167.198 64.8768 167.03 65.3666 166.701C65.8564 166.373 66.3395 165.997 66.8226 165.588C67.3124 165.172 67.7418 164.796 68.1242 164.447C68.5067 164.098 68.708 163.897 68.7348 163.843C68.8019 163.749 68.9093 163.749 69.0502 163.843C69.1911 163.937 69.2246 164.011 69.1575 164.065C68.9696 164.286 68.6677 164.595 68.2517 164.984C67.8357 165.38 67.3862 165.775 66.8964 166.165C66.4133 166.561 65.9302 166.903 65.4538 167.198C64.9774 167.493 64.5815 167.641 64.2528 167.641C63.3268 167.641 62.8639 167.386 62.8639 166.869C62.8639 166.648 62.9578 166.366 63.139 166.017C63.3268 165.668 63.5214 165.313 63.7294 164.943C63.9374 164.574 64.132 164.226 64.3199 163.897C64.5077 163.568 64.595 163.306 64.595 163.125C64.3199 163.145 63.9508 163.293 63.5013 163.581C63.0517 163.863 62.5687 164.205 62.0587 164.601C61.5488 164.997 61.0456 165.406 60.5491 165.829C60.0525 166.252 59.6164 166.601 59.2474 166.876C59.2004 166.95 59.1132 166.99 58.9857 166.997C58.8582 167.003 58.7374 167.003 58.6234 167.003ZM72.4855 150.209C71.6535 150.209 70.7276 150.565 69.7077 151.269C68.6878 151.974 67.6613 152.906 66.6347 154.06C65.6014 155.214 64.6084 156.53 63.6489 157.999C62.6894 159.468 61.8239 160.971 61.059 162.515C62.5418 161.87 64.0246 161.099 65.5075 160.186C66.9903 159.281 68.3188 158.314 69.5064 157.294C70.6873 156.275 71.6401 155.241 72.3714 154.181C73.1028 153.128 73.4651 152.128 73.4651 151.195C73.4651 150.773 73.3645 150.504 73.1699 150.384C72.9686 150.27 72.7405 150.209 72.4855 150.209Z" fill="white"/>
<path d="M70.6403 163.454C70.4994 163.602 70.3384 163.816 70.1505 164.098C69.9627 164.38 69.7949 164.675 69.6473 164.977C69.4997 165.279 69.3722 165.561 69.2649 165.816C69.1575 166.071 69.1105 166.259 69.1105 166.366C69.3856 166.185 69.7815 165.883 70.2914 165.474C70.8014 165.058 71.3448 164.642 71.9219 164.205C72.4989 163.776 73.0625 163.394 73.606 163.065C74.1495 162.736 74.599 162.568 74.9412 162.568C75.0083 162.568 75.1022 162.575 75.2163 162.582C75.3304 162.588 75.4511 162.622 75.5786 162.662C75.7061 162.709 75.8068 162.77 75.8738 162.857C75.9409 162.937 75.9544 163.051 75.9074 163.199C75.8873 163.326 75.7866 163.541 75.6122 163.83C75.4377 164.125 75.2499 164.434 75.0419 164.769C74.8339 165.105 74.646 165.42 74.485 165.735C74.3239 166.051 74.2166 166.279 74.1696 166.426C74.1226 166.554 74.0958 166.708 74.0824 166.896C74.069 167.077 74.1428 167.171 74.3105 167.171C74.5655 167.171 74.9345 167.003 75.4243 166.675C75.9074 166.346 76.3972 165.97 76.8803 165.561C77.3634 165.145 77.7995 164.769 78.182 164.42C78.5644 164.071 78.7657 163.87 78.7925 163.816C78.8596 163.722 78.967 163.722 79.1079 163.816C79.2488 163.91 79.2823 163.984 79.2152 164.038C79.0274 164.259 78.7322 164.568 78.3094 164.957C77.8935 165.353 77.4439 165.749 76.9541 166.138C76.4643 166.534 75.9879 166.876 75.5115 167.171C75.0351 167.466 74.6393 167.614 74.3105 167.614C73.8677 167.614 73.5188 167.52 73.2504 167.339C72.982 167.158 72.8612 166.923 72.8881 166.648C72.9082 166.279 73.0223 165.896 73.2168 165.494C73.4114 165.091 73.6194 164.715 73.8274 164.366C74.0354 164.018 74.23 163.729 74.3977 163.501C74.5722 163.273 74.6594 163.139 74.6594 163.105C74.3843 163.125 74.022 163.273 73.5792 163.548C73.1363 163.823 72.6666 164.152 72.1567 164.541C71.6468 164.923 71.1436 165.319 70.647 165.708C70.1505 166.104 69.701 166.44 69.3118 166.715C69.124 166.822 68.9495 166.883 68.7885 166.883C68.5335 166.883 68.2987 166.795 68.0773 166.621C67.8558 166.446 67.7619 166.252 67.782 166.03C67.8022 165.809 67.9028 165.527 68.0773 165.178C68.2517 164.829 68.4463 164.487 68.6677 164.158C68.8891 163.83 69.1105 163.541 69.3252 163.306C69.5467 163.065 69.7144 162.951 69.8285 162.951C70.1505 162.951 70.3854 163.018 70.5263 163.145C70.6806 163.253 70.7141 163.36 70.6403 163.454Z" fill="white"/>
<path d="M79.2958 167.003C78.8127 167.003 78.4302 166.883 78.1484 166.648C77.8733 166.406 77.7526 166.091 77.7995 165.682C77.8197 165.406 77.9069 165.125 78.0612 164.829C78.2088 164.534 78.3967 164.273 78.6181 164.031C78.8395 163.789 79.0878 163.595 79.3629 163.441C79.638 163.286 79.9198 163.206 80.1949 163.206C80.423 163.206 80.6109 163.259 80.7518 163.373C80.8189 163.226 81.0269 163.152 81.3758 163.152C81.7918 163.152 82.1071 163.273 82.3151 163.521C82.5231 163.769 82.5902 164.098 82.5231 164.501C82.5231 164.574 82.5097 164.642 82.4896 164.695C82.4694 164.749 82.4426 164.816 82.4225 164.89C82.6976 165.071 83.0599 165.165 83.5027 165.165C84.0596 165.165 84.536 165.098 84.9453 164.97C85.3479 164.843 85.7035 164.689 86.0054 164.514C86.3073 164.34 86.5489 164.158 86.7368 163.977C86.9246 163.796 87.0722 163.649 87.1863 163.535C87.2802 163.441 87.3742 163.441 87.4614 163.535C87.5553 163.628 87.5688 163.716 87.495 163.81C87.448 163.863 87.3406 163.991 87.1662 164.179C86.9917 164.373 86.7368 164.568 86.4013 164.769C86.0658 164.97 85.6565 165.152 85.1868 165.319C84.7105 165.487 84.1401 165.568 83.4692 165.568C83.0263 165.568 82.6036 165.494 82.1809 165.346C81.9259 165.789 81.5435 166.171 81.0336 166.5C80.5236 166.842 79.9399 167.003 79.2958 167.003ZM81.4496 164.917C81.1946 164.715 81 164.501 80.8793 164.286C80.7518 164.065 80.678 163.883 80.6511 163.736C80.2821 163.937 79.96 164.199 79.6983 164.521C79.43 164.843 79.2354 165.152 79.1079 165.46C78.9804 165.762 78.9469 166.024 79.0006 166.245C79.0609 166.467 79.2018 166.574 79.4367 166.574C79.6245 166.574 79.9265 166.467 80.3559 166.259C80.7853 166.037 81.1476 165.594 81.4496 164.917ZM81.6576 164.031C81.6777 163.863 81.671 163.783 81.624 163.783C81.5972 163.783 81.6106 163.87 81.6576 164.031Z" fill="white"/>
<path d="M89.0247 163.508C88.7228 164.373 88.5618 165.185 88.5416 165.957C88.5215 166.453 88.6222 166.869 88.857 167.211C89.0851 167.554 89.4474 167.721 89.9372 167.721C90.4941 167.721 91.1316 167.607 91.8495 167.379C92.5674 167.151 93.2921 166.849 94.0234 166.487C94.7548 166.118 95.466 165.702 96.1571 165.232C96.8482 164.762 97.452 164.279 97.962 163.789C98.0559 163.695 98.1633 163.695 98.2907 163.789C98.4182 163.883 98.4384 163.971 98.3444 164.065C97.7875 164.581 97.1568 165.084 96.4523 165.581C95.7478 166.077 95.0097 166.527 94.2448 166.93C93.4799 167.332 92.715 167.661 91.9501 167.909C91.1852 168.157 90.4673 168.278 89.7963 168.278C89.5414 168.278 89.2462 168.258 88.9107 168.211C88.5752 168.164 88.2531 168.057 87.9378 167.896C87.6224 167.735 87.354 167.493 87.1192 167.178C86.8911 166.869 86.7703 166.453 86.7703 165.936C86.7502 164.964 86.985 163.87 87.4815 162.649C87.978 161.428 88.649 160.186 89.4944 158.932C90.3398 157.677 91.306 156.442 92.393 155.241C93.4799 154.04 94.6139 152.973 95.7813 152.048C96.9488 151.122 98.123 150.37 99.2905 149.807C100.458 149.236 101.531 148.954 102.504 148.954C103.175 148.954 103.712 149.095 104.121 149.384C104.524 149.666 104.732 150.088 104.732 150.639C104.732 151.41 104.323 152.316 103.497 153.349C102.672 154.389 101.552 155.476 100.129 156.61C98.7067 157.751 97.036 158.912 95.1238 160.106C93.2115 161.287 91.1785 162.427 89.0247 163.508ZM89.2663 162.823C91.3731 161.743 93.3256 160.643 95.1238 159.522C96.9153 158.402 98.4786 157.308 99.7937 156.234C101.115 155.161 102.149 154.141 102.9 153.181C103.652 152.215 104.027 151.37 104.027 150.632C104.027 150.357 103.96 150.129 103.819 149.954C103.679 149.78 103.471 149.692 103.195 149.692C102.712 149.672 102.082 149.84 101.317 150.189C100.552 150.538 99.7266 151.028 98.8342 151.645C97.9418 152.269 97.0226 153 96.0698 153.846C95.1171 154.691 94.2113 155.604 93.339 156.583C92.4735 157.563 91.675 158.589 90.9571 159.656C90.2526 160.723 89.6823 161.777 89.2663 162.823Z" fill="white"/>
<path d="M98.6128 167.003C98.1297 167.003 97.7473 166.883 97.4655 166.648C97.1904 166.406 97.0696 166.091 97.1166 165.682C97.1367 165.406 97.2239 165.125 97.3782 164.829C97.5258 164.534 97.7137 164.273 97.9351 164.031C98.1565 163.789 98.4048 163.595 98.6799 163.441C98.955 163.286 99.2368 163.206 99.5119 163.206C99.74 163.206 99.9279 163.259 100.069 163.373C100.136 163.226 100.344 163.152 100.693 163.152C101.109 163.152 101.424 163.273 101.632 163.521C101.84 163.769 101.907 164.098 101.84 164.501C101.84 164.574 101.827 164.642 101.807 164.695C101.786 164.749 101.76 164.816 101.739 164.89C102.015 165.071 102.377 165.165 102.82 165.165C103.377 165.165 103.853 165.098 104.262 164.97C104.665 164.843 105.021 164.689 105.322 164.514C105.624 164.34 105.866 164.158 106.054 163.977C106.242 163.796 106.389 163.649 106.503 163.535C106.597 163.441 106.691 163.441 106.778 163.535C106.872 163.628 106.886 163.716 106.812 163.81C106.765 163.863 106.658 163.991 106.483 164.179C106.309 164.373 106.054 164.568 105.718 164.769C105.383 164.97 104.974 165.152 104.504 165.319C104.027 165.487 103.457 165.568 102.786 165.568C102.343 165.568 101.921 165.494 101.498 165.346C101.243 165.789 100.861 166.171 100.351 166.5C99.8407 166.842 99.2636 167.003 98.6128 167.003ZM100.767 164.917C100.512 164.715 100.317 164.501 100.196 164.286C100.069 164.065 99.995 163.883 99.9682 163.736C99.5991 163.937 99.2771 164.199 99.0154 164.521C98.747 164.843 98.5524 165.152 98.4249 165.46C98.2975 165.762 98.2639 166.024 98.3176 166.245C98.378 166.467 98.5189 166.574 98.7537 166.574C98.9416 166.574 99.2435 166.467 99.6729 166.259C100.102 166.037 100.465 165.594 100.767 164.917ZM100.975 164.031C100.995 163.863 100.988 163.783 100.941 163.783C100.914 163.783 100.928 163.87 100.975 164.031Z" fill="white"/>
<path d="M101.565 173.31C101.612 172.794 101.773 172.304 102.055 171.821C102.33 171.344 102.779 170.861 103.39 170.378C104.007 169.888 104.813 169.392 105.806 168.875C106.799 168.359 108.026 167.808 109.489 167.225C109.556 166.822 109.617 166.42 109.664 166.01C109.711 165.608 109.731 165.192 109.731 164.769C109.543 164.99 109.328 165.225 109.087 165.487C108.845 165.742 108.57 165.977 108.268 166.191C107.966 166.399 107.651 166.574 107.315 166.701C106.98 166.829 106.624 166.883 106.255 166.869C105.792 166.836 105.443 166.708 105.215 166.5C104.987 166.292 104.893 166.01 104.94 165.661C104.987 165.279 105.128 164.917 105.376 164.574C105.618 164.232 105.92 163.937 106.282 163.682C106.638 163.427 107.033 163.226 107.463 163.078C107.892 162.931 108.328 162.87 108.764 162.884C109.04 162.904 109.288 162.957 109.496 163.051C109.704 163.145 109.865 163.253 109.986 163.38C110.127 163.306 110.274 163.273 110.435 163.273C110.69 163.293 110.871 163.34 110.972 163.427C111.079 163.508 111.126 163.595 111.126 163.689C111.173 164.058 111.187 164.487 111.18 164.984C111.167 165.48 111.113 166.024 111.026 166.607C111.468 166.386 111.918 166.138 112.381 165.849C112.844 165.567 113.273 165.279 113.669 164.984C114.065 164.688 114.421 164.413 114.749 164.145C115.072 163.877 115.32 163.655 115.481 163.467C115.595 163.34 115.716 163.333 115.843 163.454C115.971 163.575 115.991 163.669 115.897 163.742C115.32 164.333 114.595 164.937 113.723 165.574C112.851 166.212 111.931 166.735 110.959 167.158C110.798 168.097 110.549 169.063 110.214 170.063C109.878 171.063 109.429 171.968 108.858 172.787C108.288 173.606 107.61 174.263 106.805 174.753C106 175.243 105.061 175.471 103.974 175.41C103.189 175.37 102.578 175.162 102.149 174.78C101.713 174.384 101.518 173.901 101.565 173.31ZM102.363 173.337C102.317 173.76 102.431 174.109 102.692 174.384C102.961 174.659 103.289 174.813 103.685 174.854C104.336 174.887 104.96 174.719 105.564 174.344C106.168 173.968 106.718 173.451 107.215 172.8C107.711 172.15 108.147 171.385 108.516 170.512C108.885 169.64 109.174 168.721 109.382 167.748C108.107 168.278 107.033 168.775 106.148 169.238C105.269 169.694 104.558 170.15 104.014 170.6C103.471 171.049 103.068 171.492 102.813 171.935C102.565 172.378 102.41 172.841 102.363 173.337ZM109.731 164.031C109.731 163.997 109.724 163.964 109.711 163.937C109.697 163.91 109.704 163.877 109.731 163.843C109.684 163.749 109.617 163.662 109.523 163.581C109.429 163.501 109.315 163.447 109.174 163.427C108.919 163.407 108.61 163.481 108.255 163.635C107.892 163.789 107.557 163.997 107.228 164.252C106.906 164.507 106.624 164.789 106.396 165.091C106.161 165.393 106.034 165.695 106.014 165.983C106.014 166.077 106.034 166.171 106.067 166.272C106.101 166.373 106.188 166.433 106.329 166.453C106.792 166.493 107.342 166.272 107.979 165.809C108.61 165.339 109.201 164.749 109.731 164.031Z" fill="white"/>
<path d="M116.991 163.454C116.876 163.581 116.709 163.823 116.487 164.172C116.266 164.521 116.085 164.876 115.93 165.232C115.783 165.588 115.709 165.903 115.722 166.171C115.736 166.44 115.91 166.56 116.259 166.54C116.581 166.52 116.957 166.386 117.386 166.124C117.816 165.869 118.218 165.574 118.601 165.245C118.983 164.917 119.319 164.601 119.607 164.306C119.896 164.011 120.077 163.83 120.144 163.756C120.258 163.662 120.372 163.649 120.493 163.716C120.607 163.783 120.634 163.857 120.56 163.95C120.372 164.132 120.117 164.393 119.795 164.735C119.473 165.078 119.111 165.406 118.715 165.729C118.319 166.051 117.896 166.332 117.447 166.581C116.997 166.829 116.548 166.97 116.112 167.01C115.669 167.044 115.273 166.99 114.911 166.829C114.555 166.675 114.36 166.373 114.34 165.936C114.34 165.695 114.407 165.406 114.528 165.071C114.656 164.729 114.81 164.4 114.998 164.078C115.186 163.756 115.373 163.481 115.568 163.253C115.763 163.025 115.93 162.91 116.071 162.91C116.346 162.877 116.595 162.931 116.803 163.092C117.031 163.239 117.084 163.36 116.991 163.454ZM116.507 162.078C116.507 161.73 116.729 161.555 117.165 161.555C117.608 161.555 117.822 161.73 117.822 162.078C117.822 162.427 117.601 162.602 117.165 162.602C116.729 162.602 116.507 162.427 116.507 162.078Z" fill="white"/>
<path d="M120.607 165.353C120.587 165.46 120.573 165.594 120.573 165.735C120.573 165.883 120.594 166.017 120.641 166.151C120.688 166.279 120.775 166.393 120.902 166.48C121.03 166.574 121.211 166.621 121.439 166.621C121.788 166.621 122.184 166.54 122.64 166.373C123.09 166.205 123.546 165.997 123.995 165.742C124.445 165.487 124.874 165.198 125.284 164.876C125.686 164.554 126.028 164.239 126.31 163.924C126.404 163.83 126.505 163.816 126.626 163.883C126.74 163.95 126.766 164.024 126.693 164.118C126.673 164.172 126.491 164.36 126.156 164.668C125.82 164.984 125.404 165.306 124.908 165.648C124.411 165.99 123.854 166.299 123.237 166.587C122.62 166.869 122.016 167.017 121.412 167.017C120.761 167.017 120.251 166.883 119.869 166.621C119.486 166.353 119.299 166.004 119.299 165.561C119.299 165.232 119.386 164.903 119.56 164.581C119.735 164.259 119.963 163.977 120.238 163.742C120.513 163.501 120.835 163.313 121.191 163.165C121.546 163.018 121.929 162.944 122.318 162.944C122.667 162.944 122.962 163.011 123.204 163.152C123.445 163.293 123.566 163.521 123.566 163.857C123.566 164.024 123.506 164.199 123.391 164.38C123.277 164.561 123.116 164.736 122.902 164.89C122.694 165.044 122.439 165.178 122.137 165.286C121.835 165.393 121.486 165.453 121.097 165.453C121.003 165.453 120.916 165.447 120.835 165.427C120.748 165.393 120.674 165.373 120.607 165.353ZM120.708 165.078C120.755 165.098 120.835 165.105 120.949 165.105C121.157 165.105 121.372 165.064 121.593 164.984C121.815 164.903 122.023 164.789 122.217 164.642C122.412 164.494 122.573 164.326 122.687 164.132C122.801 163.937 122.861 163.742 122.861 163.541C122.861 163.447 122.801 163.4 122.687 163.4C122.62 163.4 122.499 163.42 122.338 163.454C122.177 163.494 122.003 163.561 121.815 163.675C121.627 163.783 121.439 163.95 121.244 164.172C121.05 164.393 120.869 164.695 120.708 165.078Z" fill="white"/>
<path d="M127.417 165.521C127.229 165.138 127.001 164.715 126.719 164.252C126.444 163.796 126.29 163.407 126.27 163.098C126.25 162.696 126.384 162.401 126.686 162.219C126.988 162.038 127.337 161.944 127.726 161.944C128.122 161.944 128.404 162.018 128.578 162.166C128.752 162.313 128.853 162.488 128.873 162.689C128.873 162.709 128.867 162.763 128.853 162.857C128.84 162.951 128.799 163.051 128.732 163.159C128.665 163.266 128.551 163.38 128.404 163.487C128.256 163.595 128.041 163.689 127.759 163.763C127.9 164.058 128.048 164.319 128.209 164.561C128.37 164.803 128.511 165.051 128.625 165.306C129.551 165.125 130.255 164.876 130.745 164.574C131.228 164.273 131.611 164.018 131.893 163.816C132.007 163.722 132.121 163.729 132.221 163.83C132.329 163.93 132.322 164.024 132.201 164.118C131.946 164.319 131.55 164.574 131.02 164.876C130.49 165.178 129.732 165.433 128.759 165.635C128.826 165.856 128.867 166.104 128.867 166.379C128.887 166.654 128.84 166.896 128.712 167.111C128.585 167.319 128.41 167.5 128.189 167.647C127.967 167.795 127.726 167.902 127.458 167.976C127.189 168.05 126.921 168.084 126.639 168.084C125.572 168.084 125.062 167.735 125.109 167.037C125.109 166.909 125.136 166.775 125.196 166.641C125.257 166.5 125.364 166.373 125.525 166.238C125.686 166.111 125.921 165.983 126.223 165.869C126.532 165.742 126.927 165.628 127.417 165.521ZM127.592 165.876C126.807 166.057 126.303 166.259 126.082 166.467C125.861 166.675 125.773 166.883 125.82 167.084C125.867 167.453 126.089 167.627 126.478 167.607C126.666 167.587 126.901 167.46 127.189 167.225C127.478 166.983 127.625 166.634 127.625 166.178C127.625 166.051 127.612 165.95 127.592 165.876ZM127.625 163.4C128.115 163.219 128.357 162.998 128.357 162.743C128.357 162.521 128.229 162.414 127.974 162.414C127.86 162.414 127.739 162.454 127.612 162.535C127.484 162.615 127.444 162.776 127.491 163.018C127.538 163.092 127.565 163.159 127.578 163.226C127.585 163.286 127.598 163.347 127.625 163.4Z" fill="white"/>
<path d="M145.272 151.504C145.225 151.471 145.131 151.457 144.997 151.477C144.976 151.477 144.882 151.518 144.721 151.598C144.56 151.679 144.393 151.813 144.218 151.994C144.044 152.175 143.889 152.423 143.749 152.739C143.608 153.054 143.541 153.443 143.541 153.92C143.541 154.067 143.601 154.295 143.728 154.611C143.856 154.926 144.104 155.228 144.473 155.516C145.211 154.617 146.03 153.765 146.922 152.953C147.815 152.148 148.754 151.437 149.734 150.833C150.72 150.229 151.733 149.753 152.773 149.404C153.813 149.055 154.846 148.881 155.866 148.881C156.819 148.881 157.57 149.042 158.127 149.364C158.684 149.686 158.959 150.202 158.959 150.92C158.959 151.578 158.657 152.262 158.053 152.973C157.45 153.678 156.638 154.329 155.625 154.913C154.605 155.503 153.431 155.979 152.095 156.355C150.76 156.731 149.365 156.919 147.909 156.919C147.123 156.919 146.412 156.838 145.788 156.671C144.956 157.737 144.285 158.831 143.775 159.958C143.265 161.085 143.01 162.186 143.01 163.246C143.01 164.662 143.48 165.755 144.42 166.534C145.359 167.312 146.593 167.701 148.123 167.701C148.613 167.701 149.163 167.634 149.794 167.493C150.425 167.352 151.075 167.124 151.76 166.802C152.444 166.48 153.135 166.044 153.847 165.494C154.551 164.943 155.222 164.252 155.846 163.427C155.94 163.32 156.061 163.3 156.208 163.373C156.356 163.447 156.389 163.541 156.296 163.649C156.249 163.702 156.034 163.971 155.651 164.447C155.269 164.923 154.719 165.44 154.001 165.99C153.283 166.54 152.411 167.044 151.398 167.493C150.378 167.943 149.217 168.171 147.922 168.171C146.902 168.171 145.976 168.05 145.144 167.802C144.312 167.554 143.601 167.205 143.01 166.755C142.42 166.306 141.964 165.762 141.635 165.118C141.313 164.474 141.145 163.769 141.145 162.998C141.145 161.951 141.414 160.817 141.944 159.596C142.474 158.375 143.192 157.167 144.097 155.973C143.172 155.382 142.709 154.577 142.709 153.551C142.709 153.168 142.782 152.819 142.937 152.504C143.084 152.195 143.265 151.913 143.473 151.679C143.681 151.437 143.916 151.256 144.171 151.128C144.426 151.001 144.661 150.934 144.869 150.934C145.238 150.934 145.426 151.061 145.426 151.316C145.426 151.39 145.406 151.437 145.372 151.471C145.325 151.518 145.298 151.524 145.272 151.504ZM146.177 156.268C146.406 156.308 146.647 156.335 146.889 156.362C147.13 156.389 147.405 156.402 147.707 156.402C149.002 156.402 150.277 156.234 151.532 155.906C152.78 155.577 153.894 155.141 154.866 154.597C155.839 154.054 156.624 153.443 157.228 152.766C157.832 152.088 158.134 151.41 158.134 150.726C158.134 150.357 157.98 150.095 157.664 149.941C157.349 149.786 157.081 149.706 156.846 149.706C156.101 149.686 155.276 149.847 154.363 150.189C153.451 150.531 152.511 150.994 151.552 151.591C150.592 152.188 149.646 152.886 148.72 153.685C147.788 154.497 146.942 155.349 146.177 156.268Z" fill="white"/>
<path d="M156.148 167.003C155.658 167.003 155.282 166.883 155.001 166.648C154.726 166.406 154.605 166.091 154.652 165.682C154.672 165.406 154.759 165.125 154.913 164.829C155.061 164.534 155.249 164.273 155.47 164.031C155.692 163.789 155.94 163.595 156.215 163.441C156.49 163.286 156.772 163.206 157.047 163.206C157.275 163.206 157.463 163.259 157.604 163.373C157.671 163.226 157.879 163.152 158.228 163.152C158.644 163.152 158.959 163.273 159.167 163.521C159.375 163.769 159.442 164.098 159.375 164.501C159.375 164.574 159.362 164.642 159.342 164.695C159.322 164.749 159.295 164.816 159.275 164.89C159.55 165.071 159.912 165.165 160.355 165.165C160.912 165.165 161.388 165.098 161.797 164.97C162.2 164.843 162.556 164.689 162.858 164.514C163.16 164.34 163.401 164.158 163.589 163.977C163.777 163.796 163.924 163.649 164.038 163.535C164.132 163.441 164.226 163.441 164.314 163.535C164.408 163.628 164.421 163.716 164.347 163.81C164.3 163.863 164.193 163.991 164.018 164.179C163.844 164.373 163.589 164.568 163.253 164.769C162.918 164.97 162.509 165.152 162.039 165.319C161.563 165.487 160.992 165.568 160.321 165.568C159.879 165.568 159.456 165.494 159.033 165.346C158.778 165.789 158.396 166.171 157.886 166.5C157.376 166.842 156.799 167.003 156.148 167.003ZM158.302 164.917C158.047 164.715 157.852 164.501 157.731 164.286C157.604 164.065 157.53 163.883 157.503 163.736C157.134 163.937 156.812 164.199 156.551 164.521C156.282 164.843 156.088 165.152 155.96 165.46C155.833 165.762 155.799 166.024 155.853 166.245C155.913 166.467 156.054 166.574 156.289 166.574C156.477 166.574 156.779 166.467 157.208 166.259C157.637 166.037 158 165.594 158.302 164.917ZM158.51 164.031C158.53 163.863 158.523 163.783 158.476 163.783C158.456 163.783 158.463 163.87 158.51 164.031Z" fill="white"/>
<path d="M171.399 164.058C171.352 164.098 171.225 164.212 171.017 164.4C170.809 164.588 170.554 164.816 170.252 165.058C169.95 165.306 169.607 165.574 169.225 165.856C168.843 166.138 168.46 166.406 168.078 166.654C167.695 166.903 167.326 167.104 166.964 167.258C166.602 167.413 166.286 167.493 166.011 167.493C165.642 167.493 165.34 167.426 165.105 167.299C164.87 167.171 164.756 166.956 164.756 166.668C164.756 166.426 164.817 166.185 164.931 165.937C165.045 165.688 165.172 165.453 165.313 165.219C165.454 164.99 165.588 164.782 165.716 164.601C165.843 164.42 165.917 164.279 165.944 164.185C165.944 164.152 165.83 164.132 165.595 164.145C165.36 164.152 165.072 164.158 164.73 164.158C164.059 164.158 163.723 163.89 163.723 163.36C163.723 163.118 163.817 162.864 163.998 162.588C164.186 162.313 164.441 162.172 164.763 162.172C164.951 162.172 165.132 162.213 165.32 162.28C165.508 162.354 165.595 162.461 165.595 162.609C165.595 162.81 165.515 162.998 165.354 163.172C165.193 163.347 165.038 163.508 164.904 163.655L166.118 163.628C166.441 163.608 166.722 163.675 166.95 163.823C167.179 163.971 167.239 164.165 167.125 164.4C167.078 164.528 167.011 164.675 166.917 164.843C166.823 165.011 166.729 165.172 166.642 165.326C166.548 165.48 166.461 165.621 166.38 165.755C166.3 165.883 166.233 165.977 166.192 166.03C166.004 166.346 165.917 166.587 165.931 166.762C165.944 166.936 166.038 167.023 166.226 167.023C166.501 167.023 166.877 166.883 167.34 166.607C167.803 166.332 168.279 166.01 168.762 165.641C169.252 165.272 169.701 164.91 170.117 164.554C170.533 164.199 170.835 163.937 171.023 163.769C171.07 163.716 171.171 163.722 171.318 163.796C171.466 163.883 171.493 163.971 171.399 164.058Z" fill="white"/>
<path d="M173.103 163.481C173.103 163.501 173.063 163.602 172.982 163.783C172.902 163.964 172.795 164.226 172.654 164.554C173.372 164.038 174.069 163.635 174.74 163.34C175.411 163.045 176.035 162.897 176.619 162.897C177.129 162.897 177.532 162.991 177.833 163.186C178.135 163.38 178.276 163.649 178.249 163.997C178.229 164.366 178.142 164.702 178.008 165.017C177.867 165.333 177.686 165.635 177.451 165.923C178.149 165.702 178.746 165.467 179.256 165.205C179.766 164.95 180.195 164.702 180.544 164.46C180.893 164.219 181.155 164.018 181.343 163.857C181.53 163.689 181.631 163.602 181.658 163.581C181.752 163.508 181.859 163.508 181.987 163.581C182.114 163.655 182.134 163.736 182.04 163.83C181.437 164.528 180.665 165.084 179.712 165.507C178.759 165.93 177.827 166.272 176.901 166.527C176.532 166.856 176.123 167.158 175.686 167.419C175.244 167.688 174.801 167.909 174.351 168.097C173.902 168.278 173.466 168.426 173.05 168.526C172.634 168.627 172.264 168.681 171.936 168.681C171.493 168.681 171.191 168.614 171.03 168.486C170.775 169.09 170.507 169.707 170.231 170.331C169.956 170.955 169.688 171.559 169.433 172.136C169.178 172.713 168.937 173.257 168.702 173.76C168.474 174.263 168.272 174.699 168.111 175.068C167.581 176.169 167.051 176.974 166.528 177.491C166.004 178.007 165.447 178.262 164.844 178.262C164.448 178.262 164.173 178.141 164.012 177.907C163.851 177.665 163.77 177.383 163.77 177.054C163.77 176.451 163.938 175.739 164.273 174.921C164.609 174.102 165.058 173.243 165.609 172.331C166.165 171.425 166.816 170.499 167.554 169.566C168.299 168.627 169.071 167.748 169.883 166.923C170.091 166.393 170.285 165.903 170.473 165.447C170.661 164.997 170.822 164.608 170.963 164.279C171.124 163.897 171.265 163.548 171.379 163.233C171.446 163.051 171.567 162.951 171.728 162.931C171.889 162.911 172.043 162.904 172.177 162.904C172.573 162.904 172.835 162.964 172.976 163.085C173.103 163.206 173.15 163.333 173.103 163.481ZM169.285 168.352C167.662 170.17 166.441 171.828 165.622 173.337C164.797 174.84 164.374 176.088 164.354 177.081C164.354 177.484 164.495 177.685 164.77 177.685C164.958 177.685 165.172 177.464 165.414 177.028C165.655 176.591 165.978 175.934 166.367 175.075C166.83 174.102 167.319 173.022 167.829 171.828C168.333 170.633 168.822 169.473 169.285 168.352ZM174.459 167.003C174.157 167.037 173.828 167.084 173.466 167.144C173.103 167.198 172.781 167.265 172.493 167.352C172.204 167.433 171.963 167.527 171.761 167.627C171.567 167.728 171.466 167.842 171.466 167.97C171.466 168.117 171.547 168.191 171.708 168.191C172.124 168.191 172.573 168.084 173.043 167.862C173.526 167.641 173.996 167.352 174.459 167.003ZM172.338 165.326C172.224 165.621 172.097 165.93 171.956 166.245C171.815 166.567 171.667 166.909 171.506 167.278C171.734 167.171 172.01 167.07 172.325 166.99C172.64 166.909 172.956 166.836 173.278 166.769C173.6 166.701 173.928 166.648 174.251 166.601C174.573 166.554 174.861 166.514 175.116 166.48C175.693 166.004 176.176 165.514 176.559 165.004C176.941 164.501 177.129 164.118 177.129 163.863C177.129 163.642 177.102 163.501 177.042 163.434C176.981 163.367 176.874 163.34 176.713 163.34C176.666 163.34 176.545 163.333 176.351 163.313C176.156 163.293 175.881 163.333 175.532 163.434C175.183 163.535 174.747 163.729 174.21 164.011C173.68 164.293 173.05 164.742 172.332 165.346V165.326H172.338Z" fill="white"/>
</svg>
