<svg width="341" height="293" viewBox="0 0 341 293" fill="none" xmlns="http://www.w3.org/2000/svg">
<g filter="url(#filter0_f_200_1077)">
<path d="M430.188 71.5455C430.188 71.5455 456.768 74.1421 439.254 59.8526C439.254 59.8526 330.339 -25.8342 205.884 15.0576C205.884 15.0576 132.632 35.1768 85.9617 112.437C85.9617 112.437 78.8356 133.21 62.6263 147.499C62.6263 147.499 -32.02 260.459 19.2007 403.94C19.2007 403.94 54.8478 531.825 201.367 573.387C201.367 573.387 312.875 607.143 416.588 532.495C416.588 532.495 577.359 421.479 507.337 234.51C507.337 234.51 552.719 377.338 456.133 483.797C456.133 483.797 337.499 624.029 158.577 536.382C158.577 536.382 15.9555 466.073 32.8172 292.505C32.8172 292.505 36.0624 258.515 66.5239 197.504C66.5239 197.504 91.164 153.363 154.044 127.397C154.044 127.397 226.007 89.7383 297.302 76.1189C297.302 76.1189 189.691 106.624 89.8593 185.828C89.8593 185.828 69.1167 198.158 102.823 201.408C102.823 201.408 227.295 229.316 312.858 153.363C312.858 153.346 383.517 84.5284 430.188 71.5455Z" fill="white" fill-opacity="0.3"/>
</g>
<defs>
<filter id="filter0_f_200_1077" x="0" y="0" width="529" height="585" filterUnits="userSpaceOnUse" color-interpolation-filters="sRGB">
<feFlood flood-opacity="0" result="BackgroundImageFix"/>
<feBlend mode="normal" in="SourceGraphic" in2="BackgroundImageFix" result="shape"/>
<feGaussianBlur stdDeviation="2" result="effect1_foregroundBlur_200_1077"/>
</filter>
</defs>
</svg>
