<svg width="440" height="956" viewBox="0 0 440 956" fill="none" xmlns="http://www.w3.org/2000/svg">
<g filter="url(#filter0_f_203_2)">
<path d="M529.188 734.546C529.188 734.546 555.768 737.142 538.254 722.853C538.254 722.853 429.339 637.166 304.884 678.058C304.884 678.058 231.632 698.177 184.962 775.437C184.962 775.437 177.836 796.21 161.626 810.499C161.626 810.499 66.98 923.459 118.201 1066.94C118.201 1066.94 153.848 1194.83 300.367 1236.39C300.367 1236.39 411.875 1270.14 515.588 1195.5C515.588 1195.5 676.359 1084.48 606.337 897.51C606.337 897.51 651.719 1040.34 555.133 1146.8C555.133 1146.8 436.499 1287.03 257.577 1199.38C257.577 1199.38 114.956 1129.07 131.817 955.505C131.817 955.505 135.062 921.515 165.524 860.504C165.524 860.504 190.164 816.363 253.044 790.397C253.044 790.397 325.007 752.738 396.302 739.119C396.302 739.119 288.691 769.624 188.859 848.828C188.859 848.828 168.117 861.158 201.823 864.408C201.823 864.408 326.295 892.316 411.858 816.363C411.858 816.346 482.517 747.528 529.188 734.546Z" fill="white" fill-opacity="0.3"/>
</g>
<g filter="url(#filter1_f_203_2)">
<path d="M108.188 -376.454C108.188 -376.454 134.768 -373.858 117.254 -388.147C117.254 -388.147 8.33908 -473.834 -116.116 -432.942C-116.116 -432.942 -189.368 -412.823 -236.038 -335.563C-236.038 -335.563 -243.164 -314.79 -259.374 -300.501C-259.374 -300.501 -354.02 -187.541 -302.799 -44.06C-302.799 -44.06 -267.152 83.8253 -120.633 125.387C-120.633 125.387 -9.12485 159.143 94.5879 84.4954C94.5879 84.4954 255.359 -26.5206 185.337 -213.49C185.337 -213.49 230.719 -70.6623 134.133 35.7971C134.133 35.7971 15.4986 176.029 -163.423 88.3818C-163.423 88.3818 -306.044 18.0734 -289.183 -155.495C-289.183 -155.495 -285.938 -189.485 -255.476 -250.496C-255.476 -250.496 -230.836 -294.637 -167.956 -320.603C-167.956 -320.603 -95.9926 -358.262 -24.6985 -371.881C-24.6985 -371.881 -132.309 -341.376 -232.141 -262.172C-232.141 -262.172 -252.883 -249.842 -219.177 -246.592C-219.177 -246.592 -94.7046 -218.684 -9.14154 -294.637C-9.14154 -294.654 61.5169 -363.472 108.188 -376.454Z" fill="white" fill-opacity="0.3"/>
<path d="M94.1877 -413.454C94.1877 -413.454 120.768 -410.858 103.254 -425.147C103.254 -425.147 -5.66092 -510.834 -130.116 -469.942C-130.116 -469.942 -203.368 -449.823 -250.038 -372.563C-250.038 -372.563 -257.164 -351.79 -273.374 -337.501C-273.374 -337.501 -368.02 -224.541 -316.799 -81.06C-316.799 -81.06 -281.152 46.8253 -134.633 88.3871C-134.633 88.3871 -23.1248 122.143 80.5879 47.4954C80.5879 47.4954 241.359 -63.5206 171.337 -250.49C171.337 -250.49 216.719 -107.662 120.133 -1.20291C120.133 -1.20291 1.49857 139.029 -177.423 51.3818C-177.423 51.3818 -320.044 -18.9266 -303.183 -192.495C-303.183 -192.495 -299.938 -226.485 -269.476 -287.496C-269.476 -287.496 -244.836 -331.637 -181.956 -357.603C-181.956 -357.603 -109.993 -395.262 -38.6985 -408.881C-38.6985 -408.881 -146.309 -378.376 -246.141 -299.172C-246.141 -299.172 -266.883 -286.842 -233.177 -283.592C-233.177 -283.592 -108.705 -255.684 -23.1415 -331.637C-23.1415 -331.654 47.5169 -400.472 94.1877 -413.454Z" fill="white" fill-opacity="0.3"/>
<path d="M67.1877 -450.454C67.1877 -450.454 93.7682 -447.858 76.2542 -462.147C76.2542 -462.147 -32.6609 -547.834 -157.116 -506.942C-157.116 -506.942 -230.368 -486.823 -277.038 -409.563C-277.038 -409.563 -284.164 -388.79 -300.374 -374.501C-300.374 -374.501 -395.02 -261.541 -343.799 -118.06C-343.799 -118.06 -308.152 9.82526 -161.633 51.3871C-161.633 51.3871 -50.1248 85.1426 53.5879 10.4954C53.5879 10.4954 214.359 -100.521 144.337 -287.49C144.337 -287.49 189.719 -144.662 93.1326 -38.2029C93.1326 -38.2029 -25.5014 102.029 -204.423 14.3818C-204.423 14.3818 -347.044 -55.9266 -330.183 -229.495C-330.183 -229.495 -326.938 -263.485 -296.476 -324.496C-296.476 -324.496 -271.836 -368.637 -208.956 -394.603C-208.956 -394.603 -136.993 -432.262 -65.6985 -445.881C-65.6985 -445.881 -173.309 -415.376 -273.141 -336.172C-273.141 -336.172 -293.883 -323.842 -260.177 -320.592C-260.177 -320.592 -135.705 -292.684 -50.1415 -368.637C-50.1415 -368.654 20.5169 -437.472 67.1877 -450.454Z" fill="white" fill-opacity="0.3"/>
</g>
<defs>
<filter id="filter0_f_203_2" x="99" y="663" width="529" height="585" filterUnits="userSpaceOnUse" color-interpolation-filters="sRGB">
<feFlood flood-opacity="0" result="BackgroundImageFix"/>
<feBlend mode="normal" in="SourceGraphic" in2="BackgroundImageFix" result="shape"/>
<feGaussianBlur stdDeviation="2" result="effect1_foregroundBlur_203_2"/>
</filter>
<filter id="filter1_f_203_2" x="-363" y="-522" width="570" height="659" filterUnits="userSpaceOnUse" color-interpolation-filters="sRGB">
<feFlood flood-opacity="0" result="BackgroundImageFix"/>
<feBlend mode="normal" in="SourceGraphic" in2="BackgroundImageFix" result="shape"/>
<feGaussianBlur stdDeviation="2" result="effect1_foregroundBlur_203_2"/>
</filter>
</defs>
</svg>
