<svg width="249" height="204" viewBox="0 0 249 204" fill="none" xmlns="http://www.w3.org/2000/svg">
<path d="M224.347 104.523C224.347 159.199 180.023 203.523 125.347 203.523C70.6707 203.523 26.3469 159.199 26.3469 104.523C26.3469 49.847 70.6707 5.52323 125.347 5.52323C180.023 5.52323 224.347 49.847 224.347 104.523Z" fill="#088B46"/>
<path fill-rule="evenodd" clip-rule="evenodd" d="M227.352 4.3455C227.943 13.7045 213.801 10.1608 217.664 2.726C219.704 -1.20001 225.934 -1.07546 227.352 4.3455Z" fill="#EAB913"/>
<path fill-rule="evenodd" clip-rule="evenodd" d="M206.112 10.917C209.863 16.6808 215.534 7.31636 209.409 6.29264C206.854 5.86602 205.029 8.27583 206.112 10.917Z" fill="#EAB913"/>
<path d="M244.653 24.8017C243.564 27.7495 235.553 48.1126 233.388 48.8232C231.066 46.5321 238.553 26.3601 239.713 23.0513C241.067 19.2551 241.143 16.0897 244.196 17.1841C247.778 17.9474 245.903 21.0641 244.653 24.8017Z" fill="#088B46"/>
<path d="M247.075 44.7004C245.606 46.7417 243.959 48.6387 242.281 50.5119C240.901 52.0206 239.498 53.5051 238.027 54.9129C237.504 55.4883 235.718 57.7133 234.84 57.6623C233.563 57.2096 235.203 53.8742 235.511 53.2376C236.372 51.302 237.471 49.5254 238.617 47.748C239.977 45.6922 241.383 43.6796 242.796 41.6706C244.797 38.8716 244.628 38.3722 246.967 39.6487C249.718 40.9137 249.136 41.613 247.075 44.7004Z" fill="#088B46"/>
<path fill-rule="evenodd" clip-rule="evenodd" d="M21.4777 4.3455C20.887 13.7045 35.0289 10.1608 31.1657 2.726C29.1257 -1.20001 22.8957 -1.07546 21.4777 4.3455Z" fill="#EAB913"/>
<path fill-rule="evenodd" clip-rule="evenodd" d="M42.7175 10.917C38.9672 16.6808 33.2961 7.31636 39.4207 6.29264C41.9763 5.86602 43.8013 8.27583 42.7175 10.917Z" fill="#EAB913"/>
<path d="M4.17649 24.8017C5.26595 27.7495 13.2766 48.1126 15.442 48.8232C17.764 46.5321 10.2771 26.3601 9.1165 23.0513C7.76258 19.2551 7.68709 16.0897 4.63371 17.1841C1.05226 17.9474 2.92665 21.0641 4.17649 24.8017Z" fill="#088B46"/>
<path d="M1.75518 44.7004C3.22374 46.7417 4.87093 48.6387 6.54884 50.5119C7.92886 52.0206 9.3314 53.5051 10.8026 54.9129C11.3259 55.4883 13.1115 57.7133 13.99 57.6623C15.2664 57.2096 13.627 53.8742 13.3188 53.2376C12.458 51.302 11.3593 49.5254 10.2125 47.748C8.85253 45.6922 7.44723 43.6796 6.03343 41.6706C4.03295 38.8716 4.20159 38.3722 1.86277 39.6487C-0.888256 40.9137 -0.306101 41.613 1.75518 44.7004Z" fill="#088B46"/>
<path fill-rule="evenodd" clip-rule="evenodd" d="M65.3667 74.4103C65.361 74.4497 65.361 74.4891 65.361 74.5285C65.3835 84.5126 65.3554 104.172 65.3442 119.527C65.3442 121.181 63.9998 122.525 62.3461 122.525C60.6924 122.52 59.3481 121.181 59.3481 119.522C59.3537 104.177 59.3874 84.5176 59.3649 74.5459C59.3593 72.1553 60.3043 69.8604 61.9974 68.1673C62.1718 67.9929 62.3574 67.8185 62.5486 67.6554C62.588 67.6273 62.6161 67.5992 62.6499 67.571C64.253 66.2548 66.2723 65.5236 68.3649 65.5236H164.348C166.008 65.5236 167.352 66.8679 167.352 68.5272C167.352 70.1808 166.008 71.5252 164.348 71.5252H71.3903C71.3903 71.5252 109.449 101.623 109.476 101.646L123.443 112.694C124.546 113.56 126.104 113.554 127.189 112.671C127.189 112.671 140.824 101.624 140.852 101.601L177.971 71.5249H176.351C174.692 71.5249 173.347 70.1805 173.347 68.5268C173.347 66.8676 174.692 65.5232 176.351 65.5232H182.212C183.928 65.5232 185.531 66.007 186.892 66.8394C186.914 66.8507 186.931 66.8619 186.954 66.8732C189.502 68.4595 191.206 71.2831 191.212 74.5061C191.24 88.2983 191.324 120.692 191.347 134.507C191.353 136.897 190.408 139.192 188.714 140.88C188.45 141.15 188.169 141.397 187.876 141.628C187.837 141.656 187.803 141.684 187.769 141.706C186.211 142.882 184.31 143.523 182.341 143.523H68.3581C63.3913 143.523 59.3582 139.501 59.3526 134.54C59.3469 133.618 59.3469 132.605 59.3469 131.525C59.3469 129.872 60.6913 128.527 62.345 128.527C63.9987 128.522 65.343 129.866 65.3486 131.52V134.529C65.3486 134.94 65.433 135.328 65.5849 135.688L102.844 104.053L65.3667 74.4103ZM142.692 107.833L130.97 117.334C127.702 119.983 123.028 120.011 119.72 117.401L107.643 107.845L72.6907 137.521H179.098L142.692 107.833ZM185.042 73.5219L147.456 103.974L185.329 134.866C185.346 134.748 185.351 134.635 185.351 134.517C185.323 120.702 185.239 88.3144 185.211 74.5224C185.211 74.168 185.149 73.8369 185.042 73.5219Z" fill="white"/>
</svg>
