<svg width="286" height="92" viewBox="0 0 286 92" fill="none" xmlns="http://www.w3.org/2000/svg">
<path d="M6.27441 66.2441C4.67122 66.2441 3.40983 65.6216 2.49023 64.3765C1.57878 63.1313 1.12305 61.4061 1.12305 59.2007C1.12305 56.9627 1.58691 55.2212 2.51465 53.9761C3.45052 52.7228 4.73633 52.0962 6.37207 52.0962C8.08919 52.0962 9.39941 52.7635 10.3027 54.0981H10.4248C10.2376 53.0809 10.144 52.1735 10.144 51.376V47.0059H13.8794V66H11.0229L10.3027 64.23H10.144C9.29769 65.5728 8.00781 66.2441 6.27441 66.2441ZM7.58057 63.2778C8.53271 63.2778 9.22852 63.0011 9.66797 62.4478C10.1156 61.8944 10.3597 60.9544 10.4004 59.6279V59.2251C10.4004 57.7603 10.1725 56.7104 9.7168 56.0757C9.26921 55.4409 8.53678 55.1235 7.51953 55.1235C6.68945 55.1235 6.04248 55.4775 5.57861 56.1855C5.12288 56.8854 4.89502 57.9067 4.89502 59.2495C4.89502 60.5923 5.12695 61.6014 5.59082 62.2769C6.05469 62.9442 6.71794 63.2778 7.58057 63.2778ZM23.4253 54.7451C22.6359 54.7451 22.0174 54.9974 21.5698 55.502C21.1222 55.9984 20.8659 56.7064 20.8008 57.626H26.0254C26.0091 56.7064 25.769 55.9984 25.3052 55.502C24.8413 54.9974 24.2147 54.7451 23.4253 54.7451ZM23.9502 66.2441C21.7529 66.2441 20.0358 65.6379 18.7988 64.4253C17.5618 63.2127 16.9434 61.4956 16.9434 59.2739C16.9434 56.9871 17.513 55.2212 18.6523 53.9761C19.7998 52.7228 21.3826 52.0962 23.4009 52.0962C25.3296 52.0962 26.8311 52.6455 27.9053 53.7441C28.9795 54.8428 29.5166 56.3605 29.5166 58.2974V60.104H20.7153C20.756 61.1619 21.0693 61.988 21.6553 62.582C22.2412 63.1761 23.0632 63.4731 24.1211 63.4731C24.943 63.4731 25.7202 63.3877 26.4526 63.2168C27.1851 63.0459 27.95 62.7733 28.7476 62.3989V65.2798C28.0965 65.6053 27.4007 65.8454 26.6602 66C25.9196 66.1628 25.0163 66.2441 23.9502 66.2441ZM36.2671 66H32.5439V47.0059H36.2671V66ZM40.0269 48.8247C40.0269 47.6121 40.7023 47.0059 42.0532 47.0059C43.4041 47.0059 44.0796 47.6121 44.0796 48.8247C44.0796 49.4025 43.9087 49.8542 43.5669 50.1797C43.2332 50.4971 42.7287 50.6558 42.0532 50.6558C40.7023 50.6558 40.0269 50.0454 40.0269 48.8247ZM43.9087 66H40.1855V52.3525H43.9087V66ZM51.0742 66L45.874 52.3525H49.7681L52.4048 60.1284C52.6978 61.1131 52.8809 62.0449 52.9541 62.9238H53.0273C53.068 62.1426 53.2511 61.2108 53.5767 60.1284L56.2012 52.3525H60.0952L54.895 66H51.0742ZM67.7124 54.7451C66.923 54.7451 66.3045 54.9974 65.8569 55.502C65.4093 55.9984 65.153 56.7064 65.0879 57.626H70.3125C70.2962 56.7064 70.0562 55.9984 69.5923 55.502C69.1284 54.9974 68.5018 54.7451 67.7124 54.7451ZM68.2373 66.2441C66.04 66.2441 64.3229 65.6379 63.0859 64.4253C61.849 63.2127 61.2305 61.4956 61.2305 59.2739C61.2305 56.9871 61.8001 55.2212 62.9395 53.9761C64.0869 52.7228 65.6698 52.0962 67.688 52.0962C69.6167 52.0962 71.1182 52.6455 72.1924 53.7441C73.2666 54.8428 73.8037 56.3605 73.8037 58.2974V60.104H65.0024C65.0431 61.1619 65.3564 61.988 65.9424 62.582C66.5283 63.1761 67.3503 63.4731 68.4082 63.4731C69.2301 63.4731 70.0073 63.3877 70.7397 63.2168C71.4722 63.0459 72.2371 62.7733 73.0347 62.3989V65.2798C72.3836 65.6053 71.6878 65.8454 70.9473 66C70.2067 66.1628 69.3034 66.2441 68.2373 66.2441ZM84.4482 52.0962C84.9528 52.0962 85.3719 52.1328 85.7056 52.2061L85.4248 55.6973C85.1237 55.6159 84.7575 55.5752 84.3262 55.5752C83.138 55.5752 82.2103 55.8804 81.543 56.4907C80.8838 57.1011 80.5542 57.9556 80.5542 59.0542V66H76.8311V52.3525H79.6509L80.2002 54.6475H80.3833C80.8065 53.8825 81.3761 53.2681 82.0923 52.8042C82.8166 52.3322 83.6019 52.0962 84.4482 52.0962ZM93.8354 54.7451C93.0461 54.7451 92.4276 54.9974 91.98 55.502C91.5324 55.9984 91.276 56.7064 91.2109 57.626H96.4355C96.4193 56.7064 96.1792 55.9984 95.7153 55.502C95.2515 54.9974 94.6248 54.7451 93.8354 54.7451ZM94.3604 66.2441C92.1631 66.2441 90.446 65.6379 89.209 64.4253C87.972 63.2127 87.3535 61.4956 87.3535 59.2739C87.3535 56.9871 87.9232 55.2212 89.0625 53.9761C90.21 52.7228 91.7928 52.0962 93.811 52.0962C95.7397 52.0962 97.2412 52.6455 98.3154 53.7441C99.3896 54.8428 99.9268 56.3605 99.9268 58.2974V60.104H91.1255C91.1662 61.1619 91.4795 61.988 92.0654 62.582C92.6514 63.1761 93.4733 63.4731 94.5312 63.4731C95.3532 63.4731 96.1304 63.3877 96.8628 63.2168C97.5952 63.0459 98.3602 62.7733 99.1577 62.3989V65.2798C98.5067 65.6053 97.8109 65.8454 97.0703 66C96.3298 66.1628 95.4264 66.2441 94.3604 66.2441ZM107.275 66.2441C105.672 66.2441 104.411 65.6216 103.491 64.3765C102.58 63.1313 102.124 61.4061 102.124 59.2007C102.124 56.9627 102.588 55.2212 103.516 53.9761C104.451 52.7228 105.737 52.0962 107.373 52.0962C109.09 52.0962 110.4 52.7635 111.304 54.0981H111.426C111.239 53.0809 111.145 52.1735 111.145 51.376V47.0059H114.88V66H112.024L111.304 64.23H111.145C110.299 65.5728 109.009 66.2441 107.275 66.2441ZM108.582 63.2778C109.534 63.2778 110.229 63.0011 110.669 62.4478C111.117 61.8944 111.361 60.9544 111.401 59.6279V59.2251C111.401 57.7603 111.174 56.7104 110.718 56.0757C110.27 55.4409 109.538 55.1235 108.521 55.1235C107.69 55.1235 107.043 55.4775 106.58 56.1855C106.124 56.8854 105.896 57.9067 105.896 59.2495C105.896 60.5923 106.128 61.6014 106.592 62.2769C107.056 62.9442 107.719 63.2778 108.582 63.2778ZM125.11 48.8247C125.11 47.6121 125.785 47.0059 127.136 47.0059C128.487 47.0059 129.163 47.6121 129.163 48.8247C129.163 49.4025 128.992 49.8542 128.65 50.1797C128.316 50.4971 127.812 50.6558 127.136 50.6558C125.785 50.6558 125.11 50.0454 125.11 48.8247ZM128.992 66H125.269V52.3525H128.992V66ZM145.508 66H141.785V58.0288C141.785 57.0441 141.61 56.3076 141.26 55.8193C140.91 55.3229 140.352 55.0747 139.587 55.0747C138.546 55.0747 137.793 55.4246 137.329 56.1245C136.865 56.8162 136.633 57.9678 136.633 59.5791V66H132.91V52.3525H135.754L136.255 54.0981H136.462C136.877 53.439 137.447 52.9425 138.171 52.6089C138.904 52.2671 139.734 52.0962 140.662 52.0962C142.249 52.0962 143.453 52.5275 144.275 53.3901C145.097 54.2446 145.508 55.4816 145.508 57.1011V66ZM168.054 66H164.331V58.0288C164.331 57.0441 164.164 56.3076 163.831 55.8193C163.505 55.3229 162.988 55.0747 162.28 55.0747C161.328 55.0747 160.636 55.4246 160.205 56.1245C159.774 56.8244 159.558 57.9759 159.558 59.5791V66H155.835V52.3525H158.679L159.18 54.0981H159.387C159.753 53.4715 160.282 52.9832 160.974 52.6333C161.666 52.2752 162.459 52.0962 163.354 52.0962C165.397 52.0962 166.781 52.7635 167.505 54.0981H167.834C168.201 53.4634 168.738 52.971 169.446 52.6211C170.162 52.2712 170.968 52.0962 171.863 52.0962C173.409 52.0962 174.577 52.495 175.366 53.2925C176.164 54.0819 176.562 55.3514 176.562 57.1011V66H172.827V58.0288C172.827 57.0441 172.66 56.3076 172.327 55.8193C172.001 55.3229 171.484 55.0747 170.776 55.0747C169.865 55.0747 169.181 55.4002 168.726 56.0513C168.278 56.7023 168.054 57.7358 168.054 59.1519V66ZM180.237 48.8247C180.237 47.6121 180.912 47.0059 182.263 47.0059C183.614 47.0059 184.29 47.6121 184.29 48.8247C184.29 49.4025 184.119 49.8542 183.777 50.1797C183.443 50.4971 182.939 50.6558 182.263 50.6558C180.912 50.6558 180.237 50.0454 180.237 48.8247ZM184.119 66H180.396V52.3525H184.119V66ZM200.635 66H196.912V58.0288C196.912 57.0441 196.737 56.3076 196.387 55.8193C196.037 55.3229 195.479 55.0747 194.714 55.0747C193.673 55.0747 192.92 55.4246 192.456 56.1245C191.992 56.8162 191.76 57.9678 191.76 59.5791V66H188.037V52.3525H190.881L191.382 54.0981H191.589C192.004 53.439 192.574 52.9425 193.298 52.6089C194.031 52.2671 194.861 52.0962 195.789 52.0962C197.375 52.0962 198.58 52.5275 199.402 53.3901C200.224 54.2446 200.635 55.4816 200.635 57.1011V66ZM214.136 66L213.635 64.2544H213.44C213.041 64.8892 212.476 65.3815 211.743 65.7314C211.011 66.0732 210.177 66.2441 209.241 66.2441C207.638 66.2441 206.429 65.8169 205.615 64.9624C204.801 64.0998 204.395 62.8628 204.395 61.2515V52.3525H208.118V60.3237C208.118 61.3084 208.293 62.049 208.643 62.5454C208.993 63.0337 209.55 63.2778 210.315 63.2778C211.357 63.2778 212.109 62.932 212.573 62.2402C213.037 61.5404 213.269 60.3848 213.269 58.7734V52.3525H216.992V66H214.136ZM226.648 63.2778C227.299 63.2778 228.08 63.1354 228.992 62.8506V65.6216C228.064 66.0366 226.925 66.2441 225.574 66.2441C224.084 66.2441 222.998 65.8698 222.314 65.1211C221.639 64.3643 221.301 63.2331 221.301 61.7275V55.1479H219.519V53.5732L221.57 52.3281L222.644 49.4473H225.024V52.3525H228.845V55.1479H225.024V61.7275C225.024 62.2565 225.171 62.6471 225.464 62.8994C225.765 63.1517 226.16 63.2778 226.648 63.2778ZM237.415 54.7451C236.625 54.7451 236.007 54.9974 235.559 55.502C235.111 55.9984 234.855 56.7064 234.79 57.626H240.015C239.998 56.7064 239.758 55.9984 239.294 55.502C238.831 54.9974 238.204 54.7451 237.415 54.7451ZM237.939 66.2441C235.742 66.2441 234.025 65.6379 232.788 64.4253C231.551 63.2127 230.933 61.4956 230.933 59.2739C230.933 56.9871 231.502 55.2212 232.642 53.9761C233.789 52.7228 235.372 52.0962 237.39 52.0962C239.319 52.0962 240.82 52.6455 241.895 53.7441C242.969 54.8428 243.506 56.3605 243.506 58.2974V60.104H234.705C234.745 61.1619 235.059 61.988 235.645 62.582C236.23 63.1761 237.052 63.4731 238.11 63.4731C238.932 63.4731 239.709 63.3877 240.442 63.2168C241.174 63.0459 241.939 62.7733 242.737 62.3989V65.2798C242.086 65.6053 241.39 65.8454 240.649 66C239.909 66.1628 239.006 66.2441 237.939 66.2441ZM256.055 61.9473C256.055 63.347 255.566 64.4131 254.59 65.1455C253.621 65.8779 252.169 66.2441 250.232 66.2441C249.239 66.2441 248.393 66.175 247.693 66.0366C246.993 65.9064 246.338 65.7111 245.728 65.4507V62.3745C246.419 62.7 247.196 62.9727 248.059 63.1924C248.93 63.4121 249.695 63.522 250.354 63.522C251.705 63.522 252.38 63.1313 252.38 62.3501C252.38 62.0571 252.291 61.8211 252.112 61.6421C251.933 61.4549 251.624 61.2474 251.184 61.0195C250.745 60.7835 250.159 60.5109 249.426 60.2017C248.376 59.7622 247.603 59.3553 247.107 58.981C246.619 58.6066 246.261 58.1794 246.033 57.6992C245.813 57.2109 245.703 56.6128 245.703 55.9048C245.703 54.6922 246.171 53.7563 247.107 53.0972C248.051 52.4299 249.386 52.0962 251.111 52.0962C252.755 52.0962 254.354 52.4543 255.908 53.1704L254.785 55.856C254.102 55.563 253.463 55.3229 252.869 55.1357C252.275 54.9486 251.668 54.855 251.05 54.855C249.951 54.855 249.402 55.152 249.402 55.7461C249.402 56.0798 249.577 56.3687 249.927 56.6128C250.285 56.8569 251.062 57.2191 252.258 57.6992C253.324 58.1305 254.106 58.5334 254.602 58.9077C255.098 59.2821 255.465 59.7134 255.701 60.2017C255.937 60.6899 256.055 61.2718 256.055 61.9473Z" fill="#088B46"/>
<path d="M61.5605 28.8418C61.5605 31.166 60.9779 32.9727 59.8125 34.2617C58.6536 35.5508 57.0098 36.1953 54.8809 36.1953C52.7259 36.1953 51.069 35.5573 49.9102 34.2812C48.7578 32.9987 48.1816 31.179 48.1816 28.8223C48.1816 26.4655 48.7611 24.6556 49.9199 23.3926C51.0853 22.1296 52.7454 21.498 54.9004 21.498C57.0228 21.498 58.6634 22.1393 59.8223 23.4219C60.9811 24.7044 61.5605 26.5111 61.5605 28.8418ZM50.6621 28.8418C50.6621 30.5996 51.0169 31.9342 51.7266 32.8457C52.4362 33.7507 53.4876 34.2031 54.8809 34.2031C56.2676 34.2031 57.3125 33.7539 58.0156 32.8555C58.7253 31.957 59.0801 30.6191 59.0801 28.8418C59.0801 27.0905 58.7285 25.7624 58.0254 24.8574C57.3288 23.9525 56.2871 23.5 54.9004 23.5C53.5007 23.5 52.4427 23.9525 51.7266 24.8574C51.0169 25.7624 50.6621 27.0905 50.6621 28.8418ZM69.8613 25.0039C70.3236 25.0039 70.7044 25.0365 71.0039 25.1016L70.7793 27.2402C70.4538 27.1621 70.1152 27.123 69.7637 27.123C68.8457 27.123 68.1003 27.4225 67.5273 28.0215C66.9609 28.6204 66.6777 29.3984 66.6777 30.3555V36H64.3828V25.1992H66.1797L66.4824 27.1035H66.5996C66.9577 26.459 67.4232 25.9479 67.9961 25.5703C68.5755 25.1927 69.1973 25.0039 69.8613 25.0039ZM76.6582 36.1953C75.3105 36.1953 74.2591 35.707 73.5039 34.7305C72.7487 33.7539 72.3711 32.3835 72.3711 30.6191C72.3711 28.8483 72.752 27.4714 73.5137 26.4883C74.2819 25.4987 75.3431 25.0039 76.6973 25.0039C78.1165 25.0039 79.1973 25.528 79.9395 26.5762H80.0566C79.946 25.8014 79.8906 25.1895 79.8906 24.7402V20.8047H82.1953V36H80.3984L79.998 34.584H79.8906C79.1549 35.6582 78.0775 36.1953 76.6582 36.1953ZM77.2734 34.3398C78.2174 34.3398 78.9043 34.0762 79.334 33.5488C79.7637 33.015 79.985 32.1523 79.998 30.9609V30.6387C79.998 29.278 79.7767 28.3112 79.334 27.7383C78.8913 27.1654 78.1979 26.8789 77.2539 26.8789C76.4466 26.8789 75.8249 27.2077 75.3887 27.8652C74.9525 28.5163 74.7344 29.4473 74.7344 30.6582C74.7344 31.8561 74.946 32.7708 75.3691 33.4023C75.7923 34.0273 76.4271 34.3398 77.2734 34.3398ZM90.1934 36.1953C88.5137 36.1953 87.1986 35.707 86.248 34.7305C85.304 33.7474 84.832 32.3965 84.832 30.6777C84.832 28.9134 85.2715 27.5267 86.1504 26.5176C87.0293 25.5085 88.237 25.0039 89.7734 25.0039C91.1992 25.0039 92.3255 25.4368 93.1523 26.3027C93.9792 27.1686 94.3926 28.36 94.3926 29.877V31.1172H87.1953C87.2279 32.1654 87.5111 32.9727 88.0449 33.5391C88.5788 34.099 89.3307 34.3789 90.3008 34.3789C90.9388 34.3789 91.5312 34.3203 92.0781 34.2031C92.6315 34.0794 93.224 33.8776 93.8555 33.5977V35.4629C93.2956 35.7298 92.7292 35.9186 92.1562 36.0293C91.5833 36.14 90.929 36.1953 90.1934 36.1953ZM89.7734 26.7422C89.0443 26.7422 88.4583 26.9733 88.0156 27.4355C87.5794 27.8978 87.319 28.5716 87.2344 29.457H92.1367C92.1237 28.5651 91.9089 27.8913 91.4922 27.4355C91.0755 26.9733 90.5026 26.7422 89.7734 26.7422ZM102.479 25.0039C102.941 25.0039 103.322 25.0365 103.621 25.1016L103.396 27.2402C103.071 27.1621 102.732 27.123 102.381 27.123C101.463 27.123 100.717 27.4225 100.145 28.0215C99.5781 28.6204 99.2949 29.3984 99.2949 30.3555V36H97V25.1992H98.7969L99.0996 27.1035H99.2168C99.5749 26.459 100.04 25.9479 100.613 25.5703C101.193 25.1927 101.814 25.0039 102.479 25.0039ZM113.123 36H110.828V25.1992H113.123V36ZM110.691 22.3379C110.691 21.9277 110.802 21.612 111.023 21.3906C111.251 21.1693 111.574 21.0586 111.99 21.0586C112.394 21.0586 112.706 21.1693 112.928 21.3906C113.156 21.612 113.27 21.9277 113.27 22.3379C113.27 22.7285 113.156 23.0378 112.928 23.2656C112.706 23.487 112.394 23.5977 111.99 23.5977C111.574 23.5977 111.251 23.487 111.023 23.2656C110.802 23.0378 110.691 22.7285 110.691 22.3379ZM125.916 36H123.611V29.3594C123.611 28.526 123.442 27.9043 123.104 27.4941C122.771 27.084 122.241 26.8789 121.512 26.8789C120.542 26.8789 119.832 27.1654 119.383 27.7383C118.934 28.3112 118.709 29.2715 118.709 30.6191V36H116.414V25.1992H118.211L118.533 26.6152H118.65C118.976 26.1009 119.438 25.7038 120.037 25.4238C120.636 25.1439 121.3 25.0039 122.029 25.0039C124.62 25.0039 125.916 26.3223 125.916 28.959V36ZM141.561 32.9238C141.561 33.9785 141.176 34.7891 140.408 35.3555C139.64 35.9154 138.54 36.1953 137.107 36.1953C135.669 36.1953 134.513 35.9772 133.641 35.541V33.5586C134.91 34.1445 136.092 34.4375 137.186 34.4375C138.598 34.4375 139.305 34.0111 139.305 33.1582C139.305 32.8848 139.227 32.6569 139.07 32.4746C138.914 32.2923 138.657 32.1035 138.299 31.9082C137.941 31.7129 137.443 31.4915 136.805 31.2441C135.561 30.7624 134.718 30.2806 134.275 29.7988C133.839 29.3171 133.621 28.6921 133.621 27.9238C133.621 26.9993 133.992 26.2832 134.734 25.7754C135.483 25.2611 136.499 25.0039 137.781 25.0039C139.051 25.0039 140.252 25.2611 141.385 25.7754L140.643 27.5039C139.477 27.0221 138.497 26.7812 137.703 26.7812C136.492 26.7812 135.887 27.1263 135.887 27.8164C135.887 28.1549 136.043 28.4414 136.355 28.6758C136.674 28.9102 137.365 29.2324 138.426 29.6426C139.318 29.9876 139.965 30.3034 140.369 30.5898C140.773 30.8763 141.072 31.2083 141.268 31.5859C141.463 31.957 141.561 32.403 141.561 32.9238ZM148.768 36.1953C147.088 36.1953 145.773 35.707 144.822 34.7305C143.878 33.7474 143.406 32.3965 143.406 30.6777C143.406 28.9134 143.846 27.5267 144.725 26.5176C145.604 25.5085 146.811 25.0039 148.348 25.0039C149.773 25.0039 150.9 25.4368 151.727 26.3027C152.553 27.1686 152.967 28.36 152.967 29.877V31.1172H145.77C145.802 32.1654 146.085 32.9727 146.619 33.5391C147.153 34.099 147.905 34.3789 148.875 34.3789C149.513 34.3789 150.105 34.3203 150.652 34.2031C151.206 34.0794 151.798 33.8776 152.43 33.5977V35.4629C151.87 35.7298 151.303 35.9186 150.73 36.0293C150.158 36.14 149.503 36.1953 148.768 36.1953ZM148.348 26.7422C147.618 26.7422 147.033 26.9733 146.59 27.4355C146.154 27.8978 145.893 28.5716 145.809 29.457H150.711C150.698 28.5651 150.483 27.8913 150.066 27.4355C149.65 26.9733 149.077 26.7422 148.348 26.7422ZM159.93 36.1953C158.296 36.1953 157.052 35.7201 156.199 34.7695C155.353 33.8125 154.93 32.4421 154.93 30.6582C154.93 28.8418 155.372 27.4453 156.258 26.4688C157.15 25.4922 158.436 25.0039 160.115 25.0039C161.255 25.0039 162.28 25.2155 163.191 25.6387L162.498 27.4844C161.528 27.1068 160.727 26.918 160.096 26.918C158.227 26.918 157.293 28.1582 157.293 30.6387C157.293 31.8496 157.524 32.7611 157.986 33.373C158.455 33.9785 159.139 34.2812 160.037 34.2812C161.059 34.2812 162.026 34.0273 162.938 33.5195V35.5215C162.527 35.7624 162.088 35.9349 161.619 36.0391C161.157 36.1432 160.594 36.1953 159.93 36.1953ZM175.057 30.5801C175.057 32.3444 174.604 33.7214 173.699 34.7109C172.794 35.7005 171.535 36.1953 169.92 36.1953C168.911 36.1953 168.019 35.9674 167.244 35.5117C166.469 35.056 165.874 34.4017 165.457 33.5488C165.04 32.696 164.832 31.7064 164.832 30.5801C164.832 28.8288 165.281 27.4616 166.18 26.4785C167.078 25.4954 168.344 25.0039 169.979 25.0039C171.541 25.0039 172.778 25.5085 173.689 26.5176C174.601 27.5202 175.057 28.8743 175.057 30.5801ZM167.195 30.5801C167.195 33.0736 168.117 34.3203 169.959 34.3203C171.782 34.3203 172.693 33.0736 172.693 30.5801C172.693 28.1126 171.775 26.8789 169.939 26.8789C168.976 26.8789 168.276 27.1979 167.84 27.8359C167.41 28.474 167.195 29.3887 167.195 30.5801ZM187.205 36H184.9V29.3594C184.9 28.526 184.731 27.9043 184.393 27.4941C184.061 27.084 183.53 26.8789 182.801 26.8789C181.831 26.8789 181.121 27.1654 180.672 27.7383C180.223 28.3112 179.998 29.2715 179.998 30.6191V36H177.703V25.1992H179.5L179.822 26.6152H179.939C180.265 26.1009 180.727 25.7038 181.326 25.4238C181.925 25.1439 182.589 25.0039 183.318 25.0039C185.91 25.0039 187.205 26.3223 187.205 28.959V36ZM194.041 36.1953C192.693 36.1953 191.642 35.707 190.887 34.7305C190.132 33.7539 189.754 32.3835 189.754 30.6191C189.754 28.8483 190.135 27.4714 190.896 26.4883C191.665 25.4987 192.726 25.0039 194.08 25.0039C195.499 25.0039 196.58 25.528 197.322 26.5762H197.439C197.329 25.8014 197.273 25.1895 197.273 24.7402V20.8047H199.578V36H197.781L197.381 34.584H197.273C196.538 35.6582 195.46 36.1953 194.041 36.1953ZM194.656 34.3398C195.6 34.3398 196.287 34.0762 196.717 33.5488C197.146 33.015 197.368 32.1523 197.381 30.9609V30.6387C197.381 29.278 197.16 28.3112 196.717 27.7383C196.274 27.1654 195.581 26.8789 194.637 26.8789C193.829 26.8789 193.208 27.2077 192.771 27.8652C192.335 28.5163 192.117 29.4473 192.117 30.6582C192.117 31.8561 192.329 32.7708 192.752 33.4023C193.175 34.0273 193.81 34.3398 194.656 34.3398ZM210.115 32.9238C210.115 33.9785 209.731 34.7891 208.963 35.3555C208.195 35.9154 207.094 36.1953 205.662 36.1953C204.223 36.1953 203.068 35.9772 202.195 35.541V33.5586C203.465 34.1445 204.646 34.4375 205.74 34.4375C207.153 34.4375 207.859 34.0111 207.859 33.1582C207.859 32.8848 207.781 32.6569 207.625 32.4746C207.469 32.2923 207.212 32.1035 206.854 31.9082C206.495 31.7129 205.997 31.4915 205.359 31.2441C204.116 30.7624 203.273 30.2806 202.83 29.7988C202.394 29.3171 202.176 28.6921 202.176 27.9238C202.176 26.9993 202.547 26.2832 203.289 25.7754C204.038 25.2611 205.053 25.0039 206.336 25.0039C207.605 25.0039 208.807 25.2611 209.939 25.7754L209.197 27.5039C208.032 27.0221 207.052 26.7812 206.258 26.7812C205.047 26.7812 204.441 27.1263 204.441 27.8164C204.441 28.1549 204.598 28.4414 204.91 28.6758C205.229 28.9102 205.919 29.2324 206.98 29.6426C207.872 29.9876 208.52 30.3034 208.924 30.5898C209.327 30.8763 209.627 31.2083 209.822 31.5859C210.018 31.957 210.115 32.403 210.115 32.9238Z" fill="black"/>
<path d="M285.5 55C285.333 56.3333 284.3 59.6 281.5 62C278 65 270.5 72 270.5 78.5C270.5 85 277.5 88 281.5 88C284.7 88 285.5 84.3333 285.5 82.5C285.167 79.6667 283 74 275 74C260.5 74 237.5 91 215 91C197 91 180.833 82 175 77.5" stroke="black" stroke-linecap="round"/>
<path d="M21.0233 35.8729C20.9832 34.983 21.2933 32.733 22.8547 30.8518C24.8065 28.5004 28.9249 23.0882 28.1985 18.8408C27.472 14.5935 22.5627 13.4155 19.949 13.8626C17.858 14.2202 17.7451 16.7055 17.95 17.9035C18.4844 19.7176 20.5335 23.1783 25.7609 22.2842C35.2357 20.6637 48.3648 6.98489 63.067 4.47032C74.8288 2.45866 86.3985 6.53279 90.7131 8.82132" stroke="#088B46" stroke-linecap="round"/>
</svg>
