<svg width="440" height="353" viewBox="0 0 440 353" fill="none" xmlns="http://www.w3.org/2000/svg">
<g filter="url(#filter0_f_221_2)">
<path fill-rule="evenodd" clip-rule="evenodd" d="M36.2795 85.1974C36.9854 84.7899 37.6768 84.097 38.1979 83.1199C39.4435 82.7549 40.7045 81.9954 41.772 80.8786C44.1733 78.3645 44.7202 74.9531 43.0888 73.062C43.0965 72.9973 43.1035 72.9319 43.1112 72.8672C43.1247 72.7354 43.1838 72.5831 43.2733 72.4114C43.932 72.1315 44.5781 71.6906 45.1435 71.0983C46.8273 69.3366 47.1505 66.9147 45.8664 65.6903C45.535 65.3757 45.1306 65.1704 44.6835 65.0698C46.8009 62.5482 47.1283 59.2975 45.3544 57.6089C43.78 56.1081 41.0509 56.3182 38.7606 57.9463C38.634 57.68 38.4626 57.4387 38.2447 57.2321C36.9495 55.9973 34.5224 56.4384 32.8247 58.2151C32.4328 58.6257 32.1143 59.0697 31.8717 59.5267C31.7358 59.6049 31.6087 59.6903 31.4902 59.7807C31.2775 59.6258 30.9144 59.5546 30.3674 59.579C27.6885 59.6962 25.7485 60.8081 24.7757 62.012C23.4195 61.2845 21.3693 61.814 19.8788 63.3736C18.9511 64.344 18.433 65.5136 18.3651 66.5757C16.2542 64.5938 10.8348 65.3175 8.05102 72.3522C7.721 72.5801 7.38782 72.8054 7.04287 73.0503C1.95739 73.5395 -0.736336 76.9017 -0.737799 79.3013C-1.04874 79.5882 -1.35437 79.8688 -1.66531 80.1557C-6.76489 80.6922 -9.235 84.3578 -9.05852 86.888C-15.4579 87.6117 -17.5135 93.5017 -15.5279 95.5628C-15.6267 95.6993 -15.7315 95.8413 -15.8309 95.9771C-16.2542 95.9456 -16.7569 96.0108 -17.338 96.2187C-24.7116 98.8609 -24.8458 105.553 -21.6577 106.279C-22.1328 107.727 -22.6998 107.301 -22.0573 109.878C-21.414 112.454 -17.3262 118.266 -13.3914 121.359C-9.4378 124.465 -5.1979 126.531 -3.04362 126.495C-3.00178 126.493 -2.95646 126.487 -2.90836 126.482C-1.25432 128.631 4.14395 127.852 6.65269 121.245C6.82379 120.791 6.90525 120.391 6.93109 120.033C7.12119 119.873 7.31504 119.716 7.51105 119.55C9.62163 121.371 15.1898 119.321 16.0398 112.905C18.6386 113.171 22.5287 110.448 22.8505 104.626C22.8518 104.617 22.854 104.608 22.8509 104.606C22.9075 104.539 22.9699 104.468 23.0215 104.406C25.4863 105.047 29.6559 102.117 29.9348 95.8123C29.9373 95.744 29.9373 95.6738 29.9435 95.6089C29.9553 95.5893 29.9668 95.5711 29.9784 95.5529C32.2347 96.1458 36.1358 92.8479 36.3683 86.4104C36.3876 85.9121 36.3551 85.5128 36.2795 85.1974Z" fill="#DDB118"/>
<path fill-rule="evenodd" clip-rule="evenodd" d="M-28.9299 105.92C-29.2375 106.199 -29.5528 106.491 -29.8723 106.786C-35.1029 107.472 -37.558 111.451 -37.3753 114.199C-37.6837 114.519 -37.9919 114.842 -38.2998 115.167C-43.6008 115.859 -46.0538 119.931 -45.8044 122.682C-52.5484 123.521 -54.7234 129.815 -52.6239 132.009C-52.7323 132.156 -52.8397 132.301 -52.9459 132.448C-53.3928 132.416 -53.9253 132.496 -54.5505 132.712C-62.4811 135.453 -62.7134 142.476 -59.2712 143.305C-59.7981 144.825 -59.9796 146.114 -59.7324 147.097C-57.4625 156.115 -43.8374 165.123 -39.3126 165.012C-39.2694 165.01 -39.2223 165.007 -39.1732 165C-37.3785 167.315 -31.7332 166.444 -29.174 159.372C-29.0002 158.893 -28.905 158.465 -28.8774 158.088C-28.6756 157.922 -28.4724 157.756 -28.2663 157.585C-26.0323 159.524 -20.099 157.409 -19.1164 150.719C-16.2964 151.07 -11.9655 148.417 -11.4532 142.431L-11.4513 142.406L-11.2566 142.218C-8.4974 143.048 -3.565 140.458 -3.01679 134.048C-3.01081 133.976 -3.0061 133.907 -3.00278 133.838L-2.95685 133.789C-0.226141 134.751 4.86227 132.184 5.42096 125.666C5.4962 124.775 5.33044 124.132 4.99457 123.704C8.92395 121.273 9.53956 113.879 2.03486 115.163C3.29641 112.049 1.92476 108.303 -4.119 109.708C-4.20982 109.729 -4.2983 109.753 -4.38678 109.778L-4.39367 109.772C-2.48994 106.55 -3.50907 101.921 -10.1217 103.459C-10.2177 103.482 -10.3106 103.507 -10.4015 103.533C-8.49 100.311 -9.50452 95.6721 -16.1243 97.2103C-17.2909 97.4814 -18.1561 98.0494 -18.7431 98.7743C-19.1526 98.442 -19.7631 98.2705 -20.6066 98.3212C-26.4753 98.6797 -29.1936 103.031 -28.9299 105.92Z" fill="#DDB118"/>
<path fill-rule="evenodd" clip-rule="evenodd" d="M-18.1637 113.348C-18.4713 113.628 -18.8377 113.97 -19.1575 114.267C-24.3881 114.953 -26.8432 118.932 -26.6611 121.679C-26.9689 121.999 -27.2771 122.322 -27.5858 122.648C-32.8866 123.338 -35.3405 127.411 -35.0894 130.161C-41.8334 131 -44.0077 137.295 -41.9089 139.488C-42.0173 139.635 -42.1249 139.782 -42.2311 139.928C-42.4549 139.912 -42.6989 139.924 -42.966 139.967C-45.9194 140.443 -48.0442 144.584 -46.8213 146.485C-43.9942 150.872 -32.9747 155.691 -39.2605 165.009C-39.2325 165.008 -39.203 165.003 -39.1732 165C-37.3785 167.315 -31.7332 166.444 -29.174 159.372C-29.0002 158.893 -28.905 158.465 -28.8774 158.088C-28.6755 157.922 -28.4724 157.756 -28.2663 157.585C-26.0323 159.524 -20.099 157.409 -19.1164 150.719C-16.2963 151.07 -11.9655 148.417 -11.4532 142.431L-11.4513 142.406L-11.2566 142.218C-8.49658 143.048 -3.56419 140.457 -3.01517 134.047C-3.01 133.975 -3.00529 133.907 -3.00197 133.838L-2.95602 133.789C1.59337 135.391 8.16694 127.787 6.29284 121.537C8.55115 123.039 15.3111 120.982 16.0399 112.9C18.6387 113.166 22.5288 110.443 22.8506 104.621C22.8519 104.612 22.8541 104.603 22.851 104.601C22.9076 104.534 22.97 104.463 23.0216 104.401C25.4864 105.042 29.656 102.112 29.9349 95.8073C29.9374 95.739 29.9374 95.6687 29.9436 95.6038C29.9554 95.5843 29.9669 95.5661 29.9785 95.5479C32.2348 96.1408 36.1359 92.8429 36.3684 86.4054C36.3867 85.909 36.3555 85.51 36.2785 85.1944C36.9844 84.7868 37.6758 84.0939 38.197 83.1169C39.4426 82.7519 40.7035 81.9924 41.7711 80.8756C44.1723 78.3614 44.7193 74.9501 43.0879 73.059C43.0955 72.9943 43.1026 72.9288 43.1102 72.8641C43.1237 72.7324 43.1829 72.5801 43.2724 72.4084C43.931 72.1285 44.5772 71.6876 45.1426 71.0953C46.8264 69.3335 47.1495 66.9117 45.8655 65.6873C45.534 65.3727 45.1297 65.1673 44.6825 65.0668C46.4198 62.9978 46.9514 60.4393 46.1074 58.6538C45.7502 58.9432 45.4443 59.2475 45.1926 59.5533C43.8076 58.8577 41.6282 59.521 39.9842 61.2405C38.9605 62.3121 38.3564 63.5708 38.2313 64.6938C36.1187 62.7131 30.3954 63.7557 27.1097 71.3134C26.7528 71.5707 26.391 71.8264 26.0169 72.1009C20.6544 72.8798 17.6551 76.5619 17.5293 79.0918C17.189 79.4097 16.8526 79.7212 16.5114 80.0397C11.133 80.8682 8.35362 84.8591 8.40785 87.5156C1.65473 88.6087 -0.80558 94.9222 1.1712 96.9934C1.05952 97.1429 0.943548 97.2967 0.831869 97.4462C0.38961 97.4345 -0.142301 97.5294 -0.761572 97.7784C-5.27265 99.5917 -7.35791 102.683 -7.6943 105.107C-10.6727 105.484 -14.8029 107.855 -18.1637 113.348Z" fill="#F4D105"/>
<path fill-rule="evenodd" clip-rule="evenodd" d="M-38.1621 158.475C-38.5027 158.768 -38.9364 158.788 -39.1315 158.52C-39.3258 158.252 -39.2075 157.797 -38.866 157.503C-33.2489 152.673 -25.6187 145.452 -18.0507 137.833C-10.9809 130.715 -3.96009 123.245 1.31094 117.057C1.60398 116.713 2.05407 116.597 2.31669 116.797C2.57909 116.999 2.55384 117.441 2.26022 117.785C-3.03151 123.999 -10.0962 131.514 -17.2206 138.686C-24.8323 146.348 -32.5091 153.614 -38.1621 158.475Z" fill="#DDB118"/>
<path fill-rule="evenodd" clip-rule="evenodd" d="M-44.8979 152.069C-45.5429 152.679 -46.1898 152.922 -46.3421 152.612C-46.4964 152.3 -46.0992 151.553 -45.4534 150.942C-34.8433 140.886 -20.1008 126.223 -5.25794 110.991C8.61058 96.7603 22.5766 82.022 33.3483 70.0759C33.9483 69.4118 34.6652 69.016 34.9509 69.1935C35.2376 69.369 34.9837 70.0499 34.3845 70.7134C23.5701 82.7063 9.5167 97.5372 -4.45912 111.877C-19.3876 127.196 -34.2191 141.947 -44.8979 152.069Z" fill="#DDB118"/>
<path fill-rule="evenodd" clip-rule="evenodd" d="M-51.8171 140.754C-52.3491 141.335 -53.036 141.687 -53.3532 141.54C-53.6697 141.394 -53.4946 140.805 -52.9626 140.225C-44.8314 131.344 -32.9442 119.049 -20.5753 106.699C-9.00662 95.1469 3.01511 83.5142 12.8196 74.5415C13.4056 74.0034 14.0411 73.7821 14.2405 74.0452C14.4413 74.3085 14.1267 74.958 13.5407 75.4961C3.83858 84.3765 -8.11206 95.942 -19.6404 107.452C-31.9683 119.762 -43.779 131.974 -51.8171 140.754Z" fill="#F4D105"/>
<path fill-rule="evenodd" clip-rule="evenodd" d="M2.68936 125.274C2.59704 124.934 2.83234 124.49 3.21476 124.284C3.59799 124.077 3.98101 124.184 4.07273 124.523C4.27677 125.287 4.26377 126.47 3.75343 127.844C3.36722 128.876 2.70004 130.02 1.6308 131.174C1.32341 131.505 0.875622 131.593 0.631173 131.374C0.386951 131.153 0.438118 130.706 0.745503 130.375C1.60598 129.448 2.13617 128.543 2.43786 127.735C2.8229 126.701 2.83719 125.828 2.68936 125.274Z" fill="#F7DE76"/>
<path fill-rule="evenodd" clip-rule="evenodd" d="M0.46724 119.491C0.137771 119.795 -0.290597 119.821 -0.485269 119.551C-0.680752 119.281 -0.571664 118.817 -0.2408 118.513C5.2056 113.521 12.5923 106.067 19.9113 98.2118C26.7498 90.8721 33.5315 83.1766 38.6134 76.8081C38.8966 76.4537 39.3367 76.3289 39.5985 76.5297C39.8597 76.7297 39.8425 77.1797 39.5609 77.533C34.4578 83.9266 27.6331 91.6704 20.7423 99.0674C13.3808 106.968 5.94826 114.466 0.46724 119.491Z" fill="#DDB118"/>
<path fill-rule="evenodd" clip-rule="evenodd" d="M13.0763 113.182C12.9854 112.842 13.2207 112.399 13.6031 112.192C13.9856 111.986 14.3686 112.093 14.4603 112.433C14.6646 113.195 14.6522 114.379 14.1404 115.752C13.7548 116.785 13.087 117.928 12.0184 119.083C11.711 119.414 11.2632 119.503 11.0182 119.282C10.7745 119.062 10.8257 118.615 11.1339 118.283C11.993 117.356 12.5237 116.452 12.8254 115.644C13.2119 114.61 13.2256 113.736 13.0763 113.182Z" fill="#F7DE76"/>
<path fill-rule="evenodd" clip-rule="evenodd" d="M20.2889 104.263C20.198 103.923 20.4333 103.48 20.8157 103.273C21.1981 103.066 21.5812 103.174 21.6729 103.513C21.8777 104.276 21.8647 105.459 21.353 106.833C20.9674 107.866 20.2996 109.009 19.2304 110.163C18.923 110.494 18.4758 110.583 18.2313 110.364C17.9871 110.143 18.0383 109.696 18.3465 109.364C19.2056 108.437 19.7363 107.533 20.038 106.725C20.4238 105.69 20.4381 104.817 20.2889 104.263Z" fill="#F7DE76"/>
<path fill-rule="evenodd" clip-rule="evenodd" d="M26.901 95.9708C26.8101 95.6308 27.0454 95.1876 27.4273 94.9802C27.8105 94.7731 28.1941 94.8813 28.2844 95.2205C28.4893 95.9837 28.4769 97.1673 27.9659 98.54C27.5797 99.5726 26.9125 100.716 25.8433 101.87C25.5359 102.201 25.0881 102.29 24.8429 102.071C24.5995 101.849 24.6498 101.403 24.958 101.071C25.8177 100.145 26.3487 99.2394 26.6509 98.4324C27.0368 97.3976 27.0503 96.5251 26.901 95.9708Z" fill="#F7DE76"/>
<path fill-rule="evenodd" clip-rule="evenodd" d="M33.2857 87.4606C33.1948 87.1206 33.4301 86.6774 33.8119 86.4701C34.1951 86.263 34.5787 86.3712 34.6697 86.7112C34.8739 87.4736 34.8615 88.6572 34.3498 90.0305C33.9644 91.0625 33.2972 92.2063 32.2271 93.3607C31.9205 93.6913 31.4734 93.7806 31.2275 93.5608C30.9841 93.3393 31.0344 92.8926 31.3426 92.5608C32.2031 91.6339 32.7325 90.7299 33.0356 89.9223C33.42 88.8873 33.4343 88.0142 33.2857 87.4606Z" fill="#F7DE76"/>
<path fill-rule="evenodd" clip-rule="evenodd" d="M3.71005 122.535C3.77592 122.889 3.51338 123.323 3.1268 123.507C2.73882 123.69 2.37217 123.552 2.30712 123.199C1.58647 119.26 -0.795296 114.892 -4.12408 111.239C-7.23951 107.82 -11.1745 105.041 -15.3433 103.838C-15.6765 103.742 -15.7787 103.352 -15.5726 102.966C-15.3646 102.58 -14.9269 102.346 -14.5943 102.442C-10.2502 103.695 -6.16961 106.57 -2.9513 110.1C0.489133 113.878 2.956 118.418 3.71005 122.535Z" fill="#DDB118"/>
<path fill-rule="evenodd" clip-rule="evenodd" d="M11.8517 113.101C11.9162 113.454 11.655 113.888 11.267 114.072C10.8805 114.255 10.5138 114.118 10.4482 113.763C9.72671 109.825 7.34578 105.457 4.01618 101.804C0.900752 98.3851 -3.03426 95.6062 -7.20303 94.4033C-7.53625 94.3069 -7.6376 93.9165 -7.43181 93.5315C-7.2238 93.1462 -6.78583 92.9108 -6.4532 93.0064C-2.10915 94.2592 1.97123 97.1355 5.18895 100.665C8.63136 104.444 11.0974 108.985 11.8517 113.101Z" fill="#DDB118"/>
<path fill-rule="evenodd" clip-rule="evenodd" d="M20.1919 103.458C20.2578 103.811 19.9952 104.245 19.6087 104.429C19.2207 104.612 18.854 104.475 18.7898 104.12C18.0683 100.182 15.6874 95.8136 12.3578 92.1609C9.24237 88.7422 5.30737 85.9632 1.13801 84.7595C0.804565 84.6645 0.702625 84.2733 0.909232 83.8878C1.11665 83.5017 1.5538 83.2668 1.88783 83.3626C6.23165 84.6169 10.3123 87.4918 13.53 91.0217C16.9716 94.8008 19.4384 99.3414 20.1919 103.458Z" fill="#DDB118"/>
<path fill-rule="evenodd" clip-rule="evenodd" d="M27.7812 94.2963C27.8465 94.6486 27.5845 95.0839 27.198 95.2675C26.81 95.4509 26.4433 95.3133 26.3777 94.9588C25.6576 91.0207 23.2759 86.653 19.9463 83.0003C16.8303 79.5807 12.8961 76.8012 8.7279 75.5991C8.39387 75.5033 8.29251 75.1129 8.49853 74.7266C8.70653 74.3413 9.14369 74.1064 9.47632 74.202C13.821 75.4557 17.9016 78.3306 21.1185 81.8611C24.5609 85.6396 27.0272 90.1793 27.7812 94.2963Z" fill="#DDB118"/>
<path fill-rule="evenodd" clip-rule="evenodd" d="M35.1628 84.539C35.1815 84.8472 34.9009 85.2651 34.5391 85.4728C34.1775 85.6792 33.8692 85.5969 33.851 85.2895C33.6594 81.8556 32.0522 78.224 29.5267 75.3366C27.1651 72.6356 24.0075 70.5968 20.4658 69.9922C20.1828 69.9434 20.1365 69.6071 20.3623 69.2397C20.5874 68.873 21.0006 68.6134 21.2838 68.6608C24.9738 69.2917 28.2491 71.3997 30.688 74.1892C33.2995 77.1736 34.9628 80.9497 35.1628 84.539Z" fill="#DDB118"/>
<path fill-rule="evenodd" clip-rule="evenodd" d="M40.4104 78.7426C40.4283 79.0514 40.1484 79.4687 39.786 79.6757C39.4242 79.8834 39.1159 79.8011 39.0986 79.4931C38.907 76.0592 37.2989 72.4282 34.7742 69.5402C32.4118 66.8398 29.255 64.8005 25.7125 64.1965C25.4296 64.1476 25.3832 63.8113 25.6091 63.4439C25.8349 63.0766 26.2482 62.817 26.5311 62.8659C30.2213 63.4953 33.4958 65.6039 35.9347 68.3934C38.5468 71.3787 40.2095 75.1539 40.4104 78.7426Z" fill="#DDB118"/>
<path fill-rule="evenodd" clip-rule="evenodd" d="M24.7948 55.0046C12.3214 72.237 -2.42007 83.7575 -22.9123 115.468C-43.4053 147.18 -56.0703 168.207 -59.3832 165.89C-60.8351 164.874 -69.5448 159.158 -65.4194 143.814C-60.1314 124.14 -38.7318 94.027 24.7948 55.0046Z" fill="#536A25"/>
<path fill-rule="evenodd" clip-rule="evenodd" d="M20.2091 57.8553C3.05895 69.9862 -11.6293 85.6911 -24.2384 103.009C-37.4134 121.103 -48.3142 140.954 -57.3798 160.33L-57.5819 160.762L-62.6602 160.762L-62.7437 160.328C-62.7539 160.276 -66.3613 142.83 -50.1404 119.383C-45.1237 112.132 -40.0277 105.46 -34.7175 99.1893C-32.1959 96.7856 -29.4934 94.3268 -26.592 91.8122C-34.5406 100.367 -41.9185 109.586 -49.1325 120.013C-63.5464 140.848 -61.9876 156.709 -61.5715 159.488L-58.3133 159.487C-49.2475 140.163 -38.3627 120.384 -25.227 102.343C-15.313 88.7262 -4.11309 76.0932 8.55729 65.3846C12.2644 62.9156 16.1467 60.4041 20.2091 57.8553Z" fill="#3F511B"/>
<path fill-rule="evenodd" clip-rule="evenodd" d="M47.0016 78.7386C34.5848 91.8911 22.202 104.384 -8.58921 126.284C-39.3812 148.184 -58.4034 163.156 -55.9151 166.365C-54.8243 167.769 -48.6543 176.23 -33.8156 171.093C-14.7898 164.505 34.2112 123.157 47.0016 78.7386Z" fill="#536A25"/>
<path fill-rule="evenodd" clip-rule="evenodd" d="M46.0272 81.8849C34.5887 99.7582 19.4281 115.297 2.54586 128.804C-14.8879 142.751 -34.1636 154.534 -53.0706 164.483L-52.9185 167.732C-50.117 168.016 -34.1768 168.826 -14.0089 153.473C-2.41993 144.651 7.56457 135.69 16.7415 125.932C24.3773 117.812 31.4593 109.132 38.4458 99.5143C36.9066 102.419 35.2439 105.286 33.4865 108.105C28.3724 114.694 23.1367 120.859 17.6061 126.74C8.37191 136.559 -1.67408 145.576 -13.33 154.45C-34.5433 170.598 -51.3238 169.227 -53.4695 168.972C-53.7212 168.758 -53.9543 168.547 -54.1668 168.343L-54.3795 163.813L-53.9557 163.59C-34.9969 153.639 -15.6489 141.835 1.83662 127.847C19.0158 114.104 34.3899 98.2559 45.8185 79.9892C46.0733 79.7218 46.3279 79.4509 46.5821 79.1827L46.8286 79.3144C46.5732 80.1727 46.3071 81.0299 46.0272 81.8849Z" fill="#3F511B"/>
<path fill-rule="evenodd" clip-rule="evenodd" d="M-21.7027 153.526C5.84226 135.647 10.9159 124.592 31.166 108.08C25.1045 121.115 -7.28573 148.225 -20.056 156.602C-21.7054 157.6 -35.2886 166.554 -35.5585 163.197C-37.0812 160.875 -23.4043 154.568 -21.7027 153.526Z" fill="#647D2A"/>
</g>
<g filter="url(#filter1_f_221_2)">
<path fill-rule="evenodd" clip-rule="evenodd" d="M407.069 95.7304C409.482 98.4736 410.07 99.0461 409.798 101.215C409.525 103.385 406.771 105.976 409.11 114.068C411.448 122.161 415.198 128.426 422.043 131.631C428.89 134.835 427.812 134.945 432.721 140.525C437.63 146.104 443.954 153.292 443.954 153.292C443.954 153.292 453.449 172.285 461.694 180.131C469.94 187.977 472.175 186.514 474.255 184.683C476.336 182.853 474.918 179.906 479.09 180.262C485.608 180.818 487.607 179.06 487.886 172.524C488.064 168.341 490.806 170.122 492.887 168.292C494.967 166.461 496.704 164.431 489.972 155.253C483.24 146.076 465.611 134.238 465.611 134.238C465.611 134.238 459.288 127.05 454.378 121.471C449.469 115.891 449.223 116.946 446.916 109.748C444.61 102.549 438.874 98.0323 431.145 94.6818C423.416 91.3311 420.495 93.733 418.309 93.7272C416.122 93.7212 415.629 93.0649 413.216 90.3222C409.467 86.3481 407.839 88.4693 407.265 89.7546C405.917 90.1611 403.604 91.5052 407.069 95.7304Z" fill="#D6E2ED"/>
<path fill-rule="evenodd" clip-rule="evenodd" d="M410.608 113.413C410.627 113.481 410.647 113.55 410.667 113.619C412.662 120.523 415.922 126.975 422.731 130.163C424.901 131.179 427.394 132.313 429.167 133.957C429.898 134.635 430.537 135.403 431.17 136.17C432.083 137.277 432.99 138.376 433.938 139.454C437.683 143.71 441.427 147.965 445.171 152.221L445.31 152.379L445.403 152.567C446.309 154.378 447.282 156.177 448.261 157.948C450.387 161.793 452.644 165.599 455.085 169.253C457.303 172.573 459.915 176.2 462.812 178.957C464.622 180.68 467.462 183.267 469.821 184.203C470.68 184.543 471.438 184.689 472.254 184.191C472.586 183.988 472.893 183.722 473.184 183.467C473.56 183.136 473.751 182.709 473.924 182.25C474.215 181.48 474.421 180.769 474.938 180.099C475.988 178.739 477.617 178.509 479.228 178.647C480.768 178.779 483.492 178.948 484.756 177.836C486.02 176.724 486.199 174 486.265 172.456C486.335 170.84 486.77 169.253 488.253 168.385C488.983 167.958 489.714 167.844 490.515 167.654C490.992 167.541 491.44 167.406 491.816 167.075C492.107 166.82 492.41 166.548 492.653 166.245C493.251 165.5 493.203 164.729 492.975 163.834C492.347 161.374 490.143 158.228 488.665 156.213C486.3 152.989 483.034 149.935 480.024 147.313C476.711 144.426 473.224 141.703 469.68 139.105C468.048 137.908 466.388 136.713 464.707 135.585L464.532 135.467L464.394 135.309C460.649 131.054 456.905 126.798 453.161 122.542C452.213 121.464 451.238 120.425 450.256 119.378C449.576 118.653 448.896 117.921 448.317 117.11C446.912 115.142 446.104 112.525 445.372 110.243C443.078 103.084 437.094 99.0279 430.5 96.17C430.435 96.142 430.369 96.1134 430.303 96.0856L410.608 113.413Z" fill="#71A0C8"/>
<path fill-rule="evenodd" clip-rule="evenodd" d="M485.439 176.908C486.093 175.592 486.214 173.663 486.265 172.455C486.292 171.836 486.372 171.221 486.544 170.65C486.174 170.645 485.827 170.664 485.508 170.799C484.547 171.209 484.537 172.421 484.815 173.732C484.982 174.521 485.209 175.686 485.17 176.603L485.439 176.908ZM488.336 168.338C489.038 167.949 489.745 167.836 490.515 167.653C490.993 167.54 491.44 167.405 491.816 167.075C492.107 166.819 492.41 166.547 492.653 166.244C493.251 165.499 493.203 164.728 492.975 163.833C492.348 161.373 490.144 158.227 488.665 156.212C486.3 152.988 483.034 149.935 480.024 147.312C476.711 144.426 473.224 141.703 469.68 139.104C468.048 137.907 466.388 136.713 464.708 135.584L464.533 135.467L464.394 135.309C460.65 131.053 456.905 126.797 453.161 122.542C452.213 121.464 451.238 120.424 450.256 119.378C449.576 118.653 448.896 117.921 448.317 117.11C446.912 115.141 446.104 112.524 445.372 110.242C443.078 103.083 437.094 99.0273 430.5 96.1694C430.435 96.1414 430.369 96.1128 430.303 96.085L426.243 99.6564C426.3 99.693 426.356 99.7295 426.412 99.7663C432.058 103.458 437.481 108.008 440.705 114.348C441.734 116.369 442.889 118.681 444.37 120.582C444.979 121.366 445.651 122.105 446.322 122.839C447.289 123.898 448.25 124.95 449.198 126.027C452.943 130.283 456.687 134.539 460.431 138.795L460.57 138.953L460.728 139.084C462.249 140.353 463.767 141.673 465.265 142.988C468.516 145.843 471.75 148.789 474.883 151.834C477.731 154.6 480.861 157.772 483.336 160.9C484.883 162.855 487.218 165.885 488.202 168.031C488.25 168.137 488.295 168.238 488.336 168.338Z" fill="#92BBD7"/>
<path fill-rule="evenodd" clip-rule="evenodd" d="M474.881 180.176C474.899 180.15 474.918 180.125 474.938 180.1C475.988 178.739 477.617 178.509 479.228 178.648C480.768 178.779 483.493 178.948 484.757 177.836C486.021 176.724 486.2 174 486.266 172.456C486.335 170.84 486.77 169.253 488.253 168.385C488.281 168.369 488.309 168.353 488.336 168.339C488.296 168.239 488.25 168.137 488.202 168.033C487.218 165.888 484.883 162.857 483.336 160.902C480.862 157.774 477.731 154.602 474.883 151.836C471.75 148.791 468.516 145.845 465.265 142.99C463.768 141.674 462.249 140.355 460.728 139.086L460.57 138.954L460.431 138.796C456.687 134.541 452.943 130.285 449.198 126.029C448.25 124.951 447.289 123.899 446.322 122.841C445.651 122.107 444.98 121.367 444.37 120.584C442.889 118.683 441.733 116.371 440.705 114.35C437.481 108.009 432.058 103.46 426.412 99.7681C426.356 99.7313 426.3 99.6949 426.244 99.6582L414.669 109.842C414.698 109.903 414.727 109.963 414.756 110.023C417.698 116.093 421.52 122.052 427.399 126.058C429.272 127.334 431.418 128.775 433.115 130.486C433.814 131.191 434.462 131.951 435.105 132.71C436.032 133.804 436.953 134.891 437.901 135.969C441.645 140.225 445.389 144.481 449.133 148.737L449.272 148.894L449.383 149.067C450.448 150.738 451.563 152.412 452.676 154.065C455.095 157.653 457.605 161.236 460.226 164.731C462.607 167.908 465.354 171.417 468.141 174.27C469.884 176.053 472.592 178.755 474.594 180.005C474.691 180.065 474.787 180.122 474.881 180.176Z" fill="#7EADCE"/>
<path fill-rule="evenodd" clip-rule="evenodd" d="M406.087 97.0874L414.747 89.5778C415.005 89.3537 415.399 89.3819 415.623 89.64C415.847 89.8981 415.819 90.2927 415.561 90.5166L406.902 98.0262C406.643 98.2499 406.249 98.2221 406.025 97.9636C405.801 97.7055 405.83 97.3107 406.087 97.0874Z" fill="#6F96C2"/>
<path fill-rule="evenodd" clip-rule="evenodd" d="M401.409 89.9933L408.387 83.9425C409.065 83.3547 410.1 83.4286 410.688 84.1061L414.459 88.4555L405.017 96.6434L401.246 92.294C400.658 91.6165 400.732 90.5814 401.409 89.9933Z" fill="#6F96C2"/>
<path fill-rule="evenodd" clip-rule="evenodd" d="M403.052 90.7302C402.954 90.6176 402.966 90.4472 403.079 90.3496C403.191 90.2523 403.361 90.2643 403.459 90.3767L406.867 94.3065C406.965 94.4187 406.953 94.5893 406.84 94.6866C406.728 94.7844 406.558 94.7723 406.46 94.6599L403.052 90.7302Z" fill="#93B6D5"/>
<path fill-rule="evenodd" clip-rule="evenodd" d="M404.945 89.0888C404.847 88.9762 404.859 88.8058 404.972 88.7081C405.084 88.6107 405.255 88.6228 405.353 88.7352L408.761 92.6649C408.858 92.7775 408.846 92.9475 408.734 93.0455C408.621 93.143 408.451 93.131 408.353 93.0186L404.945 89.0888Z" fill="#93B6D5"/>
<path fill-rule="evenodd" clip-rule="evenodd" d="M406.838 87.4468C406.74 87.3342 406.752 87.164 406.865 87.0663C406.977 86.9689 407.147 86.981 407.245 87.0934L410.653 91.0232C410.751 91.1357 410.739 91.306 410.626 91.4037C410.514 91.5011 410.343 91.4892 410.246 91.3766L406.838 87.4468Z" fill="#93B6D5"/>
<path fill-rule="evenodd" clip-rule="evenodd" d="M408.731 85.8054C408.633 85.6929 408.645 85.5225 408.758 85.4249C408.87 85.3274 409.041 85.3394 409.138 85.452L412.547 89.3816C412.644 89.4938 412.632 89.6646 412.519 89.7623C412.407 89.8599 412.237 89.8476 412.139 89.7352L408.731 85.8054Z" fill="#93B6D5"/>
<path fill-rule="evenodd" clip-rule="evenodd" d="M408.228 85.5659C407.609 86.1049 402.7 90.2025 402.248 90.1717C402.253 89.7087 407.104 85.609 407.752 85.0329C408.241 84.5956 408.634 83.9628 408.992 84.2998C409.479 84.6526 408.646 85.1831 408.228 85.5659Z" fill="#93B6D5"/>
<path fill-rule="evenodd" clip-rule="evenodd" d="M428.403 133.311L447.773 116.269C447.944 116.559 448.125 116.841 448.317 117.11C448.471 117.326 448.633 117.537 448.8 117.744L429.734 134.518C429.55 134.326 429.362 134.138 429.167 133.958C428.925 133.732 428.669 133.518 428.403 133.311Z" fill="#71A0C8"/>
</g>
<g filter="url(#filter2_f_221_2)">
<path fill-rule="evenodd" clip-rule="evenodd" d="M463.372 204.265C457.533 198.998 441.184 182.755 432.049 173.632C419.773 161.373 411.174 162.781 397.173 153.566C391.42 149.781 380.48 136.833 380.48 136.833L372.397 142.851L366.477 151.005C366.477 151.005 379.553 161.79 383.407 167.497C393.375 182.258 391.306 189.824 404.611 202.839C413.954 211.98 429.692 227.46 434.892 233.087C446.467 245.612 476.036 215.69 463.372 204.265Z" fill="#8F2310"/>
<path fill-rule="evenodd" clip-rule="evenodd" d="M447.07 235.126C454.81 232.376 462.899 224.191 465.557 216.418C456.795 207.979 435.278 186.666 427.155 178.584C414.856 166.349 407.979 166.014 394.78 155.987C389.357 151.868 378.045 139.296 378.045 139.296L372.396 142.851L368.908 148.542C368.908 148.542 381.613 159.704 385.798 165.076C396.619 178.973 396.221 184.85 409.502 197.887C417.759 205.992 438.701 226.645 447.07 235.126Z" fill="#A51919"/>
<path fill-rule="evenodd" clip-rule="evenodd" d="M460.841 204.784C461.147 209.389 460.267 213.37 458.267 216.969C456.257 220.59 453.106 223.844 448.893 226.973C440.624 233.114 435.356 230.583 435.34 230.577L434.841 231.66C434.858 231.668 440.764 234.5 449.609 227.932C453.952 224.707 457.21 221.332 459.309 217.551C461.42 213.749 462.351 209.552 462.03 204.706L460.841 204.784Z" fill="#8F2310"/>
<path fill-rule="evenodd" clip-rule="evenodd" d="M414.937 182.459C421.823 176.823 431.976 177.836 437.614 184.722C443.251 191.609 442.238 201.763 435.351 207.4C428.464 213.036 418.311 212.023 412.673 205.137C407.036 198.25 408.049 188.097 414.937 182.459Z" fill="#F0CA0C"/>
<path fill-rule="evenodd" clip-rule="evenodd" d="M424.015 192.026C425.306 188.935 430.26 183.666 433.456 188.167C437.055 193.239 434.746 199.266 430.633 202.185C425.308 205.966 419.127 203.947 416.494 199.043C414.571 195.463 418.991 192.606 424.015 192.026Z" fill="#7B261E"/>
<path fill-rule="evenodd" clip-rule="evenodd" d="M424.015 192.026C424.61 190.601 425.983 188.714 427.604 187.534C430.513 185.416 437.453 195.525 428.772 201.688C426.779 203.103 424.382 204.474 422.011 203.713C419.702 202.97 417.716 201.316 416.494 199.042C414.571 195.463 418.991 192.606 424.015 192.026Z" fill="#A51919"/>
<path fill-rule="evenodd" clip-rule="evenodd" d="M425.672 187.155C426.161 190.185 424.781 192.216 423.727 192.649C422.673 193.083 419.858 192.088 419.048 191.778C418.237 191.468 422.69 192.162 423.807 191.03C424.925 189.9 425.672 187.155 425.672 187.155Z" fill="#3F511B"/>
<path fill-rule="evenodd" clip-rule="evenodd" d="M421.766 187.897C422.225 189.602 424.485 191.476 424.485 191.476C424.485 191.476 422.34 191.566 420.322 187.097C419.855 186.064 420.848 185.791 421.276 185.921C421.619 186.026 421.311 186.205 421.766 187.897Z" fill="#3F511B"/>
<path fill-rule="evenodd" clip-rule="evenodd" d="M417.66 199.371C417.923 199.738 418.185 200.034 418.509 200.352C421.128 202.831 423.564 203.124 426.969 202.15C426.969 202.15 426.966 202.148 426.967 202.145C426.967 202.145 427.158 202.122 427.165 202.063C427.17 202.014 427.025 201.948 426.991 201.939C426.972 201.935 426.957 201.934 426.938 201.934C423.743 202.011 421.703 201.767 419.397 199.456C419.138 199.19 418.921 198.937 418.704 198.635C418.532 198.385 418.399 198.161 418.28 197.883C418.185 197.647 418.129 197.455 418.103 197.204C418.068 196.441 418.258 196.602 417.756 196.397C417.194 196.023 417.081 196.315 416.937 197.188C416.907 197.61 416.972 197.938 417.11 198.338C417.255 198.728 417.425 199.027 417.66 199.371Z" fill="#C52E27"/>
<path fill-rule="evenodd" clip-rule="evenodd" d="M355.529 125.215L371.853 136.557L369.538 138.899L368.411 140.04L366.098 142.382L354.561 126.194L355.529 125.215Z" fill="#DC9E1A"/>
<path fill-rule="evenodd" clip-rule="evenodd" d="M376.381 130.053L359.648 146.987C358.963 147.68 358.97 148.807 359.664 149.492L363.99 153.767C364.681 154.451 365.809 154.445 366.495 153.751L383.228 136.817C383.912 136.124 383.905 134.997 383.211 134.313L378.887 130.038C378.193 129.353 377.065 129.36 376.381 130.053Z" fill="#F0CA0C"/>
<path fill-rule="evenodd" clip-rule="evenodd" d="M365.293 143.915C366.239 142.954 377.269 131.475 376.988 131.196C376.701 130.912 365.467 142.194 364.522 143.155C364.002 143.686 360.676 146.59 361.422 147.02C361.917 147.85 364.923 144.288 365.293 143.915Z" fill="white"/>
<path fill-rule="evenodd" clip-rule="evenodd" d="M365.69 151.393L367.594 149.466L369.568 147.469L376.98 139.967L378.953 137.971L382.423 134.459C382.587 134.294 382.709 134.104 382.795 133.902L383.21 134.313C383.903 134.997 383.911 136.124 383.227 136.817L381.75 138.311L379.356 140.734L370.363 149.834L367.969 152.258L366.494 153.751C365.809 154.445 364.681 154.451 363.989 153.767L359.663 149.493C359.135 148.971 359.005 148.192 359.277 147.545L363.186 151.408C363.878 152.092 365.005 152.085 365.69 151.393Z" fill="#DC9E1A"/>
</g>
<g filter="url(#filter3_f_221_2)">
<path fill-rule="evenodd" clip-rule="evenodd" d="M360.207 26.7416C361.23 24.1619 364.108 21.4037 368.832 22.8307C373.556 24.2577 369.117 26.2855 365.77 27.1153C362.423 27.9455 360.207 26.7416 360.207 26.7416Z" fill="#657B29"/>
<path fill-rule="evenodd" clip-rule="evenodd" d="M361.934 17C361.024 17.6892 361.241 18.3442 362.621 19.1465C364.001 19.9489 365.414 23.1515 365.485 23.5153C365.557 23.8791 366.006 17.5894 361.934 17Z" fill="#657B29"/>
<path fill-rule="evenodd" clip-rule="evenodd" d="M358.445 35.9739C362.066 43.6892 364.392 44.5659 365.847 44.1323C367.302 43.6987 367.595 42.8992 367.595 42.8992C367.595 42.8992 368.757 43.7738 370.502 43.7047C372.247 43.6352 372.323 42.1085 372.323 42.1085C376.074 43.5094 375.951 39.6884 376.146 36.5005C376.447 31.5691 376.122 25.4359 375.193 23.9334C373.889 21.8222 369.882 25.1595 369.882 25.1595C369.882 25.1595 368.287 22.9753 365.741 23.4064C363.194 23.8383 362.171 26.5996 362.171 26.5996C354.492 25.732 354.888 28.3971 358.445 35.9739Z" fill="#EAB913"/>
<path d="M367.881 43.4692C367.792 43.4692 367.703 43.435 367.635 43.367C367.012 42.7412 362.093 34.4224 361.746 26.907C361.737 26.7124 361.887 26.5474 362.082 26.5386C362.28 26.5231 362.441 26.6799 362.45 26.8745C362.8 34.4361 367.781 42.4938 368.136 42.8702C368.268 43.0106 368.266 43.2341 368.128 43.3684C368.058 43.4353 367.969 43.4692 367.881 43.4692Z" fill="#D29A22"/>
<path d="M372.361 41.8793C372.343 41.8793 372.325 41.8779 372.307 41.8751C372.115 41.8458 371.982 41.6657 372.012 41.4732C372.174 40.4185 370.451 27.2133 369.556 25.0393C369.482 24.8591 369.568 24.6529 369.748 24.5789C369.929 24.5059 370.135 24.5905 370.209 24.7707C371.071 26.8657 372.92 40.202 372.709 41.58C372.682 41.7549 372.532 41.8793 372.361 41.8793Z" fill="#D29A22"/>
<path fill-rule="evenodd" clip-rule="evenodd" d="M358.835 31.9434C359.198 33.228 359.624 34.3857 360.142 35.6157C361.161 37.9631 362.325 39.9693 363.386 42.2195C363.45 42.3418 363.489 42.395 363.6 42.4751C363.67 42.5223 363.953 42.7084 363.886 42.823C363.847 42.8523 363.535 42.8202 363.48 42.8149C363.252 42.7839 363.114 42.6883 362.962 42.5156C361.323 40.7837 359.864 38.3587 358.783 36.2485C358.149 34.9536 357.655 33.7677 357.259 32.3799C357.098 31.7189 356.122 28.7929 357.495 28.9364C358.592 28.8159 358.453 30.4593 358.835 31.9434Z" fill="#F9E064"/>
<path fill-rule="evenodd" clip-rule="evenodd" d="M367.471 38.3421C367.448 38.4563 367.762 39.1638 367.823 39.3017C367.823 39.3017 368.058 39.8625 368.086 39.9263C368.121 40.0067 368.159 40.0846 368.194 40.1657C368.213 40.209 368.289 40.3201 368.272 40.3698C368.232 40.4519 368.071 40.3663 368.023 40.3377C367.929 40.2898 367.855 40.2274 367.779 40.1558C367.594 39.9915 367.445 39.8054 367.296 39.6087C366.33 38.2346 360.775 25.7038 364.045 26.3813C364.362 26.3168 367.117 37.0526 367.471 38.3421Z" fill="#F9E064"/>
<path fill-rule="evenodd" clip-rule="evenodd" d="M375.066 28.0544C375.313 30.0018 375.428 31.567 375.358 33.546C375.27 35.5928 375.182 37.0857 374.482 39.0249C374.482 39.0256 374.481 39.0154 374.481 39.0154C374.48 39.0143 374.425 39.2393 374.347 39.241C374.271 39.234 374.224 39.0817 374.204 39.0232C374.203 39.0182 374.205 38.9844 374.204 38.9837C374.122 37.2253 374.072 35.3122 374.01 33.5439C373.931 31.6642 373.687 30.1026 373.443 28.2638C373.322 27.2267 372.78 25.0929 373.939 25.1902C375.06 25.0308 374.895 26.7684 375.066 28.0544Z" fill="#F9E064"/>
<path fill-rule="evenodd" clip-rule="evenodd" d="M369.865 37.8299C370.234 39.2541 371.766 37.1985 370.404 37.1975C370.043 37.1975 369.842 37.4823 369.865 37.8299Z" fill="#D29A22"/>
<path fill-rule="evenodd" clip-rule="evenodd" d="M371.699 40.0106C371.319 41.4517 369.904 39.2079 371.281 39.424C371.581 39.4712 371.719 39.7233 371.699 40.0106Z" fill="#D29A22"/>
<path fill-rule="evenodd" clip-rule="evenodd" d="M369.77 41.3322C369.47 42.4631 368.489 40.5813 369.527 40.9271C369.713 40.9892 369.782 41.1482 369.77 41.3322Z" fill="#D29A22"/>
<path fill-rule="evenodd" clip-rule="evenodd" d="M372.124 33.9222C372.545 35.5328 374.275 33.2118 372.733 33.2087C372.326 33.208 372.098 33.5291 372.124 33.9222Z" fill="#D29A22"/>
</g>
<g filter="url(#filter4_f_221_2)">
<path fill-rule="evenodd" clip-rule="evenodd" d="M370.748 256.37C371.413 254.682 373.291 252.876 376.381 253.803C379.47 254.73 376.571 256.061 374.384 256.607C372.197 257.154 370.748 256.37 370.748 256.37Z" fill="#657B29"/>
<path fill-rule="evenodd" clip-rule="evenodd" d="M371.865 250C371.27 250.452 371.413 250.879 372.316 251.402C373.219 251.925 374.147 254.017 374.194 254.254C374.241 254.492 374.527 250.38 371.865 250Z" fill="#657B29"/>
<path fill-rule="evenodd" clip-rule="evenodd" d="M369.607 262.407C371.984 267.445 373.505 268.016 374.455 267.731C375.406 267.445 375.596 266.922 375.596 266.922C375.596 266.922 376.356 267.493 377.497 267.445C378.638 267.398 378.686 266.4 378.686 266.4C381.139 267.311 381.054 264.813 381.178 262.729C381.369 259.506 381.148 255.497 380.54 254.516C379.684 253.137 377.07 255.324 377.07 255.324C377.07 255.324 376.024 253.898 374.36 254.184C372.697 254.469 372.031 256.275 372.031 256.275C367.01 255.717 367.273 257.458 369.607 262.407Z" fill="#A51919"/>
<path d="M375.781 267.346C375.711 267.346 375.641 267.32 375.586 267.265C375.176 266.855 371.937 261.405 371.701 256.478C371.693 256.322 371.814 256.189 371.97 256.182C372.121 256.175 372.259 256.295 372.267 256.451C372.499 261.294 375.756 266.614 375.989 266.867C376.093 266.98 376.09 267.16 375.979 267.266C375.923 267.319 375.852 267.346 375.781 267.346Z" fill="#82210C"/>
<path d="M378.71 266.303C378.696 266.303 378.682 266.302 378.668 266.299C378.513 266.276 378.406 266.132 378.43 265.977C378.534 265.289 377.394 256.682 376.808 255.266C376.748 255.121 376.817 254.955 376.961 254.896C377.105 254.836 377.272 254.904 377.331 255.049C377.899 256.421 379.127 265.158 378.99 266.062C378.969 266.202 378.848 266.303 378.71 266.303Z" fill="#82210C"/>
<path fill-rule="evenodd" clip-rule="evenodd" d="M369.857 259.771C370.096 260.611 370.376 261.367 370.715 262.17C371.385 263.703 372.148 265.013 372.844 266.483C372.886 266.563 372.912 266.598 372.985 266.65C373.03 266.68 373.216 266.802 373.172 266.877C373.146 266.896 372.942 266.876 372.906 266.872C372.757 266.852 372.667 266.79 372.568 266.677C371.494 265.547 370.537 263.964 369.828 262.586C369.412 261.74 369.088 260.966 368.827 260.059C368.721 259.627 368.08 257.716 368.977 257.808C369.694 257.728 369.606 258.802 369.857 259.771Z" fill="#C52E27"/>
<path fill-rule="evenodd" clip-rule="evenodd" d="M375.51 263.944C375.495 264.018 375.701 264.48 375.741 264.57C375.741 264.57 375.895 264.936 375.914 264.978C375.937 265.031 375.961 265.081 375.984 265.134C375.997 265.163 376.047 265.235 376.036 265.268C376.009 265.322 375.904 265.266 375.873 265.247C375.812 265.216 375.763 265.176 375.713 265.129C375.592 265.022 375.494 264.9 375.396 264.772C374.764 263.875 371.117 255.691 373.255 256.13C373.463 256.087 375.277 263.101 375.51 263.944Z" fill="#C52E27"/>
<path fill-rule="evenodd" clip-rule="evenodd" d="M380.462 257.21C380.626 258.482 380.703 259.505 380.659 260.799C380.605 262.137 380.549 263.113 380.094 264.382L380.093 264.375C380.092 264.375 380.056 264.521 380.005 264.523C379.956 264.518 379.925 264.419 379.912 264.38C379.911 264.377 379.912 264.354 379.912 264.354C379.856 263.205 379.821 261.955 379.778 260.799C379.724 259.57 379.563 258.55 379.401 257.348C379.321 256.67 378.964 255.277 379.721 255.339C380.454 255.233 380.348 256.369 380.462 257.21Z" fill="#C52E27"/>
<path fill-rule="evenodd" clip-rule="evenodd" d="M377.074 263.606C377.317 264.536 378.316 263.191 377.425 263.192C377.19 263.192 377.059 263.379 377.074 263.606Z" fill="#82210C"/>
<path fill-rule="evenodd" clip-rule="evenodd" d="M378.276 265.029C378.029 265.972 377.102 264.507 378.002 264.646C378.198 264.676 378.289 264.841 378.276 265.029Z" fill="#82210C"/>
<path fill-rule="evenodd" clip-rule="evenodd" d="M377.016 265.896C376.822 266.635 376.178 265.406 376.857 265.631C376.978 265.671 377.024 265.775 377.016 265.896Z" fill="#82210C"/>
<path fill-rule="evenodd" clip-rule="evenodd" d="M378.546 261.049C378.823 262.101 379.951 260.582 378.943 260.582C378.677 260.582 378.528 260.792 378.546 261.049Z" fill="#82210C"/>
</g>
<g filter="url(#filter5_f_221_2)">
<path fill-rule="evenodd" clip-rule="evenodd" d="M-25.8121 297.884C4.166 264.201 43.4842 242.748 39.3741 261.396C35.2637 280.044 -10.1829 325.449 -22.9429 332.151C-35.7028 338.852 -63.4654 340.035 -25.8121 297.884Z" fill="#B38C52"/>
<path fill-rule="evenodd" clip-rule="evenodd" d="M-25.8124 297.884C-1.47454 270.539 29.0187 251.255 37.4321 254.944C37.3849 255.425 37.3048 255.937 37.1831 256.487C33.0734 275.135 -12.3734 320.54 -25.1333 327.242C-31.1785 330.417 -40.5871 332.349 -44.8161 329.026C-44.8587 323.414 -39.9407 313.699 -25.8124 297.884Z" fill="#D1A45B"/>
<path fill-rule="evenodd" clip-rule="evenodd" d="M18.7071 265.957C7.21011 273.402 -21.0124 293.928 -28.3947 305.514C-28.4246 305.566 -29.2968 307.508 -29.3009 307.51C-29.7183 307.328 -29.0432 305.481 -28.9389 305.233C-23.885 293.644 6.79956 270.496 17.2606 263.717C18.0642 263.213 30.9396 254.265 31.1892 257.483C31.8814 259.249 20.998 264.509 18.7071 265.957Z" fill="#E8C68F"/>
<path fill-rule="evenodd" clip-rule="evenodd" d="M16.54 270.646C17.533 271.86 22.7916 279.498 22.4802 280.847C21.0901 280.962 15.6337 273.697 14.5185 272.384C13.1711 270.831 11.5497 269.856 12.76 268.763C13.9353 267.241 15.3264 269.303 16.54 270.646Z" fill="#B38C52"/>
<path fill-rule="evenodd" clip-rule="evenodd" d="M8.40917 275.212C9.54728 276.416 18.2957 285.722 16.954 287.095C16.032 287.22 7.62929 278.23 6.49171 277.064C4.98597 275.482 4.21066 275.235 5.38701 274.147C6.57968 272.889 6.83096 273.619 8.40917 275.212Z" fill="#B38C52"/>
<path fill-rule="evenodd" clip-rule="evenodd" d="M0.659822 281.085C1.91013 282.503 8.97116 290.916 8.74344 292.408C8.03935 293.022 -0.51129 283.768 -1.32088 282.869C-2.62019 281.407 -4.36186 280.208 -3.01812 279.159C-1.76305 277.794 -0.691371 279.622 0.659822 281.085Z" fill="#B38C52"/>
<path fill-rule="evenodd" clip-rule="evenodd" d="M-7.31586 286.797C-6.08614 288.139 3.42906 298.349 2.50301 299.604C1.37165 300.099 -8.02242 289.93 -9.26401 288.617C-10.5404 287.226 -10.8638 287.281 -9.81588 286.207C-8.77162 285.143 -9.00421 285.037 -7.31586 286.797Z" fill="#B38C52"/>
</g>
<g filter="url(#filter6_f_221_2)">
<path fill-rule="evenodd" clip-rule="evenodd" d="M24.1668 195.322C28.0848 197.919 19.8088 196.864 22.5798 198.144C25.3728 199.435 27.2298 196.206 24.9348 199.932C22.6158 203.696 27.3728 199.266 27.1878 200.522C27.0108 201.721 25.6598 207.737 28.1998 202.682C31.8408 195.439 23.5598 193.683 22.5108 194.099C22.7588 194.649 23.6738 195.033 24.1668 195.322Z" fill="#B3639E"/>
<path fill-rule="evenodd" clip-rule="evenodd" d="M40.3458 180.612C25.8808 174.763 22.5097 185.814 27.6137 197.976C33.3017 211.527 47.1988 215.129 49.1708 197.226C50.2268 187.638 49.2747 191.911 55.0688 186.105C58.3848 182.782 51.2668 187.504 47.0688 185.128C44.9538 183.932 42.6628 182.02 40.3458 180.612Z" fill="#CD8BB7"/>
<path fill-rule="evenodd" clip-rule="evenodd" d="M52.0087 185.761C43.9327 190.451 36.5787 195.294 27.5597 197.871C28.0797 199.119 29.0127 198.22 31.2887 197.429C39.1317 194.702 54.8437 184.869 54.7397 184.893C54.2867 184.995 52.3437 185.581 52.0087 185.761ZM47.0247 185.251C48.1877 185.453 48.2897 185.956 49.9997 186.005C45.0877 186.406 40.4197 184.021 35.5107 184.569C28.7777 185.322 26.5477 188.134 26.1827 193.948C25.5087 191.645 25.1707 190.707 26.6847 188.484C31.4667 181.458 40.2777 184.362 47.0247 185.251ZM32.8757 205.967C32.7157 205.948 32.2797 205.437 32.1487 205.296C40.0157 205.131 44.8447 199.367 48.8047 193.44C50.3577 191.116 49.9017 193.046 49.4347 193.744C45.3777 199.809 40.8137 205.312 32.8757 205.967Z" fill="#B3639E"/>
<path fill-rule="evenodd" clip-rule="evenodd" d="M34.3018 179.773C39.6938 180.586 48.2057 186.069 41.4738 183.239C28.9657 177.982 29.6358 184.571 27.4498 183.979C26.1868 183.637 29.0528 179.436 34.3018 179.773Z" fill="#D9A0C4"/>
<path fill-rule="evenodd" clip-rule="evenodd" d="M36.7328 185.639C39.4268 185.822 52.2728 187.823 41.3068 187.198C36.6038 186.931 31.8968 186.094 29.1708 190.161C27.6438 192.442 26.4558 185.335 36.7328 185.639Z" fill="#D9A0C4"/>
<path fill-rule="evenodd" clip-rule="evenodd" d="M44.2997 206.786C47.0117 202.791 48.7527 193.256 46.4657 199.669C42.2607 211.457 38.6557 206.103 37.7157 207.903C37.2057 208.878 41.3027 210.432 44.2997 206.786Z" fill="#D9A0C4"/>
<path fill-rule="evenodd" clip-rule="evenodd" d="M42.2358 200.281C44.0688 198.294 52.5368 187.447 44.6248 195.895C41.4988 199.232 38.4248 203.387 33.7238 202.29C31.2888 201.721 34.5958 207.647 41.4338 201.055L42.2358 200.281Z" fill="#D9A0C4"/>
</g>
<g filter="url(#filter7_f_221_2)">
<path fill-rule="evenodd" clip-rule="evenodd" d="M98.9042 23.4765C107.022 26.7895 108.419 34.8525 114.51 38.4425C120.603 42.0325 123.849 34.5135 121.96 29.3175C120.07 24.1215 109.014 21.9475 102.468 21.5155C95.9252 21.0835 98.9042 23.4765 98.9042 23.4765Z" fill="#B8A380"/>
<path fill-rule="evenodd" clip-rule="evenodd" d="M82.2912 24.8625C82.9502 31.8475 91.3982 41.8955 97.9092 37.7625C104.42 33.6305 98.8272 29.3825 107.968 20.7635C117.109 12.1435 112.58 2.73952 102.003 3.00552C91.4272 3.27252 80.0232 10.4315 82.2912 24.8625Z" fill="#D0B994"/>
<path fill-rule="evenodd" clip-rule="evenodd" d="M82.2912 24.8625C82.8802 31.1015 89.6842 39.7835 95.7702 38.6215C99.3602 34.8945 95.9312 30.6915 104.009 23.0735C113.15 14.4545 108.621 5.0505 98.0442 5.3155C94.9242 5.3945 91.7312 6.07351 88.8392 7.36251C84.0552 10.9465 81.0172 16.7575 82.2912 24.8625Z" fill="#E9D7B8"/>
<path fill-rule="evenodd" clip-rule="evenodd" d="M86.0972 31.2555C85.0362 29.2615 84.4092 27.5145 83.9112 25.3075C83.3762 22.2395 83.4632 13.0665 86.3462 11.5505C86.5272 12.7195 83.9962 17.3245 85.7312 24.8785C86.2642 26.8795 86.8902 28.4725 87.8652 30.2935C88.8882 32.0525 91.0582 34.1095 90.0422 34.8835C88.8122 36.4515 86.5382 31.9955 86.0972 31.2555Z" fill="#F8EAD9"/>
<path fill-rule="evenodd" clip-rule="evenodd" d="M106.004 9.97052C107.372 10.3635 104.926 13.7575 104.317 11.0475C104.092 10.0435 104.635 9.57752 106.004 9.97052Z" fill="#D0B994"/>
<path fill-rule="evenodd" clip-rule="evenodd" d="M102.288 9.8675C103.451 10.2845 101.703 11.9925 101.355 10.4435C101.226 9.86851 101.896 9.8385 102.288 9.8675Z" fill="#D0B994"/>
<path fill-rule="evenodd" clip-rule="evenodd" d="M105.193 12.7915C106.356 13.2095 104.608 14.9175 104.259 13.3675C104.131 12.7935 104.802 12.7635 105.193 12.7915Z" fill="#D0B994"/>
<path fill-rule="evenodd" clip-rule="evenodd" d="M122.074 34.4615C116.779 26.7125 110.722 25.6635 106.019 28.9815C108.829 32.4045 110.797 36.2545 114.51 38.4425C118.603 40.8545 121.411 38.2525 122.241 34.7095C122.187 34.6275 122.131 34.5445 122.074 34.4615Z" fill="#E9D7B8"/>
</g>
<g filter="url(#filter8_f_221_2)">
<path fill-rule="evenodd" clip-rule="evenodd" d="M442.342 287.832C442.358 283.632 445.633 290.33 445.229 287.631C444.821 284.911 441.499 285.11 445.408 284.995C449.357 284.878 443.714 283.502 444.742 283.024C445.725 282.567 450.88 280.623 445.859 281.207C438.663 282.046 441.417 289.09 442.243 289.669C442.531 289.213 442.369 288.342 442.342 287.832Z" fill="#B3639E"/>
<path fill-rule="evenodd" clip-rule="evenodd" d="M423.415 282.974C426.15 296.646 436.057 293.737 442.632 283.954C449.957 273.054 445.823 260.909 431.487 268.227C423.809 272.146 427.468 270.759 420.287 269.283C416.178 268.438 423.199 271.434 423.487 275.736C423.632 277.903 423.33 280.553 423.415 282.974Z" fill="#CD8BB7"/>
<path fill-rule="evenodd" clip-rule="evenodd" d="M421.533 271.737C429.001 275.465 436.227 278.577 442.581 284.046C443.256 283.045 442.127 282.79 440.419 281.479C434.532 276.962 419.476 270.058 419.545 270.124C419.843 270.413 421.234 271.575 421.533 271.737ZM423.599 275.709C423.179 274.742 423.505 274.418 422.701 273.117C425.413 276.587 425.923 281.244 428.743 284.64C432.61 289.299 435.806 289.582 440.325 287C438.937 288.634 438.402 289.347 435.999 289.308C428.407 289.187 426.249 281.184 423.599 275.709ZM446.014 276.102C446.079 276.231 445.911 276.807 445.871 276.974C441.884 271.181 435.209 270.406 428.84 270.359C426.342 270.341 428.007 269.733 428.757 269.739C435.278 269.792 441.629 270.497 446.014 276.102Z" fill="#B3639E"/>
<path fill-rule="evenodd" clip-rule="evenodd" d="M425.757 287.898C423.717 283.473 423.63 274.425 424.823 280.841C427.039 292.762 431.63 289.027 432.26 290.949C432.626 292.06 428.082 291.983 425.757 287.898Z" fill="#D9A0C4"/>
<path fill-rule="evenodd" clip-rule="evenodd" d="M428.942 283.203C427.757 281.102 422.943 270.528 427.861 279.022C429.97 282.666 431.657 286.591 436.032 286.629C438.485 286.65 433.762 291.026 428.942 283.203Z" fill="#D9A0C4"/>
<path fill-rule="evenodd" clip-rule="evenodd" d="M441.017 267.17C436.702 267.107 428.728 270.488 434.639 269.047C445.505 266.398 443.278 271.718 445.083 271.537C446.062 271.44 445.211 267.617 441.017 267.17Z" fill="#D9A0C4"/>
<path fill-rule="evenodd" clip-rule="evenodd" d="M437.173 271.905C434.789 271.512 422.533 270.516 432.727 272.276C436.752 272.971 441.365 273.226 442.853 277.275C443.624 279.372 446.425 273.994 438.146 272.125L437.173 271.905Z" fill="#D9A0C4"/>
</g>
<g filter="url(#filter9_f_221_2)">
<path fill-rule="evenodd" clip-rule="evenodd" d="M277.698 16.9262C287.669 20.6143 286.81 19.5526 290.578 27.8074C294.346 36.0623 293.085 44.0273 287.918 48.6229C282.752 53.2185 278.69 50.1413 270.848 49.7726C263.006 49.4038 261.184 50.9822 257.266 48.0573C253.348 45.132 249.63 45.6199 252.322 39.4727C255.013 33.3263 258.867 17.4334 277.698 16.9262Z" fill="#93A840"/>
<path fill-rule="evenodd" clip-rule="evenodd" d="M292.737 38.0536C292.537 42.2907 290.862 46.0036 287.918 48.6229C282.752 53.2185 278.69 50.1413 270.848 49.7726C263.006 49.4038 261.184 50.9822 257.266 48.0573C253.348 45.132 249.63 45.6199 252.322 39.4727C252.7 38.6086 253.102 37.5512 253.564 36.3711C256.031 36.1447 258.964 36.0887 262.459 36.2161C262.013 43.9165 264.508 45.2531 272.159 47.4255C279.811 49.5975 287.314 48.8875 289.281 44.4532C290.184 42.4154 291.512 40.0004 292.737 38.0536Z" fill="#809337"/>
<path fill-rule="evenodd" clip-rule="evenodd" d="M277.698 16.9262C283.673 19.1361 285.759 19.6413 287.282 21.4674C287.789 22.7125 287.761 24.0425 287.285 25.3925C285.836 29.5002 283.159 29.8694 275.211 28.0161C267.263 26.1628 266.693 30.5911 266.725 34.741C266.756 38.8902 260.499 46.5495 254.788 44.2667C253.097 43.5911 252.067 42.8831 251.467 42.1294C251.579 41.4092 251.853 40.5419 252.321 39.4731C255.013 33.3263 258.867 17.4334 277.698 16.9262Z" fill="#809337"/>
<path fill-rule="evenodd" clip-rule="evenodd" d="M276.579 47.8053C276.64 47.6534 276.701 47.5012 276.759 47.3486C277.673 44.9344 278.242 42.7478 278.645 40.1953C278.959 37.8923 279.085 35.8091 278.681 33.5081C278.487 32.6034 278.259 31.8773 277.789 31.077C277.586 30.771 276.206 29.572 276.176 29.43C276.583 29.1125 278.017 30.4081 278.287 30.7201C278.925 31.5314 279.25 32.3095 279.543 33.294C280.195 35.6876 280.172 37.9026 279.936 40.3546C279.624 43.0507 279.096 45.3402 278.151 47.883C278.089 48.0447 278.025 48.2052 277.96 48.3665C277.883 48.5381 277.458 49.5111 276.914 50.5369C276.373 50.4419 275.812 50.3437 275.23 50.2502C275.723 49.3892 276.276 48.4892 276.579 47.8053Z" fill="#ACBE49"/>
<path fill-rule="evenodd" clip-rule="evenodd" d="M268.39 31.8674C268.39 31.8682 268.388 31.8627 268.388 31.8595C268.39 31.8599 268.372 31.5665 268.444 31.548C268.506 31.5318 268.626 31.7523 268.642 31.7933C268.644 31.7984 268.638 31.7799 268.638 31.7799C272.632 38.7446 280.534 37.6454 280.568 38.5305C281.599 41.5406 269.098 37.4774 268.39 31.8674Z" fill="#ACBE49"/>
<path fill-rule="evenodd" clip-rule="evenodd" d="M282.141 36.4985C283.036 35.9396 283.924 35.4297 284.742 34.7548C285.497 34.0844 285.894 33.5275 286.302 32.6014C286.591 31.9191 287.441 28.5063 287.497 28.4613C288.013 28.9275 287.496 32.319 287.329 32.967C286.95 34.125 286.519 34.8653 285.669 35.7385C284.807 36.5766 283.94 37.1284 282.933 37.7622C282.339 38.1321 280.122 40.1353 279.605 39.1942C278.663 38.31 281.551 36.8775 282.141 36.4985Z" fill="#ACBE49"/>
<path fill-rule="evenodd" clip-rule="evenodd" d="M274.339 45.5201C274.335 45.5185 274.316 45.513 274.314 45.513C272.769 45.0559 271.593 44.4556 270.275 43.5299C268.959 42.5522 268.027 41.6202 267.143 40.2347C266.796 39.6348 265.447 36.6133 266.096 36.0777C266.122 36.0923 267.67 39.2712 267.961 39.6632C268.891 40.8192 269.796 41.5974 271.034 42.4106C272.259 43.1754 273.334 43.6739 274.719 44.0785C274.723 44.0805 274.737 44.0833 274.742 44.0849C276.39 44.4749 278.143 44.1626 278.173 45.0535C278.615 46.5546 274.915 45.6495 274.339 45.5201Z" fill="#ACBE49"/>
<path fill-rule="evenodd" clip-rule="evenodd" d="M281.193 43.6644C282.466 43.2187 283.5 42.7888 284.654 42.075C285.784 41.3363 286.52 40.6551 287.296 39.5457C287.65 39.003 289.127 35.3468 289.156 35.3271C289.748 35.9436 288.577 39.3421 288.209 40.0903C287.449 41.4352 286.664 42.2852 285.427 43.203C284.19 44.0643 283.093 44.5751 281.68 45.0736C281.058 45.2732 278.151 46.6079 278.007 45.4108C277.586 44.372 280.016 44.0569 281.193 43.6644Z" fill="#ACBE49"/>
<path fill-rule="evenodd" clip-rule="evenodd" d="M273.637 49.0043C271.784 48.8193 270.139 48.5302 268.344 48.0198C266.748 47.5312 265.435 47.0015 264.076 46.0166C263.466 45.5544 263.017 45.1324 262.571 44.5088C262.425 44.2884 261.623 42.8756 261.91 42.6161C261.956 42.6216 262.91 43.8892 263.088 44.075C263.571 44.5483 264.019 44.8733 264.6 45.2196C265.942 45.9681 267.197 46.3685 268.683 46.7325C270.411 47.1289 272.019 47.3489 273.777 47.5197C274.98 47.6266 277.275 47.3809 277.132 48.4186C277.235 49.7185 274.359 49.0599 273.637 49.0043Z" fill="#ACBE49"/>
<path fill-rule="evenodd" clip-rule="evenodd" d="M280.161 47.6798C281.435 47.5844 282.543 47.442 283.788 47.1312C285.028 46.8011 285.99 46.4308 287.044 45.6857C287.635 45.2247 289.261 42.8015 289.391 42.7466C290.001 43.4037 288.278 45.8979 287.715 46.4738C286.619 47.4665 285.568 47.9839 284.176 48.4497C282.835 48.8583 281.659 49.0587 280.267 49.1667C279.221 49.218 277.321 49.6148 277.439 48.5251C277.383 47.4381 278.843 47.7619 280.161 47.6798Z" fill="#ACBE49"/>
<path fill-rule="evenodd" clip-rule="evenodd" d="M274.372 14.0175C266.822 13.8053 257.293 15.4634 255.325 22.2235C253.357 28.9835 249.602 30.8037 249.058 34.3443C248.514 37.8848 251.929 42.8697 254.573 43.6849C257.217 44.5002 264.379 37.4419 264.347 33.2924C264.316 29.1429 264.885 24.7145 272.834 26.5674C280.782 28.4207 283.459 28.052 284.908 23.9443C286.357 19.8365 283.653 15.9083 274.372 14.0175Z" fill="#93A840"/>
<path fill-rule="evenodd" clip-rule="evenodd" d="M261.496 15.9911C266.785 16.1828 268.958 17.7367 273.607 20.9637C274.567 21.65 276.451 22.8277 276.266 24.4006C275.926 24.3828 273.292 21.7612 273.145 21.6646C268.088 18.578 266.366 17.4602 260.492 17.4618C260.212 17.4634 259.548 17.4993 258.75 17.5237C259.572 16.9262 260.497 16.4186 261.496 15.9911Z" fill="#ACBE49"/>
<path fill-rule="evenodd" clip-rule="evenodd" d="M257.244 19.2788C257.628 21.8196 257.993 22.8786 259.586 25.0012C260.127 25.7478 260.706 26.4392 261.343 27.1054C261.696 27.4702 262.036 27.7964 262.432 28.1119C262.555 28.1995 263.434 28.6968 263.444 28.7232C263.367 29.051 262.314 28.6747 262.148 28.6025C261.635 28.3714 261.22 28.0831 260.777 27.7392C260.004 27.1129 259.369 26.4751 258.685 25.7601C257.127 23.9249 256.418 22.6624 255.977 20.6265C256.311 20.0026 256.719 19.4315 257.191 18.9109C257.21 19.0501 257.227 19.1755 257.244 19.2788Z" fill="#ACBE49"/>
<path fill-rule="evenodd" clip-rule="evenodd" d="M256.018 23.1866C255.921 23.9509 255.837 24.7117 255.766 25.4793C255.649 26.7784 255.568 28.0488 255.553 29.3535C255.562 30.1218 255.583 31.1437 255.803 31.8828C256.066 32.6286 256.317 33.2955 256.679 34.0031C256.872 34.3742 257.063 34.6984 257.331 35.0207C257.451 35.1516 257.557 35.2542 257.701 35.3571C257.779 35.408 258.125 35.5669 258.138 35.6115C258.111 35.7645 257.652 35.69 257.565 35.6691C257.349 35.6087 257.19 35.52 257.008 35.391C256.613 35.1063 256.342 34.7805 256.057 34.3892C255.57 33.6789 255.274 33.0483 254.874 32.3052C254.454 31.4312 254.366 30.356 254.302 29.4004C254.216 28.0358 254.238 26.7354 254.317 25.3716C254.327 25.2217 254.338 25.0726 254.348 24.9239C254.702 24.1178 255.033 23.2248 255.325 22.2234C255.591 21.3108 255.995 20.492 256.513 19.7576C256.692 20.1599 256.389 20.7251 256.217 21.749C256.148 22.2278 256.081 22.7062 256.018 23.1866Z" fill="#ACBE49"/>
<path fill-rule="evenodd" clip-rule="evenodd" d="M290.439 36.0359C290.347 34.4744 288.758 26.7244 288.781 26.5785C290.356 27.471 291.469 34.1431 291.596 35.9743C291.615 36.48 292.013 38.9679 291.089 38.8129C290.155 38.9166 290.467 36.6113 290.439 36.0359Z" fill="#C1CF7B"/>
<path fill-rule="evenodd" clip-rule="evenodd" d="M271.784 14.8572C272.842 14.8994 273.78 15.0031 274.821 15.2043C277.51 15.786 279.366 16.6411 281.541 18.3299C282.553 19.1503 284.061 20.8845 284.235 22.2329C284.132 22.1907 281.616 19.3321 281.087 18.9405C278.929 17.4894 277.172 16.7775 274.619 16.3003C273.638 16.1378 272.735 16.0542 271.743 16.0152C270.687 15.9982 267.29 16.4537 267.383 15.6606C267.02 14.589 271.266 14.8529 271.784 14.8572Z" fill="#C1CF7B"/>
<path fill-rule="evenodd" clip-rule="evenodd" d="M263.869 29.9964C263.768 33.2841 263.567 35.8935 260.343 37.6608C259.53 38.1061 261.888 35.8233 261.997 35.6912C264.751 32.3707 260.569 26.6652 266.852 24.0776C269.576 22.9555 273.189 24.3738 276.227 24.6439C283.66 25.3057 283.347 22.4424 283.607 22.3737C285.044 21.9935 284.832 26.0792 277.802 25.8851C275.289 25.8157 272.89 25.355 270.453 24.791C267.369 24.0776 264.006 26.0567 263.891 29.3468L263.869 29.9964Z" fill="#C1CF7B"/>
<path fill-rule="evenodd" clip-rule="evenodd" d="M274.294 40.6543C274.165 40.6543 274.059 40.549 274.059 40.4196C274.059 40.2903 274.165 40.185 274.294 40.185C276.156 40.185 277.985 40.2019 279.826 40.5115C281.673 40.8223 283.522 41.4269 285.404 42.6038C289.144 44.9411 289.895 45.8963 289.897 45.8987C289.978 45.9993 289.962 46.1464 289.861 46.2272C289.761 46.3085 289.613 46.2923 289.532 46.1917C289.53 46.189 288.829 45.296 285.156 43.001C283.333 41.8604 281.54 41.2743 279.748 40.9726C277.95 40.6713 276.139 40.6543 274.294 40.6543Z" fill="#70822F"/>
<path fill-rule="evenodd" clip-rule="evenodd" d="M272.042 41.7283C272.05 41.5993 272.162 41.5015 272.291 41.5101C272.42 41.5184 272.518 41.6301 272.509 41.759C272.429 42.9478 272.564 43.8758 272.895 44.7285C273.228 45.5867 273.763 46.3802 274.479 47.2905C275.923 49.1292 277.291 50.3345 277.295 50.3381C277.392 50.4237 277.401 50.5712 277.316 50.6678C277.23 50.7644 277.082 50.7735 276.986 50.6879C276.981 50.6844 275.578 49.4475 274.111 47.5804C273.37 46.6374 272.813 45.8095 272.459 44.8973C272.102 43.9795 271.956 42.9884 272.042 41.7283Z" fill="#70822F"/>
<path fill-rule="evenodd" clip-rule="evenodd" d="M271.085 44.7817C271.107 44.6543 271.227 44.5688 271.355 44.5905C271.483 44.6122 271.568 44.7332 271.547 44.8606C271.348 46.0012 271.05 47.7196 270.866 49.4124C270.682 51.0954 270.607 52.757 270.849 53.8029C271.334 55.9102 272.3 57.2926 272.302 57.2962C272.376 57.4027 272.349 57.5482 272.243 57.6215C272.136 57.6945 271.991 57.6681 271.918 57.562C271.915 57.5577 270.899 56.1023 270.393 53.9071C270.138 52.8023 270.212 51.0882 270.401 49.3627C270.588 47.6479 270.886 45.9247 271.085 44.7817Z" fill="#70822F"/>
<path fill-rule="evenodd" clip-rule="evenodd" d="M275.274 64.1548C275.198 64.2582 275.051 64.2791 274.948 64.2018C274.844 64.1245 274.824 63.9777 274.901 63.8748C275.224 63.4433 275.555 63.0328 275.887 62.6206C277.419 60.718 278.984 58.7732 279.09 55.7994L279.103 55.4042C279.131 54.5842 279.157 53.7816 279.26 53.039C279.622 50.4327 280.872 48.5723 286.04 49.2886C287.344 49.4692 288.538 49.6569 289.61 49.8254C293.849 50.4919 296.14 50.852 297.705 49.539C298.6 48.7877 299.263 47.8127 299.685 46.8804C300.188 45.7677 300.349 44.7372 300.153 44.2461C300.105 44.1258 300.163 43.9902 300.283 43.9416C300.403 43.8939 300.539 43.9519 300.587 44.0718C300.826 44.6709 300.666 45.847 300.112 47.0724C299.664 48.0612 298.96 49.0969 298.005 49.8975C296.278 51.3458 293.914 50.9743 289.538 50.2864C288.487 50.1208 287.315 49.9366 285.976 49.7512C281.198 49.089 280.048 50.7585 279.723 53.1021C279.623 53.8254 279.597 54.6134 279.57 55.418L279.557 55.8152C279.445 58.9452 277.831 60.9507 276.251 62.9129C275.916 63.3301 275.583 63.7446 275.274 64.1548Z" fill="#70822F"/>
</g>
<defs>
<filter id="filter0_f_221_2" x="-69.5187" y="52.0046" width="119.52" height="123.726" filterUnits="userSpaceOnUse" color-interpolation-filters="sRGB">
<feFlood flood-opacity="0" result="BackgroundImageFix"/>
<feBlend mode="normal" in="SourceGraphic" in2="BackgroundImageFix" result="shape"/>
<feGaussianBlur stdDeviation="1.5" result="effect1_foregroundBlur_221_2"/>
</filter>
<filter id="filter1_f_221_2" x="398.849" y="81.5457" width="97.9001" height="106.588" filterUnits="userSpaceOnUse" color-interpolation-filters="sRGB">
<feFlood flood-opacity="0" result="BackgroundImageFix"/>
<feBlend mode="normal" in="SourceGraphic" in2="BackgroundImageFix" result="shape"/>
<feGaussianBlur stdDeviation="1" result="effect1_foregroundBlur_221_2"/>
</filter>
<filter id="filter2_f_221_2" x="352.561" y="123.215" width="115.904" height="114.88" filterUnits="userSpaceOnUse" color-interpolation-filters="sRGB">
<feFlood flood-opacity="0" result="BackgroundImageFix"/>
<feBlend mode="normal" in="SourceGraphic" in2="BackgroundImageFix" result="shape"/>
<feGaussianBlur stdDeviation="1" result="effect1_foregroundBlur_221_2"/>
</filter>
<filter id="filter3_f_221_2" x="354" y="15" width="24.2547" height="31.2228" filterUnits="userSpaceOnUse" color-interpolation-filters="sRGB">
<feFlood flood-opacity="0" result="BackgroundImageFix"/>
<feBlend mode="normal" in="SourceGraphic" in2="BackgroundImageFix" result="shape"/>
<feGaussianBlur stdDeviation="1" result="effect1_foregroundBlur_221_2"/>
</filter>
<filter id="filter4_f_221_2" x="366" y="248" width="17.2444" height="21.7905" filterUnits="userSpaceOnUse" color-interpolation-filters="sRGB">
<feFlood flood-opacity="0" result="BackgroundImageFix"/>
<feBlend mode="normal" in="SourceGraphic" in2="BackgroundImageFix" result="shape"/>
<feGaussianBlur stdDeviation="1" result="effect1_foregroundBlur_221_2"/>
</filter>
<filter id="filter5_f_221_2" x="-46.8164" y="252.491" width="88.4881" height="85.1801" filterUnits="userSpaceOnUse" color-interpolation-filters="sRGB">
<feFlood flood-opacity="0" result="BackgroundImageFix"/>
<feBlend mode="normal" in="SourceGraphic" in2="BackgroundImageFix" result="shape"/>
<feGaussianBlur stdDeviation="1" result="effect1_foregroundBlur_221_2"/>
</filter>
<filter id="filter6_f_221_2" x="20" y="177" width="37.9231" height="34.4203" filterUnits="userSpaceOnUse" color-interpolation-filters="sRGB">
<feFlood flood-opacity="0" result="BackgroundImageFix"/>
<feBlend mode="normal" in="SourceGraphic" in2="BackgroundImageFix" result="shape"/>
<feGaussianBlur stdDeviation="1" result="effect1_foregroundBlur_221_2"/>
</filter>
<filter id="filter7_f_221_2" x="79" y="0" width="46.4965" height="42.3799" filterUnits="userSpaceOnUse" color-interpolation-filters="sRGB">
<feFlood flood-opacity="0" result="BackgroundImageFix"/>
<feBlend mode="normal" in="SourceGraphic" in2="BackgroundImageFix" result="shape"/>
<feGaussianBlur stdDeviation="1.5" result="effect1_foregroundBlur_221_2"/>
</filter>
<filter id="filter8_f_221_2" x="415" y="262" width="37.0231" height="34.2747" filterUnits="userSpaceOnUse" color-interpolation-filters="sRGB">
<feFlood flood-opacity="0" result="BackgroundImageFix"/>
<feBlend mode="normal" in="SourceGraphic" in2="BackgroundImageFix" result="shape"/>
<feGaussianBlur stdDeviation="2" result="effect1_foregroundBlur_221_2"/>
</filter>
<filter id="filter9_f_221_2" x="247" y="12" width="55.6946" height="54.2484" filterUnits="userSpaceOnUse" color-interpolation-filters="sRGB">
<feFlood flood-opacity="0" result="BackgroundImageFix"/>
<feBlend mode="normal" in="SourceGraphic" in2="BackgroundImageFix" result="shape"/>
<feGaussianBlur stdDeviation="1" result="effect1_foregroundBlur_221_2"/>
</filter>
</defs>
</svg>
