<svg width="24" height="30" viewBox="0 0 24 30" fill="none" xmlns="http://www.w3.org/2000/svg">
<path d="M4.03606 7.50005C4.03606 5.51121 4.8266 3.6028 6.23345 2.19641C7.64031 0.790009 9.54967 0 11.5395 0C13.5293 0 15.4385 0.790181 16.8455 2.19641C18.2525 3.60263 19.0429 5.51114 19.0429 7.50005C19.0429 9.48896 18.2524 11.3973 16.8455 12.8037C15.4386 14.2101 13.5293 15.0001 11.5395 15.0001C9.54974 14.9974 7.64322 14.2072 6.2362 12.801C4.82931 11.3947 4.03877 9.48889 4.03606 7.50005ZM22.9887 26.1C22.1419 22.6636 19.7945 19.788 16.5947 18.2705C13.3951 16.7531 9.68372 16.7531 6.48378 18.2705C3.28415 19.7879 0.936621 22.6632 0.0897293 26.1C-0.13805 27.0268 0.07633 28.0058 0.671234 28.7518C1.28491 29.542 2.23087 30.0027 3.23174 30H19.8465C20.8474 30.0027 21.7933 29.542 22.407 28.7518C23.0019 28.0058 23.2165 27.0268 22.9887 26.1Z" fill="#8E8E8E"/>
</svg>
