<svg width="24" height="30" viewBox="0 0 24 30" fill="none" xmlns="http://www.w3.org/2000/svg">
<path d="M4.03591 7.50005C4.03591 5.51121 4.82644 3.6028 6.2333 2.19641C7.64016 0.790009 9.54952 0 11.5393 0C13.5291 0 15.4383 0.790181 16.8453 2.19641C18.2524 3.60263 19.0427 5.51114 19.0427 7.50005C19.0427 9.48896 18.2522 11.3973 16.8453 12.8037C15.4385 14.2101 13.5291 15.0001 11.5393 15.0001C9.54959 14.9974 7.64307 14.2072 6.23604 12.801C4.82915 11.3947 4.03862 9.48889 4.03591 7.50005ZM22.9886 26.1C22.1418 22.6636 19.7943 19.788 16.5945 18.2705C13.3949 16.7531 9.68357 16.7531 6.48363 18.2705C3.284 19.7879 0.936469 22.6632 0.0895767 26.1C-0.138203 27.0268 0.0761775 28.0058 0.671082 28.7518C1.28476 29.542 2.23071 30.0027 3.23158 30H19.8463C20.8472 30.0027 21.7932 29.542 22.4068 28.7518C23.0017 28.0058 23.2164 27.0268 22.9886 26.1Z" fill="#088B46"/>
</svg>
