<svg width="12" height="16" viewBox="0 0 12 16" fill="none" xmlns="http://www.w3.org/2000/svg">
<path d="M8.45808 9.0011C7.15956 9.0011 6.10304 10.0576 6.10304 11.3561C6.10304 12.6547 7.15956 13.7112 8.45808 13.7112C9.7566 13.7112 10.8131 12.6547 10.8131 11.3561C10.8131 10.0576 9.7566 9.0011 8.45808 9.0011ZM9.64446 11.6217H8.7532V12.513C8.7532 12.6783 8.62335 12.8081 8.45808 12.8081C8.29282 12.8081 8.16296 12.6783 8.16296 12.513V11.6217H7.27171C7.10644 11.6217 6.97659 11.4919 6.97659 11.3266C6.97659 11.1614 7.10644 11.0315 7.27171 11.0315H8.16296V10.1462C8.16296 9.98089 8.29282 9.85104 8.45808 9.85104C8.62335 9.85104 8.7532 9.98089 8.7532 10.1462V11.0315H9.64446C9.80972 11.0315 9.93957 11.1614 9.93957 11.3266C9.93957 11.4919 9.80972 11.6217 9.64446 11.6217ZM5.86104 15.3461C5.68988 15.3461 5.53051 15.2753 5.41837 15.1455C4.86354 14.5139 0 8.90666 0 5.86104C0 2.63245 2.62655 0 5.86104 0C9.09554 0 11.7221 2.62655 11.7221 5.86104C11.7221 6.22109 11.6572 6.63425 11.5214 7.08283C11.427 7.39566 11.1023 7.57273 10.7895 7.47829C10.4767 7.38385 10.2996 7.05922 10.3941 6.7464C10.4944 6.40406 10.5475 6.10894 10.5475 5.86104C10.5475 3.28171 8.44628 1.18047 5.86695 1.18047C3.28762 1.18047 1.18637 3.28171 1.18637 5.86104C1.18637 7.86194 4.2379 11.911 5.86695 13.8469C5.88465 13.8292 5.90236 13.8056 5.92007 13.7879C6.12665 13.54 6.4985 13.5046 6.7523 13.7112C7.0002 13.9178 7.03561 14.2896 6.82903 14.5434C6.5103 14.9212 6.31553 15.1455 6.31553 15.1455C6.20338 15.2753 6.04402 15.3461 5.87285 15.3461H5.86104ZM5.86104 8.2633C4.39726 8.2633 3.20498 7.07103 3.20498 5.60724C3.20498 4.14346 4.39726 2.95118 5.86104 2.95118C7.32483 2.95118 8.51711 4.14346 8.51711 5.60724C8.51711 7.07103 7.32483 8.2633 5.86104 8.2633ZM5.86104 4.13165C5.04652 4.13165 4.38545 4.79272 4.38545 5.60724C4.38545 6.42177 5.04652 7.08283 5.86104 7.08283C6.67557 7.08283 7.33663 6.42177 7.33663 5.60724C7.33663 4.79272 6.67557 4.13165 5.86104 4.13165ZM10.8899 8.43447C10.8899 8.7591 10.6242 9.02471 10.2996 9.02471C9.97499 9.02471 9.70938 8.7591 9.70938 8.43447C9.70938 8.10984 9.97499 7.84424 10.2996 7.84424C10.6242 7.84424 10.8899 8.10984 10.8899 8.43447Z" fill="white"/>
</svg>
