<svg width="30" height="24" viewBox="0 0 30 24" fill="none" xmlns="http://www.w3.org/2000/svg">
<path d="M0.714814 1.42816C0.320115 1.42816 0.000732422 1.10878 0.000732422 0.714082C0.000732422 0.319382 0.320115 0 0.714814 0H5.13373C5.4655 0 5.74484 0.225951 5.82493 0.532939L6.61242 2.77338H17.6974H29.2867C29.6814 2.77338 30.0007 3.09276 30.0007 3.48746C30.0007 3.57803 29.9836 3.66479 29.9531 3.74488L28.2513 9.15435C28.2446 9.18295 28.2351 9.21156 28.2246 9.2392L27.1263 12.7276C27.0395 13.0051 26.8002 13.1919 26.5295 13.2234L17.8184 14.2607C17.7956 14.2645 17.7708 14.2673 17.7469 14.2692L10.1075 15.1788L8.60784 15.6345V17.9369H11.9399H21.3784H25.8402C26.2349 17.9369 26.5543 18.2563 26.5543 18.651C26.5543 19.0457 26.2349 19.365 25.8402 19.365H23.7237C23.9115 19.7273 24.0173 20.1392 24.0173 20.5758C24.0173 21.3042 23.7218 21.9649 23.2441 22.4416C22.7665 22.9192 22.1067 23.2148 21.3784 23.2148C20.649 23.2148 19.9893 22.9192 19.5126 22.4416C19.035 21.964 18.7394 21.3042 18.7394 20.5758C18.7394 20.1392 18.8452 19.7273 19.0331 19.365H14.2862C14.473 19.7273 14.5798 20.1392 14.5798 20.5758C14.5798 21.3042 14.2843 21.9649 13.8066 22.4416C13.329 22.9192 12.6692 23.2148 11.9409 23.2148C11.2115 23.2148 10.5518 22.9192 10.0751 22.4416C9.59745 21.964 9.3019 21.3042 9.3019 20.5758C9.3019 20.1392 9.40773 19.7273 9.59555 19.365H7.89472C7.50002 19.365 7.18063 19.0457 7.18063 18.651V15.1073H7.1835C7.1835 14.8022 7.3818 14.519 7.68879 14.4265L9.05593 14.0118L7.38943 9.27257C7.37417 9.2373 7.36082 9.20107 7.35129 9.16389L5.43786 3.72199L5.4369 3.71818L4.6313 1.42816H0.715767H0.714814ZM22.2355 19.7207C22.0162 19.5014 21.714 19.366 21.3793 19.366C21.0447 19.366 20.7415 19.5014 20.5232 19.7207C20.3039 19.9399 20.1685 20.2422 20.1685 20.5768C20.1685 20.9114 20.3039 21.2146 20.5232 21.4329C20.7425 21.6522 21.0447 21.7876 21.3793 21.7876C21.714 21.7876 22.0162 21.6513 22.2355 21.4329C22.4547 21.2137 22.5901 20.9114 22.5901 20.5768C22.5901 20.2422 22.4547 19.939 22.2355 19.7207ZM12.797 19.7207C12.5777 19.5014 12.2755 19.366 11.9409 19.366C11.6062 19.366 11.303 19.5014 11.0847 19.7207C10.8654 19.9399 10.7301 20.2422 10.7301 20.5768C10.7301 20.9114 10.8654 21.2146 11.0847 21.4329C11.304 21.6522 11.6062 21.7876 11.9409 21.7876C12.2755 21.7876 12.5787 21.6513 12.797 21.4329C13.0163 21.2137 13.1517 20.9114 13.1517 20.5768C13.1517 20.2422 13.0163 19.939 12.797 19.7207ZM8.54492 8.26771H11.8551L11.4403 4.20154H7.11485L8.54492 8.26771ZM13.2861 8.26771H16.9833V4.20154H12.8714L13.2861 8.26771ZM18.4114 8.26771H22.1087L22.5234 4.20154H18.4114V8.26771ZM23.5406 8.26771H27.0348L28.3142 4.20154H23.9554L23.5406 8.26771ZM26.5848 9.69587H23.3948L23.1402 12.1899L25.9041 11.861L26.5857 9.69587H26.5848ZM21.9628 9.69587H18.4114V12.7524L21.6901 12.3625L21.9618 9.69587H21.9628ZM16.9833 9.69587H13.4319L13.8 13.3016L16.9833 12.9231V9.69587ZM12.0009 9.69587H9.04735L10.4555 13.7001L12.3861 13.4703L12.0009 9.69587Z" fill="#8E8E8E"/>
</svg>
