<svg width="26" height="21" viewBox="0 0 26 21" fill="none" xmlns="http://www.w3.org/2000/svg">
<path fill-rule="evenodd" clip-rule="evenodd" d="M8.22944 14.0148C8.32585 14.3607 8.64096 14.6 9.00007 14.6H21.8C22.146 14.6 22.4529 14.3775 22.5604 14.0486L25.9604 3.64869C26.1294 3.13153 25.7441 2.60011 25.2 2.60011H10.1937C9.75189 2.60011 9.39372 2.95828 9.39372 3.4001C9.39372 3.84193 9.75189 4.2001 10.1937 4.2001L24.1062 4.17178L21.221 13.0012L9.61417 13.0236L6.37072 1.38535C6.2873 1.08603 6.03811 0.862088 5.73161 0.811005L0.931639 0.0110096C0.495825 -0.061626 0.0836452 0.232788 0.0110096 0.668602C-0.061626 1.10442 0.232788 1.51659 0.668602 1.58923L4.96462 2.30523L8.22944 14.0148ZM13 18.4C13 16.9641 11.836 15.8 10.4001 15.8C8.96413 15.8 7.80008 16.9641 7.80008 18.4C7.80008 19.8359 8.96413 21 10.4001 21C11.836 21 13 19.8359 13 18.4ZM9.40007 18.4C9.40007 17.8477 9.84778 17.4 10.4001 17.4C10.9523 17.4 11.4001 17.8477 11.4001 18.4C11.4001 18.9523 10.9523 19.4 10.4001 19.4C9.84778 19.4 9.40007 18.9523 9.40007 18.4ZM22.2 18.4C22.2 16.9641 21.0359 15.8 19.6 15.8C18.1641 15.8 17 16.9641 17 18.4C17 19.8359 18.1641 21 19.6 21C21.0359 21 22.2 19.8359 22.2 18.4ZM18.6 18.4C18.6 17.8477 19.0477 17.4 19.6 17.4C20.1523 17.4 20.6 17.8477 20.6 18.4C20.6 18.9523 20.1523 19.4 19.6 19.4C19.0477 19.4 18.6 18.9523 18.6 18.4Z" fill="#088B46"/>
</svg>
