<svg width="30" height="24" viewBox="0 0 30 24" fill="none" xmlns="http://www.w3.org/2000/svg">
<path d="M0.71457 1.42816C0.31987 1.42816 0.000488281 1.10878 0.000488281 0.714082C0.000488281 0.319382 0.31987 0 0.71457 0H5.13348C5.46526 0 5.7446 0.225951 5.82468 0.532939L6.61218 2.77338H17.6971H29.2864C29.6811 2.77338 30.0005 3.09276 30.0005 3.48746C30.0005 3.57803 29.9833 3.66479 29.9528 3.74488L28.251 9.15435C28.2444 9.18295 28.2348 9.21156 28.2243 9.2392L27.126 12.7276C27.0393 13.0051 26.8 13.1919 26.5292 13.2234L17.8182 14.2607C17.7953 14.2645 17.7705 14.2673 17.7467 14.2692L10.1073 15.1788L8.6076 15.6345V17.9369H11.9397H21.3781H25.8399C26.2346 17.9369 26.554 18.2563 26.554 18.651C26.554 19.0457 26.2346 19.365 25.8399 19.365H23.7234C23.9113 19.7273 24.0171 20.1392 24.0171 20.5758C24.0171 21.3042 23.7215 21.9649 23.2439 22.4416C22.7662 22.9192 22.1065 23.2148 21.3781 23.2148C20.6488 23.2148 19.989 22.9192 19.5124 22.4416C19.0347 21.964 18.7392 21.3042 18.7392 20.5758C18.7392 20.1392 18.845 19.7273 19.0328 19.365H14.2859C14.4728 19.7273 14.5796 20.1392 14.5796 20.5758C14.5796 21.3042 14.284 21.9649 13.8064 22.4416C13.3287 22.9192 12.669 23.2148 11.9406 23.2148C11.2113 23.2148 10.5515 22.9192 10.0749 22.4416C9.59721 21.964 9.30166 21.3042 9.30166 20.5758C9.30166 20.1392 9.40749 19.7273 9.5953 19.365H7.89447C7.49977 19.365 7.18039 19.0457 7.18039 18.651V15.1073H7.18325C7.18325 14.8022 7.38155 14.519 7.68854 14.4265L9.05569 14.0118L7.38918 9.27257C7.37393 9.2373 7.36058 9.20107 7.35105 9.16389L5.43761 3.72199L5.43666 3.71818L4.63105 1.42816H0.715523H0.71457ZM22.2352 19.7207C22.0159 19.5014 21.7137 19.366 21.3791 19.366C21.0444 19.366 20.7413 19.5014 20.5229 19.7207C20.3037 19.9399 20.1683 20.2422 20.1683 20.5768C20.1683 20.9114 20.3037 21.2146 20.5229 21.4329C20.7422 21.6522 21.0444 21.7876 21.3791 21.7876C21.7137 21.7876 22.0159 21.6513 22.2352 21.4329C22.4545 21.2137 22.5899 20.9114 22.5899 20.5768C22.5899 20.2422 22.4545 19.939 22.2352 19.7207ZM12.7968 19.7207C12.5775 19.5014 12.2753 19.366 11.9406 19.366C11.606 19.366 11.3028 19.5014 11.0845 19.7207C10.8652 19.9399 10.7298 20.2422 10.7298 20.5768C10.7298 20.9114 10.8652 21.2146 11.0845 21.4329C11.3038 21.6522 11.606 21.7876 11.9406 21.7876C12.2753 21.7876 12.5784 21.6513 12.7968 21.4329C13.016 21.2137 13.1514 20.9114 13.1514 20.5768C13.1514 20.2422 13.016 19.939 12.7968 19.7207ZM8.54468 8.26771H11.8548L11.4401 4.20154H7.11461L8.54468 8.26771ZM13.2858 8.26771H16.983V4.20154H12.8711L13.2858 8.26771ZM18.4112 8.26771H22.1084L22.5231 4.20154H18.4112V8.26771ZM23.5404 8.26771H27.0345L28.314 4.20154H23.9551L23.5404 8.26771ZM26.5845 9.69587H23.3945L23.14 12.1899L25.9038 11.861L26.5855 9.69587H26.5845ZM21.9625 9.69587H18.4112V12.7524L21.6899 12.3625L21.9616 9.69587H21.9625ZM16.983 9.69587H13.4317L13.7997 13.3016L16.983 12.9231V9.69587ZM12.0007 9.69587H9.04711L10.4552 13.7001L12.3858 13.4703L12.0007 9.69587Z" fill="#088B46"/>
</svg>
