<svg width="30" height="30" viewBox="0 0 30 30" fill="none" xmlns="http://www.w3.org/2000/svg">
<path fill-rule="evenodd" clip-rule="evenodd" d="M15.0005 0C6.72364 0 0.000488281 6.72315 0.000488281 15C0.000488281 23.2768 6.72364 30 15.0005 30C23.2773 30 30.0005 23.2768 30.0005 15C30.0005 6.72315 23.2773 0 15.0005 0ZM8.12549 6.25C9.15362 6.25 10.0005 7.09687 10.0005 8.125C10.0005 9.15313 9.15362 10 8.12549 10C7.09736 10 6.25049 9.15313 6.25049 8.125C6.25049 7.09687 7.09736 6.25 8.12549 6.25ZM12.5005 7.5H23.438C23.6037 7.5 23.7627 7.56586 23.8799 7.68307C23.9971 7.80028 24.063 7.95924 24.063 8.125C24.063 8.29076 23.9971 8.44972 23.8799 8.56693C23.7627 8.68414 23.6037 8.75 23.438 8.75H12.5005C12.3347 8.75 12.1758 8.68414 12.0586 8.56693C11.9413 8.44972 11.8755 8.29076 11.8755 8.125C11.8755 7.95924 11.9413 7.80028 12.0586 7.68307C12.1758 7.56586 12.3347 7.5 12.5005 7.5ZM8.12549 13.125C9.15362 13.125 10.0005 13.9719 10.0005 15C10.0005 16.0281 9.15362 16.875 8.12549 16.875C7.09736 16.875 6.25049 16.0281 6.25049 15C6.25049 13.9719 7.09736 13.125 8.12549 13.125ZM12.5005 14.375H23.438C23.6037 14.375 23.7627 14.4409 23.8799 14.5581C23.9971 14.6753 24.063 14.8342 24.063 15C24.063 15.1658 23.9971 15.3247 23.8799 15.4419C23.7627 15.5591 23.6037 15.625 23.438 15.625H12.5005C12.3347 15.625 12.1758 15.5591 12.0586 15.4419C11.9413 15.3247 11.8755 15.1658 11.8755 15C11.8755 14.8342 11.9413 14.6753 12.0586 14.5581C12.1758 14.4409 12.3347 14.375 12.5005 14.375ZM8.12549 20C9.15362 20 10.0005 20.8469 10.0005 21.875C10.0005 22.9031 9.15362 23.75 8.12549 23.75C7.09736 23.75 6.25049 22.9031 6.25049 21.875C6.25049 20.8469 7.09736 20 8.12549 20ZM12.5005 21.25H23.438C23.6037 21.25 23.7627 21.3159 23.8799 21.4331C23.9971 21.5503 24.063 21.7092 24.063 21.875C24.063 22.0408 23.9971 22.1997 23.8799 22.3169C23.7627 22.4341 23.6037 22.5 23.438 22.5H12.5005C12.3347 22.5 12.1758 22.4341 12.0586 22.3169C11.9413 22.1997 11.8755 22.0408 11.8755 21.875C11.8755 21.7092 11.9413 21.5503 12.0586 21.4331C12.1758 21.3159 12.3347 21.25 12.5005 21.25Z" fill="#088B46"/>
</svg>
