<svg width="30" height="30" viewBox="0 0 30 30" fill="none" xmlns="http://www.w3.org/2000/svg">
<path fill-rule="evenodd" clip-rule="evenodd" d="M15.0006 0C6.72379 0 0.000640869 6.72315 0.000640869 15C0.000640869 23.2768 6.72379 30 15.0006 30C23.2775 30 30.0006 23.2768 30.0006 15C30.0006 6.72315 23.2775 0 15.0006 0ZM8.12564 6.25C9.15377 6.25 10.0006 7.09687 10.0006 8.125C10.0006 9.15313 9.15377 10 8.12564 10C7.09751 10 6.25064 9.15313 6.25064 8.125C6.25064 7.09687 7.09751 6.25 8.12564 6.25ZM12.5006 7.5H23.4381C23.6039 7.5 23.7629 7.56586 23.8801 7.68307C23.9973 7.80028 24.0631 7.95924 24.0631 8.125C24.0631 8.29076 23.9973 8.44972 23.8801 8.56693C23.7629 8.68414 23.6039 8.75 23.4381 8.75H12.5006C12.3349 8.75 12.1759 8.68414 12.0587 8.56693C11.9415 8.44972 11.8756 8.29076 11.8756 8.125C11.8756 7.95924 11.9415 7.80028 12.0587 7.68307C12.1759 7.56586 12.3349 7.5 12.5006 7.5ZM8.12564 13.125C9.15377 13.125 10.0006 13.9719 10.0006 15C10.0006 16.0281 9.15377 16.875 8.12564 16.875C7.09751 16.875 6.25064 16.0281 6.25064 15C6.25064 13.9719 7.09751 13.125 8.12564 13.125ZM12.5006 14.375H23.4381C23.6039 14.375 23.7629 14.4409 23.8801 14.5581C23.9973 14.6753 24.0631 14.8342 24.0631 15C24.0631 15.1658 23.9973 15.3247 23.8801 15.4419C23.7629 15.5591 23.6039 15.625 23.4381 15.625H12.5006C12.3349 15.625 12.1759 15.5591 12.0587 15.4419C11.9415 15.3247 11.8756 15.1658 11.8756 15C11.8756 14.8342 11.9415 14.6753 12.0587 14.5581C12.1759 14.4409 12.3349 14.375 12.5006 14.375ZM8.12564 20C9.15377 20 10.0006 20.8469 10.0006 21.875C10.0006 22.9031 9.15377 23.75 8.12564 23.75C7.09751 23.75 6.25064 22.9031 6.25064 21.875C6.25064 20.8469 7.09751 20 8.12564 20ZM12.5006 21.25H23.4381C23.6039 21.25 23.7629 21.3159 23.8801 21.4331C23.9973 21.5503 24.0631 21.7092 24.0631 21.875C24.0631 22.0408 23.9973 22.1997 23.8801 22.3169C23.7629 22.4341 23.6039 22.5 23.4381 22.5H12.5006C12.3349 22.5 12.1759 22.4341 12.0587 22.3169C11.9415 22.1997 11.8756 22.0408 11.8756 21.875C11.8756 21.7092 11.9415 21.5503 12.0587 21.4331C12.1759 21.3159 12.3349 21.25 12.5006 21.25Z" fill="#8E8E8E"/>
</svg>
