<svg width="20" height="20" viewBox="0 0 20 20" fill="none" xmlns="http://www.w3.org/2000/svg">
<circle cx="10" cy="10" r="10" transform="matrix(-1 -4.37114e-08 -4.37114e-08 1 20 0)" fill="white"/>
<path fill-rule="evenodd" clip-rule="evenodd" d="M8.67331 13.8158C9.31835 15.0752 11.0999 15.0752 11.7142 13.8158H14.2022C14.3558 13.8158 14.4786 13.6315 14.3865 13.5087C14.11 13.0786 13.9257 12.7408 13.7415 12.4336H6.64606C6.49248 12.7408 6.27747 13.0786 6.03174 13.5087C5.93959 13.6315 6.06246 13.8158 6.21604 13.8158H8.67331Z" fill="#088B46"/>
<path fill-rule="evenodd" clip-rule="evenodd" d="M13.5265 12.0032C13.1886 11.2968 13.1579 10.7746 13.1579 9.39239C13.1579 8.0716 12.2671 6.93511 11.0385 6.59723V5.82933C11.0385 4.72356 9.37984 4.72356 9.37984 5.82933V6.59723C8.1512 6.93511 7.26044 8.0716 7.26044 9.39239C7.26044 10.7746 7.22972 11.2968 6.89185 12.0032H7.32187C7.5676 11.4196 7.59831 10.8668 7.59831 9.63811C7.59831 8.37876 8.36621 7.3037 9.5027 6.90439V7.15012C8.48908 7.54943 7.81332 8.53234 7.81332 9.63811C7.81332 10.4982 7.84404 11.2353 7.5676 12.0032H13.5265Z" fill="#088B46"/>
</svg>
