<svg width="20" height="20" viewBox="0 0 20 20" fill="none" xmlns="http://www.w3.org/2000/svg">
<circle cx="10" cy="10" r="10" transform="matrix(-1 -4.37114e-08 -4.37114e-08 1 20 0)" fill="white"/>
<path d="M9.14366 5.00001C8.48953 5.00031 7.84476 5.15544 7.26204 5.45273C6.67933 5.75002 6.17521 6.18103 5.7909 6.71052C5.40659 7.24002 5.153 7.85297 5.05086 8.49927C4.94871 9.14557 5.00091 9.80688 5.20319 10.4291C5.40546 11.0514 5.75208 11.6169 6.21469 12.0796C6.67731 12.5422 7.2428 12.8887 7.86493 13.0908C8.48707 13.2929 9.14819 13.3449 9.79426 13.2425C10.4403 13.1402 11.053 12.8863 11.5822 12.5017L13.6469 14.5669C13.7689 14.689 13.9344 14.7576 14.1069 14.7576C14.2795 14.7576 14.445 14.689 14.567 14.5669C14.689 14.4449 14.7576 14.2793 14.7576 14.1067C14.7576 13.9341 14.689 13.7686 14.567 13.6465L12.5024 11.5812C12.9524 10.9625 13.2223 10.2312 13.2823 9.46839C13.3423 8.70558 13.1899 7.94106 12.8421 7.25956C12.4943 6.57807 11.9646 6.00621 11.3118 5.60738C10.659 5.20856 9.90859 4.99833 9.14366 5.00001ZM9.14366 11.9927C8.58098 11.9927 8.03093 11.8258 7.56308 11.5131C7.09522 11.2004 6.73057 10.7559 6.51524 10.2359C6.29991 9.71587 6.24357 9.14366 6.35335 8.59162C6.46312 8.03958 6.73408 7.5325 7.13196 7.1345C7.52983 6.7365 8.03676 6.46546 8.58863 6.35565C9.14051 6.24584 9.71254 6.3022 10.2324 6.5176C10.7522 6.73299 11.1966 7.09775 11.5092 7.56575C11.8218 8.03375 11.9886 8.58397 11.9886 9.14682C11.9878 9.90132 11.6878 10.6247 11.1544 11.1582C10.6211 11.6917 9.89793 11.9918 9.14366 11.9927Z" fill="#088B46"/>
</svg>
