<svg width="12" height="12" viewBox="0 0 12 12" fill="none" xmlns="http://www.w3.org/2000/svg">
<path d="M7.37435 5.28243C7.36183 5.27022 7.34935 5.25805 7.33054 5.25805H6.11069L6.88637 3.14705L6.91765 3.06164C6.92389 3.04334 6.92389 3.02504 6.91141 3.01282L6.90517 3.00674C6.88641 2.98235 6.8426 2.97622 6.8176 3.00674L4.30283 6.11832C4.28406 6.13662 4.2903 6.16105 4.29659 6.17935C4.30911 6.19157 4.32159 6.20374 4.3404 6.20374H5.5665L5.52269 6.31354L4.7595 8.40623C4.75326 8.42453 4.75326 8.44283 4.76574 8.45505C4.78451 8.47943 4.82832 8.49165 4.85956 8.45505L4.87832 8.43066L7.35556 5.36788L7.37432 5.3435C7.39309 5.33124 7.39311 5.30073 7.37435 5.28243Z" fill="black"/>
<path fill-rule="evenodd" clip-rule="evenodd" d="M5.51939 5.05993C5.54047 5.07776 5.5431 5.10931 5.52526 5.13039L4.82038 5.96344H5.13504C5.16265 5.96344 5.18504 5.98583 5.18504 6.01344C5.18504 6.04105 5.16265 6.06344 5.13504 6.06344H4.60477L5.44892 5.0658C5.46676 5.04472 5.49831 5.04209 5.51939 5.05993Z" fill="white"/>
<path fill-rule="evenodd" clip-rule="evenodd" d="M6.22927 6.4037C6.20819 6.38586 6.20556 6.35431 6.22339 6.33323L6.92828 5.50018H6.61362C6.586 5.50018 6.56362 5.4778 6.56362 5.45018C6.56362 5.42257 6.586 5.40018 6.61362 5.40018H7.14389L6.29973 6.39782C6.2819 6.4189 6.25035 6.42153 6.22927 6.4037Z" fill="white"/>
<path d="M1.89295 1.61892C1.82309 1.61892 1.75323 1.64532 1.69932 1.69868C1.5926 1.80595 1.5926 1.97923 1.69932 2.08594L1.69987 2.08649C1.75323 2.13985 1.82309 2.1668 1.8935 2.1668C1.96336 2.1668 2.03322 2.13985 2.08713 2.08649C2.19385 1.97922 2.19385 1.80595 2.08713 1.69923L2.08658 1.69868C2.03322 1.64532 1.96336 1.61892 1.89295 1.61892ZM9.0484 8.77437C8.97854 8.77437 8.90867 8.80132 8.85532 8.85468C8.74805 8.96139 8.74805 9.13467 8.85532 9.24194C8.90867 9.2953 8.97908 9.32225 9.04895 9.32225C9.11881 9.32225 9.18922 9.29529 9.24258 9.24194C9.34929 9.13522 9.34929 8.96139 9.24258 8.85468C9.18867 8.80132 9.11881 8.77437 9.04895 8.77437H9.0484ZM5.80173 0.935692C3.11457 0.935692 0.93619 3.11407 0.93619 5.80123C0.93619 8.4884 3.11457 10.6673 5.80173 10.6673C6.68683 10.6673 7.51694 10.4297 8.23147 10.0171C8.23312 10.016 8.23477 10.0155 8.23477 10.0155C8.36569 9.93957 8.4108 9.77234 8.33489 9.64143V9.64088C8.28428 9.55342 8.19187 9.50391 8.09725 9.50391C8.05105 9.50391 8.00374 9.51601 7.96083 9.54076C7.94268 9.55122 7.92673 9.56112 7.90967 9.57102L7.90802 9.57157C7.28422 9.92033 6.56747 10.1255 5.80175 10.1255C3.41383 10.1255 1.47809 8.18977 1.47809 5.80129C1.47809 3.41337 3.41383 1.47763 5.80175 1.47763C8.18967 1.47763 10.126 3.41337 10.126 5.80129C10.126 6.5692 9.92519 7.28977 9.57423 7.91474V7.91529C9.56378 7.93015 9.55113 7.9439 9.54122 7.9604C9.46586 8.09132 9.51042 8.2591 9.64134 8.33445H9.64189C9.6848 8.35975 9.7321 8.37131 9.77831 8.37131C9.87073 8.37131 9.96149 8.3251 10.0127 8.24149C10.4291 7.52417 10.6678 6.69075 10.6678 5.80132C10.6678 3.11416 8.4889 0.935692 5.80173 0.935692ZM5.80063 0C4.79837 0 3.79617 0.259648 2.9028 0.776169C2.9017 0.776719 2.90115 0.776719 2.90115 0.776719C2.77022 0.85263 2.72512 1.01986 2.80103 1.15077V1.15132C2.85164 1.23878 2.9435 1.28829 3.03812 1.28829C3.08487 1.28829 3.13163 1.27619 3.17509 1.25144C3.18169 1.24759 3.19434 1.24043 3.19434 1.24043C3.99968 0.778369 4.90012 0.547323 5.8018 0.547323C7.14677 0.547323 8.49122 1.06 9.51711 2.08594C11.5689 4.13828 11.5689 7.46464 9.51711 9.51656C8.49119 10.5425 7.14679 11.0557 5.8018 11.0557C4.45739 11.0557 3.11238 10.5425 2.0865 9.51656C0.37579 7.80585 0.0951321 5.20557 1.23717 3.19999C1.24597 3.18458 1.25202 3.17468 1.25202 3.17468C1.32739 3.04376 1.28283 2.87598 1.15191 2.80063H1.15136C1.10845 2.77533 1.06114 2.76378 1.01494 2.76378C0.921421 2.76378 0.829008 2.81108 0.777848 2.8969L0.777297 2.898C-0.507154 5.11707 -0.199655 8.00505 1.69925 9.90389C2.83243 11.0371 4.31713 11.603 5.80181 11.603C7.2865 11.603 8.77175 11.037 9.90438 9.90389C12.1702 7.63806 12.1702 3.96458 9.90438 1.69932C8.77175 0.566138 7.28594 0.000160486 5.80125 0.000160486L5.80063 0Z" fill="black"/>
</svg>
