<svg width="14" height="16" viewBox="0 0 14 16" fill="none" xmlns="http://www.w3.org/2000/svg">
<path d="M6.06667 4.59399C6.39734 4.44557 6.68981 4.22367 6.9218 3.94518C7.15378 3.66669 7.31919 3.33895 7.40542 2.9869L13.4167 2.9869C13.5714 2.9869 13.7197 2.92544 13.8291 2.81605C13.9385 2.70665 14 2.55828 14 2.40357C14 2.24886 13.9385 2.10049 13.8291 1.99109C13.7197 1.88169 13.5714 1.82024 13.4167 1.82024L7.40833 1.82024C7.37262 1.68061 7.32581 1.54406 7.26833 1.4119C7.06252 0.957412 6.72036 0.578242 6.28932 0.326991C5.85828 0.0757398 5.35973 -0.0351357 4.86283 0.00974544C4.36593 0.0546266 3.89532 0.253039 3.51627 0.577459C3.13723 0.901878 2.86855 1.33622 2.7475 1.82024L0.583334 1.82024C0.428624 1.82024 0.28025 1.88169 0.170854 1.99109C0.0614585 2.10049 -9.83008e-08 2.24886 -1.05063e-07 2.40357C-1.11826e-07 2.55828 0.0614585 2.70665 0.170854 2.81605C0.28025 2.92544 0.428624 2.9869 0.583334 2.9869L2.74458 2.9869C2.83688 3.36468 3.02013 3.71418 3.27837 4.00495C3.53661 4.29573 3.86201 4.51897 4.22625 4.65524C4.52174 4.76762 4.83664 4.82009 5.15261 4.80957C5.46858 4.79905 5.7793 4.72577 6.06667 4.59399ZM4.6375 3.5644C4.44674 3.49254 4.27665 3.37473 4.14229 3.22143C4.00793 3.06813 3.91345 2.88405 3.86722 2.68551C3.82099 2.48697 3.82444 2.2801 3.87726 2.08321C3.93008 1.88632 4.03064 1.7055 4.17004 1.55676C4.30943 1.40802 4.48336 1.29596 4.67641 1.23049C4.86946 1.16502 5.07568 1.14817 5.2768 1.18144C5.47791 1.21471 5.66772 1.29706 5.82941 1.4212C5.9911 1.54535 6.11967 1.70745 6.20375 1.89315C6.27708 2.05228 6.3149 2.22545 6.31458 2.40065C6.31462 2.6394 6.24586 2.8731 6.11655 3.0738C5.98723 3.27449 5.80284 3.43368 5.58542 3.53232C5.43783 3.60119 5.27801 3.64001 5.11527 3.64652C4.95253 3.65303 4.79012 3.6271 4.6375 3.57024L4.6375 3.5644Z" fill="white"/>
<path d="M6.06667 15.386C6.39734 15.2376 6.68981 15.0157 6.9218 14.7372C7.15378 14.4587 7.31919 14.1309 7.40542 13.7789L13.4167 13.7789C13.5714 13.7789 13.7197 13.7174 13.8291 13.608C13.9385 13.4986 14 13.3503 14 13.1956C14 13.0409 13.9385 12.8925 13.8291 12.7831C13.7197 12.6737 13.5714 12.6122 13.4167 12.6122L7.40833 12.6122C7.37262 12.4726 7.32581 12.3361 7.26833 12.2039C7.06252 11.7494 6.72036 11.3702 6.28932 11.119C5.85828 10.8677 5.35973 10.7569 4.86283 10.8017C4.36593 10.8466 3.89532 11.045 3.51627 11.3695C3.13723 11.6939 2.86855 12.1282 2.7475 12.6122L0.583334 12.6122C0.428624 12.6122 0.280251 12.6737 0.170855 12.7831C0.0614586 12.8925 0 13.0409 0 13.1956C0 13.3503 0.0614586 13.4986 0.170855 13.608C0.280251 13.7174 0.428624 13.7789 0.583334 13.7789L2.74459 13.7789C2.83688 14.1567 3.02013 14.5062 3.27837 14.7969C3.53661 15.0877 3.86201 15.311 4.22625 15.4472C4.52174 15.5596 4.83665 15.6121 5.15261 15.6016C5.46858 15.591 5.7793 15.5178 6.06667 15.386ZM4.6375 14.3564C4.44674 14.2845 4.27665 14.1667 4.14229 14.0134C4.00793 13.8601 3.91345 13.676 3.86722 13.4775C3.82099 13.279 3.82444 13.0721 3.87726 12.8752C3.93008 12.6783 4.03064 12.4975 4.17004 12.3488C4.30943 12.2 4.48336 12.0879 4.67641 12.0225C4.86946 11.957 5.07568 11.9402 5.2768 11.9734C5.47791 12.0067 5.66772 12.0891 5.82941 12.2132C5.9911 12.3373 6.11967 12.4994 6.20375 12.6851C6.27681 12.8444 6.31462 13.0175 6.31458 13.1926C6.31462 13.4314 6.24586 13.6651 6.11655 13.8658C5.98723 14.0665 5.80284 14.2257 5.58542 14.3243C5.43743 14.3922 5.27742 14.4301 5.11468 14.4356C4.95194 14.4411 4.78974 14.4142 4.6375 14.3564Z" fill="white"/>
<path d="M11.0833 8.64806C11.1154 8.56056 11.1417 8.47306 11.165 8.38264L13.4167 8.38264C13.5714 8.38264 13.7197 8.32119 13.8291 8.21179C13.9385 8.10239 14 7.95402 14 7.79931C14 7.6446 13.9385 7.49623 13.8291 7.38683C13.7197 7.27744 13.5714 7.21598 13.4167 7.21598L11.1562 7.21598C11.0701 6.87463 10.9101 6.55632 10.6877 6.28345C10.4653 6.01057 10.1857 5.78976 9.86876 5.63656C9.55179 5.48336 9.20509 5.40149 8.85307 5.39671C8.50105 5.39193 8.15226 5.46435 7.83125 5.60889C7.54303 5.73823 7.28328 5.92339 7.06702 6.15367C6.85075 6.38395 6.68225 6.65479 6.57125 6.95056C6.53917 7.03806 6.51292 7.12848 6.48958 7.21598L0.583334 7.21598C0.428624 7.21598 0.280251 7.27744 0.170855 7.38683C0.0614586 7.49623 0 7.6446 0 7.79931C0 7.95402 0.0614586 8.10239 0.170855 8.21179C0.280251 8.32119 0.428624 8.38264 0.583334 8.38264L6.4925 8.38264C6.52596 8.52293 6.57285 8.65967 6.6325 8.79098C6.82659 9.22791 7.1466 9.59703 7.55159 9.85113C7.95658 10.1052 8.42815 10.2328 8.90601 10.2174C9.38387 10.2021 9.8463 10.0445 10.2342 9.76499C10.622 9.48543 10.9177 9.09655 11.0833 8.64806ZM8.38542 8.96889C8.15595 8.88238 7.95731 8.72974 7.81461 8.5303C7.67192 8.33086 7.59158 8.09358 7.58378 7.84847C7.57597 7.60336 7.64104 7.36145 7.77076 7.15333C7.90048 6.94522 8.08901 6.78025 8.3125 6.67931C8.50123 6.59403 8.70832 6.5574 8.91485 6.57276C9.12138 6.58812 9.32077 6.65498 9.49481 6.76724C9.66885 6.87949 9.81199 7.03356 9.91116 7.21538C10.0103 7.3972 10.0624 7.60096 10.0625 7.80806C10.0624 7.95741 10.0357 8.10555 9.98375 8.24556C9.92551 8.39648 9.83808 8.53445 9.72648 8.65155C9.61487 8.76866 9.48128 8.86262 9.33333 8.92806C9.18594 8.9974 9.02622 9.03672 8.86348 9.04373C8.70074 9.05074 8.53823 9.0253 8.38542 8.96889Z" fill="white"/>
</svg>
