<svg width="21" height="21" viewBox="0 0 21 21" fill="none" xmlns="http://www.w3.org/2000/svg">
<rect x="1" y="1" width="19" height="19" rx="1" stroke="#8E8E8E"/>
<path d="M7.1879 7.24174L7.18791 7.24173C7.51637 6.85502 7.92446 6.68164 8.31218 6.68164C8.6999 6.68164 9.108 6.85502 9.43647 7.24174L10.1207 8.04733L10.5018 8.496L10.8829 8.04733L11.5629 7.24676L11.5629 7.24675C11.8914 6.86002 12.2994 6.68665 12.6872 6.68665C13.0749 6.68665 13.483 6.86003 13.8114 7.24675C14.4869 8.04198 14.4869 9.34884 13.8114 10.144L13.8114 10.144L10.498 14.0451L7.18827 10.1394L7.18821 10.1394C6.51294 9.3428 6.51273 8.03662 7.1879 7.24174Z" stroke="#8E8E8E"/>
</svg>
