<svg width="30" height="30" viewBox="0 0 30 30" fill="none" xmlns="http://www.w3.org/2000/svg">
<path d="M29.6203 12.0142L15.6203 0.230739C15.4438 0.0812941 15.2253 0 15.0003 0C14.7753 0 14.5569 0.0812941 14.3803 0.230739L0.380316 12.0142C0.172121 12.1903 0.0377745 12.4479 0.00683103 12.7301C-0.0241125 13.0124 0.0508818 13.2962 0.215316 13.5193C0.37975 13.7423 0.620155 13.8862 0.883643 13.9193C1.14713 13.9525 1.41212 13.8722 1.62032 13.696L15.0003 2.43746L28.3803 13.7067C28.5885 13.8829 28.8535 13.9632 29.117 13.9301C29.3805 13.8969 29.6209 13.753 29.7853 13.53C29.9498 13.3069 30.0247 13.0231 29.9938 12.7408C29.9629 12.4586 29.8285 12.201 29.6203 12.0249V12.0142Z" fill="#088B46"/>
<path d="M4.00049 13.8354V28.929C4.00049 29.2131 4.10585 29.4855 4.29338 29.6864C4.48092 29.8873 4.73527 30.0002 5.00049 30.0002H11.0005C11.2657 30.0002 11.5201 29.8873 11.7076 29.6864C11.8951 29.4855 12.0005 29.2131 12.0005 28.929V18.2167H18.0005V28.929C18.0005 29.2131 18.1058 29.4855 18.2934 29.6864C18.4809 29.8873 18.7353 30.0002 19.0005 30.0002H25.0005C25.2657 30.0002 25.5201 29.8873 25.7076 29.6864C25.8951 29.4855 26.0005 29.2131 26.0005 28.929V13.8354L15.0005 4.58008L4.00049 13.8354Z" fill="#088B46"/>
</svg>
