<svg width="18" height="18" viewBox="0 0 18 18" fill="none" xmlns="http://www.w3.org/2000/svg">
<circle cx="9" cy="9" r="9" transform="matrix(-1 -4.37114e-08 -4.37114e-08 1 18 0)" fill="#088B46"/>
<path d="M9.9639 13.5C10.181 13.4995 10.3757 13.3503 10.4586 13.1229C10.5415 12.8955 10.4958 12.6337 10.3431 12.4592L7.29628 8.99987L10.3431 5.54054C10.4437 5.42631 10.5005 5.27135 10.5005 5.11004C10.5005 4.94821 10.4441 4.79326 10.3435 4.67902C10.1344 4.4405 9.79434 4.4405 9.58474 4.67796L6.15746 8.56931C6.05685 8.68355 6.00049 8.83851 6.00049 8.99981C6.00049 9.16111 6.05685 9.31607 6.15746 9.43031L9.58474 13.3217C9.68488 13.4359 9.82137 13.5005 9.9639 13.5Z" fill="white"/>
</svg>
