<svg width="20" height="20" viewBox="0 0 20 20" fill="none" xmlns="http://www.w3.org/2000/svg">
<path fill-rule="evenodd" clip-rule="evenodd" d="M10.3217 10.3257C10.0397 10.1266 9.68614 10.0676 9.45548 10.0792L9.44394 10.0797H7.39792V9.15498H9.42163C9.80724 9.13818 10.3716 9.22891 10.855 9.57023C11.3695 9.93344 11.7443 10.5479 11.7443 11.4669C11.7443 12.3903 11.3635 12.975 10.8221 13.2922C10.3276 13.582 9.76466 13.6097 9.42127 13.5938H7.1282C6.73017 13.608 6.09231 13.7881 5.56066 14.2154C5.04379 14.6309 4.62367 15.2808 4.62367 16.2756C4.62367 17.2695 5.04324 17.9217 5.56471 18.3506C6.0907 18.7832 6.72769 18.9917 7.15065 19.0499H13.8712V19.9746H7.0917L7.06314 19.9711C6.49923 19.9006 5.67288 19.637 4.97727 19.0648C4.26575 18.4796 3.69891 17.5751 3.69891 16.2756C3.69891 14.977 4.26519 14.0702 4.98132 13.4946C5.67967 12.9333 6.51719 12.6877 7.10605 12.6693L7.11327 12.669H9.44394L9.45548 12.6696C9.72981 12.6833 10.0842 12.6528 10.3546 12.4944C10.5838 12.36 10.8195 12.097 10.8195 11.4669C10.8195 10.8323 10.5778 10.5066 10.3217 10.3257Z" fill="white"/>
<path d="M19.9747 15.8133C19.9747 17.7553 16.8305 19.9747 16.8305 19.9747C16.8305 19.9747 13.6863 17.8477 13.6863 15.8133C13.6863 14.1789 14.7447 12.4841 16.8305 12.4841C18.9163 12.4841 19.9747 14.1789 19.9747 15.8133Z" fill="white"/>
<path d="M8.50778 4.60324C8.50778 7.28847 4.25389 10.3573 4.25389 10.3573C4.25389 10.3573 0 7.41634 0 4.60324C0 2.34342 1.43189 0 4.25389 0C7.07589 0 8.50778 2.34342 8.50778 4.60324Z" fill="white"/>
<path fill-rule="evenodd" clip-rule="evenodd" d="M6.84312 4.43874C6.84312 5.81772 5.72525 6.93559 4.34628 6.93559C2.9673 6.93559 1.84943 5.81772 1.84943 4.43874C1.84943 3.05977 2.9673 1.94189 4.34628 1.94189C5.72525 1.94189 6.84312 3.05977 6.84312 4.43874ZM4.34628 5.82588C5.11237 5.82588 5.73341 5.20484 5.73341 4.43874C5.73341 3.67265 5.11237 3.05161 4.34628 3.05161C3.58018 3.05161 2.95914 3.67265 2.95914 4.43874C2.95914 5.20484 3.58018 5.82588 4.34628 5.82588Z" fill="#088B46"/>
</svg>
