<svg width="19" height="18" viewBox="0 0 19 18" fill="none" xmlns="http://www.w3.org/2000/svg">
<path d="M7.25684 2.25V0.75H11.7568V2.25H7.25684ZM9.50684 16.5C8.58184 16.5 7.70984 16.322 6.89084 15.966C6.07184 15.61 5.35634 15.1255 4.74434 14.5125C4.13184 13.9 3.64759 13.1842 3.29159 12.3652C2.93559 11.5462 2.75734 10.6745 2.75684 9.75C2.75684 8.825 2.93509 7.953 3.29159 7.134C3.64809 6.315 4.13234 5.5995 4.74434 4.9875C5.35684 4.375 6.07259 3.89075 6.89159 3.53475C7.71059 3.17875 8.58234 3.0005 9.50684 3C10.2818 3 11.0256 3.125 11.7381 3.375C12.4506 3.625 13.1193 3.9875 13.7443 4.4625L14.7943 3.4125L15.8443 4.4625L14.7943 5.5125C15.2693 6.1375 15.6318 6.80625 15.8818 7.51875C16.1318 8.23125 16.2568 8.975 16.2568 9.75C16.2568 10.675 16.0786 11.547 15.7221 12.366C15.3656 13.185 14.8813 13.9005 14.2693 14.5125C13.6568 15.125 12.9411 15.6095 12.1221 15.966C11.3031 16.3225 10.4313 16.5005 9.50684 16.5ZM9.50684 15C10.9568 15 12.1943 14.4875 13.2193 13.4625C14.2443 12.4375 14.7568 11.2 14.7568 9.75C14.7568 8.3 14.2443 7.0625 13.2193 6.0375C12.1943 5.0125 10.9568 4.5 9.50684 4.5C8.05684 4.5 6.81934 5.0125 5.79434 6.0375C4.76934 7.0625 4.25684 8.3 4.25684 9.75C4.25684 11.2 4.76934 12.4375 5.79434 13.4625C6.81934 14.4875 8.05684 15 9.50684 15Z" fill="#313131"/>
<path d="M9.50684 14.25C10.7003 14.25 11.8449 13.7759 12.6888 12.932C13.5327 12.0881 14.0068 10.9435 14.0068 9.75C14.0068 8.55653 13.5327 7.41193 12.6888 6.56802C11.8449 5.72411 10.7003 5.25 9.50684 5.25L9.50684 9.75L9.50684 14.25Z" fill="#007312"/>
</svg>
