<svg width="30" height="28" viewBox="0 0 30 28" fill="none" xmlns="http://www.w3.org/2000/svg">
<path d="M23.2564 0.056C21.3307 -0.171781 19.3548 0.300051 17.6927 1.38494C16.5626 2.12262 15.6459 3.11444 15 4.27384C14.3541 3.11444 13.4374 2.12295 12.3073 1.38494C10.6452 0.300051 8.669 -0.171781 6.74361 0.056C4.8706 0.277598 3.19023 1.17343 2.01195 2.57818C0.695707 4.14726 0 6.33786 0 8.91373C0 17.435 13.9499 26.5579 14.5438 26.9422C14.6889 27.0363 14.8519 27.0812 15.013 27.0812C15.0228 27.0812 15.0322 27.0796 15.042 27.0796C15.0514 27.0799 15.0609 27.0812 15.0706 27.0812C15.2323 27.0812 15.396 27.036 15.5418 26.9409C16.1321 26.5566 30 17.4337 30 8.91373C30 6.33819 29.3043 4.14726 27.9884 2.57818C26.8094 1.17343 25.1291 0.277598 23.2564 0.056Z" fill="#8E8E8E"/>
<path d="M21.3078 3.69366C20.8298 3.69887 20.4465 4.09033 20.4517 4.56834C20.4569 5.0431 20.8432 5.42447 21.317 5.42447C21.3202 5.42447 21.3231 5.42447 21.3264 5.42447C22.1516 5.41634 22.9007 5.70692 23.4441 6.24481C24.1196 6.91318 24.4766 7.95446 24.4766 9.25639C24.4766 9.7344 24.8641 10.122 25.3422 10.122C25.8202 10.122 26.2077 9.7344 26.2077 9.25639C26.2077 7.0147 25.3669 5.71245 24.6617 5.01447C23.7867 4.1489 22.5968 3.67967 21.3078 3.69366Z" fill="white"/>
</svg>
