<svg width="20" height="20" viewBox="0 0 20 20" fill="none" xmlns="http://www.w3.org/2000/svg">
<circle cx="10" cy="10" r="10" transform="matrix(-1 -4.37114e-08 -4.37114e-08 1 20 0)" fill="white"/>
<path d="M11.071 15C11.3122 14.9994 11.5285 14.8337 11.6207 14.581C11.7128 14.3283 11.6621 14.0375 11.4923 13.8436L8.107 9.99985L11.4923 6.15616C11.6041 6.02923 11.6672 5.85705 11.6672 5.67783C11.6672 5.49801 11.6046 5.32584 11.4928 5.19891C11.2604 4.93389 10.8826 4.93389 10.6497 5.19773L6.84165 9.52146C6.72986 9.64839 6.66724 9.82057 6.66724 9.99979C6.66724 10.179 6.72986 10.3512 6.84165 10.4781L10.6497 14.8018C10.761 14.9288 10.9127 15.0006 11.071 15Z" fill="#088B46"/>
</svg>
